G04 (created by PCBNEW (22-Jun-2014 BZR 4027)-stable) date Thu 13 Oct 2016 08:17:28 AM EDT*
%MOIN*%
G04 Gerber Fmt 3.4, Leading zero omitted, Abs format*
%FSLAX34Y34*%
G01*
G70*
G90*
G04 APERTURE LIST*
%ADD10C,0.00590551*%
%ADD11R,0.06X0.06*%
%ADD12C,0.06*%
%ADD13R,0.0629921X0.023622*%
%ADD14R,0.03X0.02*%
%ADD15C,0.035*%
%ADD16C,0.01*%
G04 APERTURE END LIST*
G54D10*
G54D11*
X32500Y-31500D03*
G54D12*
X32500Y-30500D03*
X32500Y-29500D03*
X32500Y-28500D03*
X32500Y-27500D03*
X32500Y-26500D03*
G54D11*
X9500Y-23000D03*
G54D12*
X10500Y-23000D03*
G54D11*
X22500Y-35000D03*
G54D12*
X21500Y-35000D03*
X20500Y-35000D03*
G54D11*
X20450Y-23050D03*
G54D12*
X21450Y-23050D03*
X22450Y-23050D03*
G54D11*
X7000Y-31000D03*
G54D12*
X7000Y-32000D03*
X7000Y-33000D03*
G54D11*
X7000Y-25500D03*
G54D12*
X7000Y-26500D03*
X7000Y-27500D03*
G54D13*
X26562Y-31261D03*
X24437Y-31261D03*
X26562Y-31753D03*
X26562Y-32246D03*
X26562Y-32738D03*
X24437Y-31753D03*
X24437Y-32246D03*
X24437Y-32738D03*
X15062Y-31261D03*
X12937Y-31261D03*
X15062Y-31753D03*
X15062Y-32246D03*
X15062Y-32738D03*
X12937Y-31753D03*
X12937Y-32246D03*
X12937Y-32738D03*
X15062Y-25761D03*
X12937Y-25761D03*
X15062Y-26253D03*
X15062Y-26746D03*
X15062Y-27238D03*
X12937Y-26253D03*
X12937Y-26746D03*
X12937Y-27238D03*
X26562Y-25761D03*
X24437Y-25761D03*
X26562Y-26253D03*
X26562Y-26746D03*
X26562Y-27238D03*
X24437Y-26253D03*
X24437Y-26746D03*
X24437Y-27238D03*
G54D14*
X17500Y-32625D03*
X17500Y-33375D03*
X18500Y-32625D03*
X17500Y-33000D03*
X18500Y-33375D03*
X9500Y-30125D03*
X9500Y-30875D03*
X10500Y-30125D03*
X9500Y-30500D03*
X10500Y-30875D03*
X9500Y-32625D03*
X9500Y-33375D03*
X10500Y-32625D03*
X9500Y-33000D03*
X10500Y-33375D03*
X17500Y-24625D03*
X17500Y-25375D03*
X18500Y-24625D03*
X17500Y-25000D03*
X18500Y-25375D03*
X17500Y-27125D03*
X17500Y-27875D03*
X18500Y-27125D03*
X17500Y-27500D03*
X18500Y-27875D03*
X9500Y-27125D03*
X9500Y-27875D03*
X10500Y-27125D03*
X9500Y-27500D03*
X10500Y-27875D03*
X17500Y-30125D03*
X17500Y-30875D03*
X18500Y-30125D03*
X17500Y-30500D03*
X18500Y-30875D03*
X21000Y-27125D03*
X21000Y-27875D03*
X22000Y-27125D03*
X21000Y-27500D03*
X22000Y-27875D03*
X21000Y-24625D03*
X21000Y-25375D03*
X22000Y-24625D03*
X21000Y-25000D03*
X22000Y-25375D03*
X29000Y-27125D03*
X29000Y-27875D03*
X30000Y-27125D03*
X29000Y-27500D03*
X30000Y-27875D03*
X29000Y-24625D03*
X29000Y-25375D03*
X30000Y-24625D03*
X29000Y-25000D03*
X30000Y-25375D03*
X21000Y-32625D03*
X21000Y-33375D03*
X22000Y-32625D03*
X21000Y-33000D03*
X22000Y-33375D03*
X21000Y-30125D03*
X21000Y-30875D03*
X22000Y-30125D03*
X21000Y-30500D03*
X22000Y-30875D03*
X29000Y-32625D03*
X29000Y-33375D03*
X30000Y-32625D03*
X29000Y-33000D03*
X30000Y-33375D03*
X29000Y-30125D03*
X29000Y-30875D03*
X30000Y-30125D03*
X29000Y-30500D03*
X30000Y-30875D03*
X9500Y-24625D03*
X9500Y-25375D03*
X10500Y-24625D03*
X9500Y-25000D03*
X10500Y-25375D03*
X9500Y-8625D03*
X9500Y-9375D03*
X10500Y-8625D03*
X9500Y-9000D03*
X10500Y-9375D03*
X29000Y-14125D03*
X29000Y-14875D03*
X30000Y-14125D03*
X29000Y-14500D03*
X30000Y-14875D03*
X29000Y-16625D03*
X29000Y-17375D03*
X30000Y-16625D03*
X29000Y-17000D03*
X30000Y-17375D03*
X21000Y-14125D03*
X21000Y-14875D03*
X22000Y-14125D03*
X21000Y-14500D03*
X22000Y-14875D03*
X21000Y-16625D03*
X21000Y-17375D03*
X22000Y-16625D03*
X21000Y-17000D03*
X22000Y-17375D03*
X29000Y-8625D03*
X29000Y-9375D03*
X30000Y-8625D03*
X29000Y-9000D03*
X30000Y-9375D03*
X29000Y-11125D03*
X29000Y-11875D03*
X30000Y-11125D03*
X29000Y-11500D03*
X30000Y-11875D03*
X21000Y-8625D03*
X21000Y-9375D03*
X22000Y-8625D03*
X21000Y-9000D03*
X22000Y-9375D03*
X21000Y-11125D03*
X21000Y-11875D03*
X22000Y-11125D03*
X21000Y-11500D03*
X22000Y-11875D03*
X17500Y-14125D03*
X17500Y-14875D03*
X18500Y-14125D03*
X17500Y-14500D03*
X18500Y-14875D03*
X9500Y-11125D03*
X9500Y-11875D03*
X10500Y-11125D03*
X9500Y-11500D03*
X10500Y-11875D03*
X17500Y-11125D03*
X17500Y-11875D03*
X18500Y-11125D03*
X17500Y-11500D03*
X18500Y-11875D03*
X17500Y-8625D03*
X17500Y-9375D03*
X18500Y-8625D03*
X17500Y-9000D03*
X18500Y-9375D03*
X9500Y-16625D03*
X9500Y-17375D03*
X10500Y-16625D03*
X9500Y-17000D03*
X10500Y-17375D03*
X9500Y-14125D03*
X9500Y-14875D03*
X10500Y-14125D03*
X9500Y-14500D03*
X10500Y-14875D03*
X17500Y-16625D03*
X17500Y-17375D03*
X18500Y-16625D03*
X17500Y-17000D03*
X18500Y-17375D03*
G54D13*
X26562Y-9761D03*
X24437Y-9761D03*
X26562Y-10253D03*
X26562Y-10746D03*
X26562Y-11238D03*
X24437Y-10253D03*
X24437Y-10746D03*
X24437Y-11238D03*
X15062Y-9761D03*
X12937Y-9761D03*
X15062Y-10253D03*
X15062Y-10746D03*
X15062Y-11238D03*
X12937Y-10253D03*
X12937Y-10746D03*
X12937Y-11238D03*
X15062Y-15261D03*
X12937Y-15261D03*
X15062Y-15753D03*
X15062Y-16246D03*
X15062Y-16738D03*
X12937Y-15753D03*
X12937Y-16246D03*
X12937Y-16738D03*
X26562Y-15261D03*
X24437Y-15261D03*
X26562Y-15753D03*
X26562Y-16246D03*
X26562Y-16738D03*
X24437Y-15753D03*
X24437Y-16246D03*
X24437Y-16738D03*
G54D11*
X7000Y-9500D03*
G54D12*
X7000Y-10500D03*
X7000Y-11500D03*
G54D11*
X7000Y-15000D03*
G54D12*
X7000Y-16000D03*
X7000Y-17000D03*
G54D11*
X20450Y-7050D03*
G54D12*
X21450Y-7050D03*
X22450Y-7050D03*
G54D11*
X22500Y-19000D03*
G54D12*
X21500Y-19000D03*
X20500Y-19000D03*
G54D11*
X9500Y-7000D03*
G54D12*
X10500Y-7000D03*
G54D11*
X32500Y-15500D03*
G54D12*
X32500Y-14500D03*
X32500Y-13500D03*
X32500Y-12500D03*
X32500Y-11500D03*
X32500Y-10500D03*
G54D15*
X18850Y-25950D03*
X18000Y-27500D03*
X18150Y-28600D03*
X18150Y-12600D03*
X18000Y-11500D03*
X18850Y-9950D03*
X18600Y-29500D03*
X19050Y-33050D03*
X31000Y-29550D03*
X31900Y-29600D03*
X31900Y-13600D03*
X31000Y-13550D03*
X19050Y-17050D03*
X18600Y-13500D03*
X30500Y-25850D03*
X30500Y-27650D03*
X30500Y-11650D03*
X30500Y-9850D03*
X30500Y-30750D03*
X30800Y-33000D03*
X29550Y-26850D03*
X29550Y-10850D03*
X30800Y-17000D03*
X30500Y-14750D03*
X23300Y-23150D03*
X23300Y-26350D03*
X23300Y-10350D03*
X23300Y-7150D03*
X10950Y-24100D03*
X9950Y-24100D03*
X9950Y-8100D03*
X10950Y-8100D03*
X19650Y-23550D03*
X19650Y-24950D03*
X19650Y-8950D03*
X19650Y-7550D03*
X22600Y-29750D03*
X23150Y-34100D03*
X26900Y-29550D03*
X27250Y-30300D03*
X27250Y-14300D03*
X26900Y-13550D03*
X23150Y-18100D03*
X22600Y-13750D03*
X11050Y-32250D03*
X11200Y-30100D03*
X10950Y-26500D03*
X11450Y-25300D03*
X22550Y-24600D03*
X22700Y-26800D03*
X22750Y-32400D03*
X11200Y-28950D03*
X24200Y-28950D03*
X23150Y-30250D03*
X23150Y-14250D03*
X24200Y-12950D03*
X11200Y-12950D03*
X22750Y-16400D03*
X22700Y-10800D03*
X22550Y-8600D03*
X11450Y-9300D03*
X10950Y-10500D03*
X11200Y-14100D03*
X11050Y-16250D03*
X8800Y-24200D03*
X8750Y-25250D03*
X8750Y-28050D03*
X8800Y-31100D03*
X8750Y-33550D03*
X20400Y-27600D03*
X20450Y-25650D03*
X20400Y-30650D03*
X20400Y-33150D03*
X21100Y-33950D03*
X22000Y-34000D03*
X22000Y-18000D03*
X21100Y-17950D03*
X20400Y-17150D03*
X20400Y-14650D03*
X20450Y-9650D03*
X20400Y-11600D03*
X8750Y-17550D03*
X8800Y-15100D03*
X8750Y-12050D03*
X8750Y-9250D03*
X8800Y-8200D03*
X17050Y-26750D03*
X9500Y-26300D03*
X9500Y-10300D03*
X17050Y-10750D03*
X16900Y-32350D03*
X16150Y-33550D03*
X12200Y-33650D03*
X9450Y-32050D03*
X9450Y-16050D03*
X12200Y-17650D03*
X16150Y-17550D03*
X16900Y-16350D03*
X21400Y-23600D03*
X20850Y-26450D03*
X23700Y-27850D03*
X23700Y-11850D03*
X20850Y-10450D03*
X21400Y-7600D03*
X16350Y-25450D03*
X16350Y-24050D03*
X19200Y-29800D03*
X19200Y-32250D03*
X30900Y-30450D03*
X30825Y-32375D03*
X30900Y-27400D03*
X30750Y-24900D03*
X28200Y-24500D03*
X26050Y-24950D03*
X25700Y-23550D03*
X19350Y-26900D03*
X19150Y-24950D03*
X19150Y-8950D03*
X19350Y-10900D03*
X25700Y-7550D03*
X26050Y-8950D03*
X28200Y-8500D03*
X30750Y-8900D03*
X30900Y-11400D03*
X30825Y-16375D03*
X30900Y-14450D03*
X19200Y-16250D03*
X19200Y-13800D03*
X16350Y-8050D03*
X16350Y-9450D03*
X16750Y-30900D03*
X17300Y-33900D03*
X28150Y-25600D03*
X28350Y-27850D03*
X28100Y-30600D03*
X28150Y-33000D03*
X28350Y-26800D03*
X16200Y-27250D03*
X17000Y-25450D03*
X17000Y-9450D03*
X16200Y-11250D03*
X28350Y-10800D03*
X28150Y-17000D03*
X28100Y-14600D03*
X28350Y-11850D03*
X28150Y-9600D03*
X17300Y-17900D03*
X16750Y-14900D03*
G54D16*
X18750Y-25000D02*
X18850Y-25100D01*
X18850Y-25100D02*
X18850Y-25950D01*
X18000Y-27500D02*
X18375Y-27875D01*
X18375Y-27875D02*
X18500Y-27875D01*
X17500Y-25000D02*
X18750Y-25000D01*
X18150Y-28600D02*
X20800Y-28600D01*
X24800Y-28600D02*
X20800Y-28600D01*
X24850Y-28600D02*
X24800Y-28600D01*
X31100Y-28600D02*
X31550Y-29050D01*
X31550Y-29050D02*
X31550Y-30250D01*
X31550Y-30250D02*
X31800Y-30500D01*
X31800Y-30500D02*
X32500Y-30500D01*
X24800Y-28600D02*
X31100Y-28600D01*
X24800Y-12600D02*
X31100Y-12600D01*
X31800Y-14500D02*
X32500Y-14500D01*
X31550Y-14250D02*
X31800Y-14500D01*
X31550Y-13050D02*
X31550Y-14250D01*
X31100Y-12600D02*
X31550Y-13050D01*
X24850Y-12600D02*
X24800Y-12600D01*
X24800Y-12600D02*
X20800Y-12600D01*
X18150Y-12600D02*
X20800Y-12600D01*
X17500Y-9000D02*
X18750Y-9000D01*
X18375Y-11875D02*
X18500Y-11875D01*
X18000Y-11500D02*
X18375Y-11875D01*
X18850Y-9100D02*
X18850Y-9950D01*
X18750Y-9000D02*
X18850Y-9100D01*
X17750Y-30500D02*
X18050Y-30200D01*
X18050Y-30200D02*
X18050Y-29800D01*
X18050Y-29800D02*
X18350Y-29500D01*
X18350Y-29500D02*
X18600Y-29500D01*
X19050Y-33050D02*
X19100Y-33100D01*
X19100Y-33100D02*
X19100Y-33300D01*
X19100Y-33300D02*
X19025Y-33375D01*
X19025Y-33375D02*
X18500Y-33375D01*
X17500Y-30500D02*
X17750Y-30500D01*
X18750Y-29500D02*
X18600Y-29500D01*
X18950Y-29300D02*
X20800Y-29300D01*
X18750Y-29500D02*
X18950Y-29300D01*
X24850Y-29300D02*
X20800Y-29300D01*
X24900Y-29300D02*
X24850Y-29300D01*
X30650Y-29200D02*
X31000Y-29550D01*
X31900Y-29600D02*
X32000Y-29500D01*
X32000Y-29500D02*
X32500Y-29500D01*
X24850Y-29300D02*
X26500Y-29300D01*
X26600Y-29200D02*
X30550Y-29200D01*
X26500Y-29300D02*
X26600Y-29200D01*
X30550Y-29200D02*
X30650Y-29200D01*
X30550Y-13200D02*
X30650Y-13200D01*
X26500Y-13300D02*
X26600Y-13200D01*
X26600Y-13200D02*
X30550Y-13200D01*
X24850Y-13300D02*
X26500Y-13300D01*
X32000Y-13500D02*
X32500Y-13500D01*
X31900Y-13600D02*
X32000Y-13500D01*
X30650Y-13200D02*
X31000Y-13550D01*
X24900Y-13300D02*
X24850Y-13300D01*
X24850Y-13300D02*
X20800Y-13300D01*
X18750Y-13500D02*
X18950Y-13300D01*
X18950Y-13300D02*
X20800Y-13300D01*
X18750Y-13500D02*
X18600Y-13500D01*
X17500Y-14500D02*
X17750Y-14500D01*
X19025Y-17375D02*
X18500Y-17375D01*
X19100Y-17300D02*
X19025Y-17375D01*
X19100Y-17100D02*
X19100Y-17300D01*
X19050Y-17050D02*
X19100Y-17100D01*
X18350Y-13500D02*
X18600Y-13500D01*
X18050Y-13800D02*
X18350Y-13500D01*
X18050Y-14200D02*
X18050Y-13800D01*
X17750Y-14500D02*
X18050Y-14200D01*
X30300Y-25000D02*
X30500Y-25200D01*
X30500Y-25200D02*
X30500Y-25850D01*
X30500Y-27650D02*
X30275Y-27875D01*
X30275Y-27875D02*
X30000Y-27875D01*
X29000Y-25000D02*
X30300Y-25000D01*
X30500Y-28100D02*
X30750Y-28350D01*
X30750Y-28350D02*
X31750Y-28350D01*
X31750Y-28350D02*
X31900Y-28500D01*
X31900Y-28500D02*
X32500Y-28500D01*
X30500Y-27650D02*
X30500Y-28100D01*
X30500Y-11650D02*
X30500Y-12100D01*
X31900Y-12500D02*
X32500Y-12500D01*
X31750Y-12350D02*
X31900Y-12500D01*
X30750Y-12350D02*
X31750Y-12350D01*
X30500Y-12100D02*
X30750Y-12350D01*
X29000Y-9000D02*
X30300Y-9000D01*
X30275Y-11875D02*
X30000Y-11875D01*
X30500Y-11650D02*
X30275Y-11875D01*
X30500Y-9200D02*
X30500Y-9850D01*
X30300Y-9000D02*
X30500Y-9200D01*
X30250Y-30500D02*
X30500Y-30750D01*
X30800Y-33000D02*
X30750Y-33050D01*
X30750Y-33050D02*
X30750Y-33100D01*
X30750Y-33100D02*
X30475Y-33375D01*
X30475Y-33375D02*
X30000Y-33375D01*
X29000Y-30500D02*
X30250Y-30500D01*
X29550Y-26850D02*
X29600Y-26800D01*
X29600Y-26800D02*
X31100Y-26800D01*
X31100Y-26800D02*
X31800Y-27500D01*
X31800Y-27500D02*
X32500Y-27500D01*
X31800Y-11500D02*
X32500Y-11500D01*
X31100Y-10800D02*
X31800Y-11500D01*
X29600Y-10800D02*
X31100Y-10800D01*
X29550Y-10850D02*
X29600Y-10800D01*
X29000Y-14500D02*
X30250Y-14500D01*
X30475Y-17375D02*
X30000Y-17375D01*
X30750Y-17100D02*
X30475Y-17375D01*
X30750Y-17050D02*
X30750Y-17100D01*
X30800Y-17000D02*
X30750Y-17050D01*
X30250Y-14500D02*
X30500Y-14750D01*
X7000Y-27500D02*
X9500Y-27500D01*
X10500Y-26000D02*
X9900Y-26600D01*
X9900Y-26600D02*
X9900Y-27400D01*
X9900Y-27400D02*
X9800Y-27500D01*
X9800Y-27500D02*
X9500Y-27500D01*
X10500Y-25375D02*
X10500Y-26000D01*
X10500Y-9375D02*
X10500Y-10000D01*
X9800Y-11500D02*
X9500Y-11500D01*
X9900Y-11400D02*
X9800Y-11500D01*
X9900Y-10600D02*
X9900Y-11400D01*
X10500Y-10000D02*
X9900Y-10600D01*
X7000Y-11500D02*
X9500Y-11500D01*
X7000Y-33000D02*
X9500Y-33000D01*
X9750Y-33000D02*
X9850Y-32900D01*
X9850Y-32900D02*
X9850Y-31550D01*
X9850Y-31550D02*
X10100Y-31300D01*
X10100Y-31300D02*
X10350Y-31300D01*
X10350Y-31300D02*
X10500Y-31150D01*
X10500Y-31150D02*
X10500Y-30875D01*
X9500Y-33000D02*
X9750Y-33000D01*
X9500Y-17000D02*
X9750Y-17000D01*
X10500Y-15150D02*
X10500Y-14875D01*
X10350Y-15300D02*
X10500Y-15150D01*
X10100Y-15300D02*
X10350Y-15300D01*
X9850Y-15550D02*
X10100Y-15300D01*
X9850Y-16900D02*
X9850Y-15550D01*
X9750Y-17000D02*
X9850Y-16900D01*
X7000Y-17000D02*
X9500Y-17000D01*
X22000Y-25650D02*
X21800Y-25850D01*
X21800Y-25850D02*
X21550Y-25850D01*
X21550Y-25850D02*
X21350Y-26050D01*
X21350Y-26050D02*
X21350Y-27400D01*
X21350Y-27400D02*
X21250Y-27500D01*
X21250Y-27500D02*
X21000Y-27500D01*
X22000Y-25375D02*
X22000Y-25650D01*
X23200Y-23050D02*
X23300Y-23150D01*
X23300Y-26350D02*
X22325Y-25375D01*
X22325Y-25375D02*
X22000Y-25375D01*
X22450Y-23050D02*
X23200Y-23050D01*
X22450Y-7050D02*
X23200Y-7050D01*
X22325Y-9375D02*
X22000Y-9375D01*
X23300Y-10350D02*
X22325Y-9375D01*
X23200Y-7050D02*
X23300Y-7150D01*
X22000Y-9375D02*
X22000Y-9650D01*
X21250Y-11500D02*
X21000Y-11500D01*
X21350Y-11400D02*
X21250Y-11500D01*
X21350Y-10050D02*
X21350Y-11400D01*
X21550Y-9850D02*
X21350Y-10050D01*
X21800Y-9850D02*
X21550Y-9850D01*
X22000Y-9650D02*
X21800Y-9850D01*
X21250Y-33000D02*
X21500Y-33250D01*
X21500Y-33250D02*
X21500Y-35000D01*
X21000Y-33000D02*
X21250Y-33000D01*
X21200Y-33000D02*
X21550Y-32650D01*
X21550Y-32650D02*
X21550Y-31650D01*
X21550Y-31650D02*
X22000Y-31200D01*
X22000Y-31200D02*
X22000Y-30875D01*
X21000Y-33000D02*
X21200Y-33000D01*
X21000Y-17000D02*
X21200Y-17000D01*
X22000Y-15200D02*
X22000Y-14875D01*
X21550Y-15650D02*
X22000Y-15200D01*
X21550Y-16650D02*
X21550Y-15650D01*
X21200Y-17000D02*
X21550Y-16650D01*
X21000Y-17000D02*
X21250Y-17000D01*
X21500Y-17250D02*
X21500Y-19000D01*
X21250Y-17000D02*
X21500Y-17250D01*
X7900Y-25500D02*
X8200Y-25200D01*
X8200Y-25200D02*
X8200Y-24900D01*
X8200Y-24900D02*
X8475Y-24625D01*
X8475Y-24625D02*
X9500Y-24625D01*
X7000Y-25500D02*
X7900Y-25500D01*
X11625Y-24625D02*
X11100Y-24100D01*
X11100Y-24100D02*
X10950Y-24100D01*
X9950Y-24100D02*
X9500Y-24550D01*
X9500Y-24550D02*
X9500Y-24625D01*
X17500Y-24625D02*
X11625Y-24625D01*
X17500Y-8625D02*
X11625Y-8625D01*
X9500Y-8550D02*
X9500Y-8625D01*
X9950Y-8100D02*
X9500Y-8550D01*
X11100Y-8100D02*
X10950Y-8100D01*
X11625Y-8625D02*
X11100Y-8100D01*
X7000Y-9500D02*
X7900Y-9500D01*
X8475Y-8625D02*
X9500Y-8625D01*
X8200Y-8900D02*
X8475Y-8625D01*
X8200Y-9200D02*
X8200Y-8900D01*
X7900Y-9500D02*
X8200Y-9200D01*
X8050Y-31000D02*
X8300Y-30750D01*
X8300Y-30750D02*
X8300Y-30500D01*
X8300Y-30500D02*
X8675Y-30125D01*
X8675Y-30125D02*
X9500Y-30125D01*
X7000Y-31000D02*
X8050Y-31000D01*
X9775Y-30125D02*
X10150Y-29750D01*
X10150Y-29750D02*
X17125Y-29750D01*
X17125Y-29750D02*
X17500Y-30125D01*
X9500Y-30125D02*
X9775Y-30125D01*
X9500Y-14125D02*
X9775Y-14125D01*
X17125Y-13750D02*
X17500Y-14125D01*
X10150Y-13750D02*
X17125Y-13750D01*
X9775Y-14125D02*
X10150Y-13750D01*
X7000Y-15000D02*
X8050Y-15000D01*
X8675Y-14125D02*
X9500Y-14125D01*
X8300Y-14500D02*
X8675Y-14125D01*
X8300Y-14750D02*
X8300Y-14500D01*
X8050Y-15000D02*
X8300Y-14750D01*
X20150Y-23050D02*
X19650Y-23550D01*
X19650Y-24950D02*
X19900Y-25200D01*
X19900Y-25200D02*
X20300Y-25200D01*
X20300Y-25200D02*
X20875Y-24625D01*
X20875Y-24625D02*
X21000Y-24625D01*
X20450Y-23050D02*
X20150Y-23050D01*
X21325Y-24625D02*
X21750Y-24200D01*
X21750Y-24200D02*
X23250Y-24200D01*
X23250Y-24200D02*
X23500Y-23950D01*
X23500Y-23950D02*
X28325Y-23950D01*
X28325Y-23950D02*
X29000Y-24625D01*
X21000Y-24625D02*
X21325Y-24625D01*
X21000Y-8625D02*
X21325Y-8625D01*
X28325Y-7950D02*
X29000Y-8625D01*
X23500Y-7950D02*
X28325Y-7950D01*
X23250Y-8200D02*
X23500Y-7950D01*
X21750Y-8200D02*
X23250Y-8200D01*
X21325Y-8625D02*
X21750Y-8200D01*
X20450Y-7050D02*
X20150Y-7050D01*
X20875Y-8625D02*
X21000Y-8625D01*
X20300Y-9200D02*
X20875Y-8625D01*
X19900Y-9200D02*
X20300Y-9200D01*
X19650Y-8950D02*
X19900Y-9200D01*
X20150Y-7050D02*
X19650Y-7550D01*
X21250Y-30125D02*
X21275Y-30125D01*
X21000Y-30125D02*
X21250Y-30125D01*
X21475Y-30125D02*
X21250Y-30125D01*
X21850Y-29750D02*
X22600Y-29750D01*
X21475Y-30125D02*
X21850Y-29750D01*
X22500Y-35000D02*
X22800Y-35000D01*
X23150Y-34100D02*
X23250Y-34200D01*
X23250Y-34200D02*
X23250Y-34550D01*
X23250Y-34550D02*
X22800Y-35000D01*
X22650Y-29800D02*
X22600Y-29750D01*
X26450Y-30000D02*
X26900Y-29550D01*
X23450Y-30000D02*
X26450Y-30000D01*
X23250Y-29800D02*
X23450Y-30000D01*
X29000Y-30125D02*
X27425Y-30125D01*
X27250Y-30300D02*
X27425Y-30125D01*
X23250Y-29800D02*
X22650Y-29800D01*
X23250Y-13800D02*
X22650Y-13800D01*
X27250Y-14300D02*
X27425Y-14125D01*
X29000Y-14125D02*
X27425Y-14125D01*
X23250Y-13800D02*
X23450Y-14000D01*
X23450Y-14000D02*
X26450Y-14000D01*
X26450Y-14000D02*
X26900Y-13550D01*
X22650Y-13800D02*
X22600Y-13750D01*
X23250Y-18550D02*
X22800Y-19000D01*
X23250Y-18200D02*
X23250Y-18550D01*
X23150Y-18100D02*
X23250Y-18200D01*
X22500Y-19000D02*
X22800Y-19000D01*
X21475Y-14125D02*
X21850Y-13750D01*
X21850Y-13750D02*
X22600Y-13750D01*
X21475Y-14125D02*
X21250Y-14125D01*
X21000Y-14125D02*
X21250Y-14125D01*
X21250Y-14125D02*
X21275Y-14125D01*
X11450Y-25300D02*
X11450Y-25600D01*
X11450Y-25600D02*
X11611Y-25761D01*
X11611Y-25761D02*
X12937Y-25761D01*
X11075Y-24625D02*
X11450Y-25000D01*
X11450Y-25000D02*
X11450Y-25300D01*
X10500Y-24625D02*
X11075Y-24625D01*
X10500Y-23000D02*
X10500Y-24625D01*
X10825Y-32625D02*
X11050Y-32400D01*
X11050Y-32400D02*
X11050Y-32250D01*
X11200Y-30100D02*
X11175Y-30125D01*
X11175Y-30125D02*
X10500Y-30125D01*
X10500Y-32625D02*
X10825Y-32625D01*
X10950Y-26500D02*
X10500Y-26950D01*
X10500Y-26950D02*
X10500Y-27125D01*
X11500Y-25300D02*
X11450Y-25300D01*
X11450Y-25300D02*
X11500Y-25300D01*
X12361Y-31261D02*
X11200Y-30100D01*
X12937Y-31261D02*
X12361Y-31261D01*
X22575Y-24625D02*
X23711Y-25761D01*
X23711Y-25761D02*
X24437Y-25761D01*
X22000Y-24625D02*
X22575Y-24625D01*
X22550Y-24600D02*
X22550Y-24625D01*
X22550Y-24625D02*
X22575Y-24625D01*
X22375Y-27125D02*
X22700Y-26800D01*
X22000Y-27125D02*
X22375Y-27125D01*
X22525Y-32625D02*
X22000Y-32625D01*
X22750Y-32400D02*
X22525Y-32625D01*
X23561Y-31261D02*
X24437Y-31261D01*
X22425Y-30125D02*
X23561Y-31261D01*
X22400Y-30125D02*
X22425Y-30125D01*
X22000Y-30125D02*
X22400Y-30125D01*
X21550Y-28950D02*
X11200Y-28950D01*
X24200Y-28950D02*
X21550Y-28950D01*
X23025Y-30125D02*
X23150Y-30250D01*
X22400Y-30125D02*
X23025Y-30125D01*
X22400Y-14125D02*
X23025Y-14125D01*
X23025Y-14125D02*
X23150Y-14250D01*
X24200Y-12950D02*
X21550Y-12950D01*
X21550Y-12950D02*
X11200Y-12950D01*
X22000Y-14125D02*
X22400Y-14125D01*
X22400Y-14125D02*
X22425Y-14125D01*
X22425Y-14125D02*
X23561Y-15261D01*
X23561Y-15261D02*
X24437Y-15261D01*
X22750Y-16400D02*
X22525Y-16625D01*
X22525Y-16625D02*
X22000Y-16625D01*
X22000Y-11125D02*
X22375Y-11125D01*
X22375Y-11125D02*
X22700Y-10800D01*
X22550Y-8625D02*
X22575Y-8625D01*
X22550Y-8600D02*
X22550Y-8625D01*
X22000Y-8625D02*
X22575Y-8625D01*
X23711Y-9761D02*
X24437Y-9761D01*
X22575Y-8625D02*
X23711Y-9761D01*
X12937Y-15261D02*
X12361Y-15261D01*
X12361Y-15261D02*
X11200Y-14100D01*
X11450Y-9300D02*
X11500Y-9300D01*
X11500Y-9300D02*
X11450Y-9300D01*
X10500Y-10950D02*
X10500Y-11125D01*
X10950Y-10500D02*
X10500Y-10950D01*
X10500Y-16625D02*
X10825Y-16625D01*
X11175Y-14125D02*
X10500Y-14125D01*
X11200Y-14100D02*
X11175Y-14125D01*
X11050Y-16400D02*
X11050Y-16250D01*
X10825Y-16625D02*
X11050Y-16400D01*
X10500Y-7000D02*
X10500Y-8625D01*
X10500Y-8625D02*
X11075Y-8625D01*
X11450Y-9000D02*
X11450Y-9300D01*
X11075Y-8625D02*
X11450Y-9000D01*
X11611Y-9761D02*
X12937Y-9761D01*
X11450Y-9600D02*
X11611Y-9761D01*
X11450Y-9300D02*
X11450Y-9600D01*
X9500Y-23500D02*
X8800Y-24200D01*
X8750Y-25250D02*
X8875Y-25375D01*
X8875Y-25375D02*
X9500Y-25375D01*
X9500Y-23000D02*
X9500Y-23500D01*
X8750Y-28050D02*
X9000Y-28300D01*
X9000Y-28300D02*
X9300Y-28300D01*
X11861Y-27238D02*
X11650Y-27450D01*
X11650Y-27450D02*
X11650Y-28050D01*
X11650Y-28050D02*
X11400Y-28300D01*
X11400Y-28300D02*
X9300Y-28300D01*
X12937Y-27238D02*
X11861Y-27238D01*
X9025Y-30875D02*
X8800Y-31100D01*
X8750Y-33550D02*
X9050Y-33850D01*
X9050Y-33850D02*
X9350Y-33850D01*
X9350Y-33850D02*
X9500Y-33700D01*
X9500Y-33700D02*
X9500Y-33375D01*
X9500Y-30875D02*
X9025Y-30875D01*
X8925Y-27875D02*
X8750Y-28050D01*
X9500Y-27875D02*
X8925Y-27875D01*
X12161Y-32738D02*
X11850Y-33050D01*
X11850Y-33050D02*
X11850Y-33400D01*
X11850Y-33400D02*
X11400Y-33850D01*
X11400Y-33850D02*
X9350Y-33850D01*
X12937Y-32738D02*
X12161Y-32738D01*
X23811Y-27238D02*
X22700Y-28350D01*
X22700Y-28350D02*
X21400Y-28350D01*
X21000Y-28050D02*
X21000Y-27875D01*
X21400Y-28350D02*
X21300Y-28350D01*
X21300Y-28350D02*
X21000Y-28050D01*
X24437Y-27238D02*
X23811Y-27238D01*
X20400Y-27600D02*
X20675Y-27875D01*
X20675Y-27875D02*
X21000Y-27875D01*
X20725Y-25375D02*
X20450Y-25650D01*
X21000Y-25375D02*
X20725Y-25375D01*
X20400Y-30650D02*
X20625Y-30875D01*
X20625Y-30875D02*
X21000Y-30875D01*
X20400Y-33150D02*
X20625Y-33375D01*
X20625Y-33375D02*
X21000Y-33375D01*
X21000Y-33850D02*
X21100Y-33950D01*
X22000Y-34000D02*
X22050Y-33950D01*
X22050Y-33950D02*
X22750Y-33950D01*
X22750Y-33950D02*
X23961Y-32738D01*
X23961Y-32738D02*
X24437Y-32738D01*
X21000Y-33375D02*
X21000Y-33850D01*
X14088Y-27238D02*
X14750Y-27900D01*
X14750Y-27900D02*
X16650Y-27900D01*
X16650Y-27900D02*
X17000Y-28250D01*
X17000Y-28250D02*
X20625Y-28250D01*
X20625Y-28250D02*
X21000Y-27875D01*
X12937Y-27238D02*
X14088Y-27238D01*
X12937Y-11238D02*
X14088Y-11238D01*
X20625Y-12250D02*
X21000Y-11875D01*
X17000Y-12250D02*
X20625Y-12250D01*
X16650Y-11900D02*
X17000Y-12250D01*
X14750Y-11900D02*
X16650Y-11900D01*
X14088Y-11238D02*
X14750Y-11900D01*
X21000Y-17375D02*
X21000Y-17850D01*
X23961Y-16738D02*
X24437Y-16738D01*
X22750Y-17950D02*
X23961Y-16738D01*
X22050Y-17950D02*
X22750Y-17950D01*
X22000Y-18000D02*
X22050Y-17950D01*
X21000Y-17850D02*
X21100Y-17950D01*
X20625Y-17375D02*
X21000Y-17375D01*
X20400Y-17150D02*
X20625Y-17375D01*
X20625Y-14875D02*
X21000Y-14875D01*
X20400Y-14650D02*
X20625Y-14875D01*
X21000Y-9375D02*
X20725Y-9375D01*
X20725Y-9375D02*
X20450Y-9650D01*
X20675Y-11875D02*
X21000Y-11875D01*
X20400Y-11600D02*
X20675Y-11875D01*
X24437Y-11238D02*
X23811Y-11238D01*
X21300Y-12350D02*
X21000Y-12050D01*
X21400Y-12350D02*
X21300Y-12350D01*
X21000Y-12050D02*
X21000Y-11875D01*
X22700Y-12350D02*
X21400Y-12350D01*
X23811Y-11238D02*
X22700Y-12350D01*
X12937Y-16738D02*
X12161Y-16738D01*
X11400Y-17850D02*
X9350Y-17850D01*
X11850Y-17400D02*
X11400Y-17850D01*
X11850Y-17050D02*
X11850Y-17400D01*
X12161Y-16738D02*
X11850Y-17050D01*
X9500Y-11875D02*
X8925Y-11875D01*
X8925Y-11875D02*
X8750Y-12050D01*
X9500Y-14875D02*
X9025Y-14875D01*
X9500Y-17700D02*
X9500Y-17375D01*
X9350Y-17850D02*
X9500Y-17700D01*
X9050Y-17850D02*
X9350Y-17850D01*
X8750Y-17550D02*
X9050Y-17850D01*
X9025Y-14875D02*
X8800Y-15100D01*
X12937Y-11238D02*
X11861Y-11238D01*
X11400Y-12300D02*
X9300Y-12300D01*
X11650Y-12050D02*
X11400Y-12300D01*
X11650Y-11450D02*
X11650Y-12050D01*
X11861Y-11238D02*
X11650Y-11450D01*
X9000Y-12300D02*
X9300Y-12300D01*
X8750Y-12050D02*
X9000Y-12300D01*
X9500Y-7000D02*
X9500Y-7500D01*
X8875Y-9375D02*
X9500Y-9375D01*
X8750Y-9250D02*
X8875Y-9375D01*
X9500Y-7500D02*
X8800Y-8200D01*
X7900Y-26500D02*
X7950Y-26500D01*
X8375Y-27125D02*
X8975Y-27125D01*
X8975Y-27125D02*
X9500Y-27125D01*
X8250Y-27000D02*
X8375Y-27125D01*
X8250Y-26800D02*
X8250Y-27000D01*
X7950Y-26500D02*
X8250Y-26800D01*
X7000Y-26500D02*
X7900Y-26500D01*
X17500Y-27125D02*
X17425Y-27125D01*
X17425Y-27125D02*
X17050Y-26750D01*
X9500Y-26300D02*
X9500Y-27125D01*
X9500Y-10300D02*
X9500Y-11125D01*
X17425Y-11125D02*
X17050Y-10750D01*
X17500Y-11125D02*
X17425Y-11125D01*
X7000Y-10500D02*
X7900Y-10500D01*
X7950Y-10500D02*
X8250Y-10800D01*
X8250Y-10800D02*
X8250Y-11000D01*
X8250Y-11000D02*
X8375Y-11125D01*
X8975Y-11125D02*
X9500Y-11125D01*
X8375Y-11125D02*
X8975Y-11125D01*
X7900Y-10500D02*
X7950Y-10500D01*
X7650Y-32000D02*
X8275Y-32625D01*
X9100Y-32625D02*
X9500Y-32625D01*
X8275Y-32625D02*
X9100Y-32625D01*
X7000Y-32000D02*
X7650Y-32000D01*
X17175Y-32625D02*
X16900Y-32350D01*
X16150Y-33550D02*
X16050Y-33650D01*
X16050Y-33650D02*
X12200Y-33650D01*
X9450Y-32050D02*
X9100Y-32400D01*
X9100Y-32400D02*
X9100Y-32625D01*
X17500Y-32625D02*
X17175Y-32625D01*
X17500Y-16625D02*
X17175Y-16625D01*
X9100Y-16400D02*
X9100Y-16625D01*
X9450Y-16050D02*
X9100Y-16400D01*
X16050Y-17650D02*
X12200Y-17650D01*
X16150Y-17550D02*
X16050Y-17650D01*
X17175Y-16625D02*
X16900Y-16350D01*
X7000Y-16000D02*
X7650Y-16000D01*
X8275Y-16625D02*
X9100Y-16625D01*
X9100Y-16625D02*
X9500Y-16625D01*
X7650Y-16000D02*
X8275Y-16625D01*
X21450Y-23550D02*
X21400Y-23600D01*
X20850Y-26450D02*
X21000Y-26600D01*
X21000Y-26600D02*
X21000Y-27125D01*
X21450Y-23050D02*
X21450Y-23550D01*
X29400Y-27300D02*
X29225Y-27125D01*
X29400Y-28150D02*
X29400Y-27300D01*
X29250Y-28300D02*
X29400Y-28150D01*
X28050Y-28300D02*
X29250Y-28300D01*
X29225Y-27125D02*
X29000Y-27125D01*
X23700Y-27850D02*
X27550Y-27850D01*
X27550Y-27850D02*
X28000Y-28300D01*
X28000Y-28300D02*
X28050Y-28300D01*
X28000Y-12300D02*
X28050Y-12300D01*
X27550Y-11850D02*
X28000Y-12300D01*
X23700Y-11850D02*
X27550Y-11850D01*
X29225Y-11125D02*
X29000Y-11125D01*
X28050Y-12300D02*
X29250Y-12300D01*
X29250Y-12300D02*
X29400Y-12150D01*
X29400Y-12150D02*
X29400Y-11300D01*
X29400Y-11300D02*
X29225Y-11125D01*
X21450Y-7050D02*
X21450Y-7550D01*
X21000Y-10600D02*
X21000Y-11125D01*
X20850Y-10450D02*
X21000Y-10600D01*
X21450Y-7550D02*
X21400Y-7600D01*
X20175Y-32625D02*
X20050Y-32750D01*
X20050Y-32750D02*
X20050Y-33500D01*
X20050Y-33500D02*
X20400Y-33850D01*
X20400Y-33850D02*
X20400Y-34900D01*
X20400Y-34900D02*
X20500Y-35000D01*
X21000Y-32625D02*
X20175Y-32625D01*
X29275Y-32625D02*
X29350Y-32700D01*
X29350Y-32700D02*
X29350Y-34800D01*
X29350Y-34800D02*
X28500Y-35650D01*
X28500Y-35650D02*
X20650Y-35650D01*
X20650Y-35650D02*
X20500Y-35500D01*
X20500Y-35500D02*
X20500Y-35000D01*
X29000Y-32625D02*
X29275Y-32625D01*
X29000Y-16625D02*
X29275Y-16625D01*
X20500Y-19500D02*
X20500Y-19000D01*
X20650Y-19650D02*
X20500Y-19500D01*
X28500Y-19650D02*
X20650Y-19650D01*
X29350Y-18800D02*
X28500Y-19650D01*
X29350Y-16700D02*
X29350Y-18800D01*
X29275Y-16625D02*
X29350Y-16700D01*
X21000Y-16625D02*
X20175Y-16625D01*
X20400Y-18900D02*
X20500Y-19000D01*
X20400Y-17850D02*
X20400Y-18900D01*
X20050Y-17500D02*
X20400Y-17850D01*
X20050Y-16750D02*
X20050Y-17500D01*
X20175Y-16625D02*
X20050Y-16750D01*
X28750Y-33000D02*
X28400Y-32650D01*
X28400Y-32650D02*
X28400Y-32450D01*
X28400Y-32450D02*
X28196Y-32246D01*
X28196Y-32246D02*
X26562Y-32246D01*
X29000Y-33000D02*
X28750Y-33000D01*
X29000Y-17000D02*
X28750Y-17000D01*
X28196Y-16246D02*
X26562Y-16246D01*
X28400Y-16450D02*
X28196Y-16246D01*
X28400Y-16650D02*
X28400Y-16450D01*
X28750Y-17000D02*
X28400Y-16650D01*
X27696Y-26746D02*
X28450Y-27500D01*
X28450Y-27500D02*
X29000Y-27500D01*
X26562Y-26746D02*
X27696Y-26746D01*
X26562Y-10746D02*
X27696Y-10746D01*
X28450Y-11500D02*
X29000Y-11500D01*
X27696Y-10746D02*
X28450Y-11500D01*
X29446Y-26253D02*
X30000Y-25700D01*
X30000Y-25700D02*
X30000Y-25375D01*
X26562Y-26253D02*
X29446Y-26253D01*
X26562Y-10253D02*
X29446Y-10253D01*
X30000Y-9700D02*
X30000Y-9375D01*
X29446Y-10253D02*
X30000Y-9700D01*
X22550Y-25000D02*
X23800Y-26250D01*
X23800Y-26250D02*
X24433Y-26250D01*
X24433Y-26250D02*
X24437Y-26253D01*
X21000Y-25000D02*
X22550Y-25000D01*
X21000Y-9000D02*
X22550Y-9000D01*
X24433Y-10250D02*
X24437Y-10253D01*
X23800Y-10250D02*
X24433Y-10250D01*
X22550Y-9000D02*
X23800Y-10250D01*
X22725Y-27875D02*
X23853Y-26746D01*
X23853Y-26746D02*
X24437Y-26746D01*
X22000Y-27875D02*
X22725Y-27875D01*
X22000Y-11875D02*
X22725Y-11875D01*
X23853Y-10746D02*
X24437Y-10746D01*
X22725Y-11875D02*
X23853Y-10746D01*
X16800Y-33000D02*
X16046Y-32246D01*
X16046Y-32246D02*
X15062Y-32246D01*
X17500Y-33000D02*
X16800Y-33000D01*
X17500Y-17000D02*
X16800Y-17000D01*
X16046Y-16246D02*
X15062Y-16246D01*
X16800Y-17000D02*
X16046Y-16246D01*
X11503Y-26746D02*
X11250Y-27000D01*
X11250Y-27000D02*
X11250Y-27650D01*
X11250Y-27650D02*
X11025Y-27875D01*
X11025Y-27875D02*
X10500Y-27875D01*
X12937Y-26746D02*
X11503Y-26746D01*
X12937Y-10746D02*
X11503Y-10746D01*
X11025Y-11875D02*
X10500Y-11875D01*
X11250Y-11650D02*
X11025Y-11875D01*
X11250Y-11000D02*
X11250Y-11650D01*
X11503Y-10746D02*
X11250Y-11000D01*
X18246Y-26253D02*
X18500Y-26000D01*
X18500Y-26000D02*
X18500Y-25375D01*
X15062Y-26253D02*
X18246Y-26253D01*
X15062Y-10253D02*
X18246Y-10253D01*
X18500Y-10000D02*
X18500Y-9375D01*
X18246Y-10253D02*
X18500Y-10000D01*
X10850Y-25000D02*
X11100Y-25250D01*
X11100Y-25250D02*
X11100Y-25950D01*
X11100Y-25950D02*
X11403Y-26253D01*
X11403Y-26253D02*
X12937Y-26253D01*
X9500Y-25000D02*
X10850Y-25000D01*
X9500Y-9000D02*
X10850Y-9000D01*
X11403Y-10253D02*
X12937Y-10253D01*
X11100Y-9950D02*
X11403Y-10253D01*
X11100Y-9250D02*
X11100Y-9950D01*
X10850Y-9000D02*
X11100Y-9250D01*
X16296Y-26746D02*
X17050Y-27500D01*
X17050Y-27500D02*
X17500Y-27500D01*
X15062Y-26746D02*
X16296Y-26746D01*
X15062Y-10746D02*
X16296Y-10746D01*
X17050Y-11500D02*
X17500Y-11500D01*
X16296Y-10746D02*
X17050Y-11500D01*
X11753Y-32246D02*
X11500Y-32500D01*
X11500Y-32500D02*
X11500Y-33150D01*
X11500Y-33150D02*
X11275Y-33375D01*
X11275Y-33375D02*
X10500Y-33375D01*
X12937Y-32246D02*
X11753Y-32246D01*
X12937Y-16246D02*
X11753Y-16246D01*
X11275Y-17375D02*
X10500Y-17375D01*
X11500Y-17150D02*
X11275Y-17375D01*
X11500Y-16500D02*
X11500Y-17150D01*
X11753Y-16246D02*
X11500Y-16500D01*
X18046Y-31753D02*
X18500Y-31300D01*
X18500Y-31300D02*
X18500Y-30875D01*
X15062Y-31753D02*
X18046Y-31753D01*
X15062Y-15753D02*
X18046Y-15753D01*
X18500Y-15300D02*
X18500Y-14875D01*
X18046Y-15753D02*
X18500Y-15300D01*
X11000Y-30500D02*
X11450Y-30950D01*
X11450Y-30950D02*
X11450Y-31450D01*
X11450Y-31450D02*
X11753Y-31753D01*
X11753Y-31753D02*
X12937Y-31753D01*
X9500Y-30500D02*
X11000Y-30500D01*
X9500Y-14500D02*
X11000Y-14500D01*
X11753Y-15753D02*
X12937Y-15753D01*
X11450Y-15450D02*
X11753Y-15753D01*
X11450Y-14950D02*
X11450Y-15450D01*
X11000Y-14500D02*
X11450Y-14950D01*
X29596Y-31753D02*
X30000Y-31350D01*
X30000Y-31350D02*
X30000Y-30875D01*
X26562Y-31753D02*
X29596Y-31753D01*
X26562Y-15753D02*
X29596Y-15753D01*
X30000Y-15350D02*
X30000Y-14875D01*
X29596Y-15753D02*
X30000Y-15350D01*
X22500Y-30500D02*
X23753Y-31753D01*
X23753Y-31753D02*
X24437Y-31753D01*
X21000Y-30500D02*
X22500Y-30500D01*
X21000Y-14500D02*
X22500Y-14500D01*
X23753Y-15753D02*
X24437Y-15753D01*
X22500Y-14500D02*
X23753Y-15753D01*
X22775Y-33375D02*
X23903Y-32246D01*
X23903Y-32246D02*
X24437Y-32246D01*
X22000Y-33375D02*
X22775Y-33375D01*
X22000Y-17375D02*
X22775Y-17375D01*
X23903Y-16246D02*
X24437Y-16246D01*
X22775Y-17375D02*
X23903Y-16246D01*
X18400Y-23950D02*
X18500Y-24050D01*
X18500Y-24050D02*
X18500Y-24625D01*
X16038Y-25761D02*
X16350Y-25450D01*
X16350Y-24050D02*
X16600Y-23800D01*
X16600Y-23800D02*
X18250Y-23800D01*
X18250Y-23800D02*
X18400Y-23950D01*
X15062Y-25761D02*
X16038Y-25761D01*
X17888Y-31261D02*
X18150Y-31000D01*
X18150Y-31000D02*
X18150Y-30475D01*
X18150Y-30475D02*
X18500Y-30125D01*
X15062Y-31261D02*
X17888Y-31261D01*
X19200Y-29800D02*
X18875Y-30125D01*
X18875Y-30125D02*
X18500Y-30125D01*
X18825Y-32625D02*
X18500Y-32625D01*
X19200Y-32250D02*
X18825Y-32625D01*
X30825Y-32375D02*
X31700Y-31500D01*
X30575Y-32625D02*
X30825Y-32375D01*
X31700Y-31500D02*
X32500Y-31500D01*
X30000Y-32625D02*
X30575Y-32625D01*
X30900Y-30450D02*
X30575Y-30125D01*
X30000Y-30125D02*
X30575Y-30125D01*
X30900Y-27400D02*
X30625Y-27125D01*
X30625Y-27125D02*
X30000Y-27125D01*
X30750Y-24900D02*
X30475Y-24625D01*
X30475Y-24625D02*
X30000Y-24625D01*
X28200Y-24500D02*
X27550Y-25150D01*
X27550Y-25150D02*
X27550Y-25600D01*
X27550Y-25600D02*
X27388Y-25761D01*
X27388Y-25761D02*
X26562Y-25761D01*
X26562Y-25462D02*
X26050Y-24950D01*
X25700Y-23550D02*
X25500Y-23350D01*
X25500Y-23350D02*
X23650Y-23350D01*
X23650Y-23350D02*
X23050Y-23950D01*
X23050Y-23950D02*
X18400Y-23950D01*
X26562Y-25761D02*
X26562Y-25462D01*
X30000Y-29900D02*
X29750Y-29650D01*
X29750Y-29650D02*
X27350Y-29650D01*
X27350Y-29650D02*
X26562Y-30437D01*
X26562Y-30437D02*
X26562Y-31261D01*
X30000Y-30125D02*
X30000Y-29900D01*
X19125Y-27125D02*
X19350Y-26900D01*
X19150Y-24950D02*
X18825Y-24625D01*
X18825Y-24625D02*
X18500Y-24625D01*
X18500Y-27125D02*
X19125Y-27125D01*
X18500Y-11125D02*
X19125Y-11125D01*
X18825Y-8625D02*
X18500Y-8625D01*
X19150Y-8950D02*
X18825Y-8625D01*
X19125Y-11125D02*
X19350Y-10900D01*
X30000Y-14125D02*
X30000Y-13900D01*
X26562Y-14437D02*
X26562Y-15261D01*
X27350Y-13650D02*
X26562Y-14437D01*
X29750Y-13650D02*
X27350Y-13650D01*
X30000Y-13900D02*
X29750Y-13650D01*
X26562Y-9761D02*
X26562Y-9462D01*
X23050Y-7950D02*
X18400Y-7950D01*
X23650Y-7350D02*
X23050Y-7950D01*
X25500Y-7350D02*
X23650Y-7350D01*
X25700Y-7550D02*
X25500Y-7350D01*
X26562Y-9462D02*
X26050Y-8950D01*
X27388Y-9761D02*
X26562Y-9761D01*
X27550Y-9600D02*
X27388Y-9761D01*
X27550Y-9150D02*
X27550Y-9600D01*
X28200Y-8500D02*
X27550Y-9150D01*
X30475Y-8625D02*
X30000Y-8625D01*
X30750Y-8900D02*
X30475Y-8625D01*
X30625Y-11125D02*
X30000Y-11125D01*
X30900Y-11400D02*
X30625Y-11125D01*
X30000Y-14125D02*
X30575Y-14125D01*
X30900Y-14450D02*
X30575Y-14125D01*
X30000Y-16625D02*
X30575Y-16625D01*
X31700Y-15500D02*
X32500Y-15500D01*
X30575Y-16625D02*
X30825Y-16375D01*
X30825Y-16375D02*
X31700Y-15500D01*
X19200Y-16250D02*
X18825Y-16625D01*
X18825Y-16625D02*
X18500Y-16625D01*
X18875Y-14125D02*
X18500Y-14125D01*
X19200Y-13800D02*
X18875Y-14125D01*
X15062Y-15261D02*
X17888Y-15261D01*
X18150Y-14475D02*
X18500Y-14125D01*
X18150Y-15000D02*
X18150Y-14475D01*
X17888Y-15261D02*
X18150Y-15000D01*
X15062Y-9761D02*
X16038Y-9761D01*
X18250Y-7800D02*
X18400Y-7950D01*
X16600Y-7800D02*
X18250Y-7800D01*
X16350Y-8050D02*
X16600Y-7800D01*
X16038Y-9761D02*
X16350Y-9450D01*
X18500Y-8050D02*
X18500Y-8625D01*
X18400Y-7950D02*
X18500Y-8050D01*
X16875Y-27725D02*
X16388Y-27238D01*
X16200Y-27238D02*
X15062Y-27238D01*
X16388Y-27238D02*
X16200Y-27238D01*
X17025Y-27875D02*
X16875Y-27725D01*
X17500Y-27875D02*
X17025Y-27875D01*
X15938Y-32738D02*
X16575Y-33375D01*
X16575Y-33375D02*
X17500Y-33375D01*
X15062Y-32738D02*
X15938Y-32738D01*
X16750Y-30900D02*
X16775Y-30875D01*
X16775Y-30875D02*
X17500Y-30875D01*
X17500Y-33700D02*
X17300Y-33900D01*
X17500Y-33375D02*
X17500Y-33700D01*
X28300Y-27800D02*
X28375Y-27875D01*
X27738Y-27238D02*
X28300Y-27800D01*
X28375Y-27875D02*
X29000Y-27875D01*
X26562Y-27238D02*
X27738Y-27238D01*
X28375Y-25375D02*
X28150Y-25600D01*
X28350Y-27850D02*
X28325Y-27825D01*
X28325Y-27825D02*
X28300Y-27850D01*
X28300Y-27850D02*
X28300Y-27800D01*
X29000Y-25375D02*
X28375Y-25375D01*
X28100Y-30600D02*
X28375Y-30875D01*
X28375Y-30875D02*
X29000Y-30875D01*
X28150Y-33000D02*
X28525Y-33375D01*
X28525Y-33375D02*
X29000Y-33375D01*
X27888Y-32738D02*
X28150Y-33000D01*
X26562Y-32738D02*
X27888Y-32738D01*
X28650Y-26500D02*
X28350Y-26800D01*
X32500Y-26500D02*
X28650Y-26500D01*
X16200Y-27250D02*
X16200Y-27238D01*
X16200Y-27238D02*
X16200Y-27250D01*
X16200Y-27250D02*
X16200Y-27238D01*
X17075Y-25375D02*
X17500Y-25375D01*
X17000Y-25450D02*
X17075Y-25375D01*
X17000Y-9450D02*
X17075Y-9375D01*
X17075Y-9375D02*
X17500Y-9375D01*
X16200Y-11250D02*
X16200Y-11238D01*
X16200Y-11238D02*
X16200Y-11250D01*
X16200Y-11250D02*
X16200Y-11238D01*
X32500Y-10500D02*
X28650Y-10500D01*
X28650Y-10500D02*
X28350Y-10800D01*
X26562Y-16738D02*
X27888Y-16738D01*
X27888Y-16738D02*
X28150Y-17000D01*
X28525Y-17375D02*
X29000Y-17375D01*
X28150Y-17000D02*
X28525Y-17375D01*
X28375Y-14875D02*
X29000Y-14875D01*
X28100Y-14600D02*
X28375Y-14875D01*
X29000Y-9375D02*
X28375Y-9375D01*
X28300Y-11850D02*
X28300Y-11800D01*
X28325Y-11825D02*
X28300Y-11850D01*
X28350Y-11850D02*
X28325Y-11825D01*
X28375Y-9375D02*
X28150Y-9600D01*
X26562Y-11238D02*
X27738Y-11238D01*
X28375Y-11875D02*
X29000Y-11875D01*
X27738Y-11238D02*
X28300Y-11800D01*
X28300Y-11800D02*
X28375Y-11875D01*
X17500Y-17375D02*
X17500Y-17700D01*
X17500Y-17700D02*
X17300Y-17900D01*
X16775Y-14875D02*
X17500Y-14875D01*
X16750Y-14900D02*
X16775Y-14875D01*
X15062Y-16738D02*
X15938Y-16738D01*
X16575Y-17375D02*
X17500Y-17375D01*
X15938Y-16738D02*
X16575Y-17375D01*
X17500Y-11875D02*
X17025Y-11875D01*
X17025Y-11875D02*
X16875Y-11725D01*
X16388Y-11238D02*
X16200Y-11238D01*
X16200Y-11238D02*
X15062Y-11238D01*
X16875Y-11725D02*
X16388Y-11238D01*
M02*
