G04 (created by PCBNEW (22-Jun-2014 BZR 4027)-stable) date Thu 13 Oct 2016 08:17:28 AM EDT*
%MOIN*%
G04 Gerber Fmt 3.4, Leading zero omitted, Abs format*
%FSLAX34Y34*%
G01*
G70*
G90*
G04 APERTURE LIST*
%ADD10C,0.00590551*%
%ADD11C,0.011811*%
%ADD12C,0.00787402*%
%ADD13C,0.00393701*%
%ADD14C,0.012*%
%ADD15C,0.006*%
%ADD16C,0.005*%
%ADD17C,0.008*%
G04 APERTURE END LIST*
G54D10*
G54D11*
X7978Y-35239D02*
X7781Y-34957D01*
X7640Y-35239D02*
X7640Y-34648D01*
X7865Y-34648D01*
X7921Y-34676D01*
X7949Y-34704D01*
X7978Y-34760D01*
X7978Y-34845D01*
X7949Y-34901D01*
X7921Y-34929D01*
X7865Y-34957D01*
X7640Y-34957D01*
X8315Y-35239D02*
X8259Y-35210D01*
X8231Y-35182D01*
X8203Y-35126D01*
X8203Y-34957D01*
X8231Y-34901D01*
X8259Y-34873D01*
X8315Y-34845D01*
X8399Y-34845D01*
X8456Y-34873D01*
X8484Y-34901D01*
X8512Y-34957D01*
X8512Y-35126D01*
X8484Y-35182D01*
X8456Y-35210D01*
X8399Y-35239D01*
X8315Y-35239D01*
X9018Y-34845D02*
X9018Y-35239D01*
X8765Y-34845D02*
X8765Y-35154D01*
X8793Y-35210D01*
X8849Y-35239D01*
X8934Y-35239D01*
X8990Y-35210D01*
X9018Y-35182D01*
X9215Y-34845D02*
X9440Y-34845D01*
X9299Y-34648D02*
X9299Y-35154D01*
X9327Y-35210D01*
X9384Y-35239D01*
X9440Y-35239D01*
X9637Y-35239D02*
X9637Y-34845D01*
X9637Y-34648D02*
X9609Y-34676D01*
X9637Y-34704D01*
X9665Y-34676D01*
X9637Y-34648D01*
X9637Y-34704D01*
X9918Y-34845D02*
X9918Y-35239D01*
X9918Y-34901D02*
X9946Y-34873D01*
X10002Y-34845D01*
X10087Y-34845D01*
X10143Y-34873D01*
X10171Y-34929D01*
X10171Y-35239D01*
X10705Y-34845D02*
X10705Y-35323D01*
X10677Y-35379D01*
X10649Y-35407D01*
X10593Y-35435D01*
X10508Y-35435D01*
X10452Y-35407D01*
X10705Y-35210D02*
X10649Y-35239D01*
X10537Y-35239D01*
X10480Y-35210D01*
X10452Y-35182D01*
X10424Y-35126D01*
X10424Y-34957D01*
X10452Y-34901D01*
X10480Y-34873D01*
X10537Y-34845D01*
X10649Y-34845D01*
X10705Y-34873D01*
X11521Y-35239D02*
X11465Y-35210D01*
X11437Y-35154D01*
X11437Y-34648D01*
X11746Y-35239D02*
X11746Y-34845D01*
X11746Y-34648D02*
X11718Y-34676D01*
X11746Y-34704D01*
X11774Y-34676D01*
X11746Y-34648D01*
X11746Y-34704D01*
X12027Y-35239D02*
X12027Y-34648D01*
X12083Y-35014D02*
X12252Y-35239D01*
X12252Y-34845D02*
X12027Y-35070D01*
X12730Y-35210D02*
X12674Y-35239D01*
X12561Y-35239D01*
X12505Y-35210D01*
X12477Y-35154D01*
X12477Y-34929D01*
X12505Y-34873D01*
X12561Y-34845D01*
X12674Y-34845D01*
X12730Y-34873D01*
X12758Y-34929D01*
X12758Y-34985D01*
X12477Y-35042D01*
X13714Y-35239D02*
X13714Y-34929D01*
X13686Y-34873D01*
X13630Y-34845D01*
X13517Y-34845D01*
X13461Y-34873D01*
X13714Y-35210D02*
X13658Y-35239D01*
X13517Y-35239D01*
X13461Y-35210D01*
X13433Y-35154D01*
X13433Y-35098D01*
X13461Y-35042D01*
X13517Y-35014D01*
X13658Y-35014D01*
X13714Y-34985D01*
X14446Y-35239D02*
X14446Y-34845D01*
X14446Y-34901D02*
X14474Y-34873D01*
X14530Y-34845D01*
X14614Y-34845D01*
X14670Y-34873D01*
X14699Y-34929D01*
X14699Y-35239D01*
X14699Y-34929D02*
X14727Y-34873D01*
X14783Y-34845D01*
X14867Y-34845D01*
X14924Y-34873D01*
X14952Y-34929D01*
X14952Y-35239D01*
X15317Y-35239D02*
X15261Y-35210D01*
X15233Y-35182D01*
X15205Y-35126D01*
X15205Y-34957D01*
X15233Y-34901D01*
X15261Y-34873D01*
X15317Y-34845D01*
X15402Y-34845D01*
X15458Y-34873D01*
X15486Y-34901D01*
X15514Y-34957D01*
X15514Y-35126D01*
X15486Y-35182D01*
X15458Y-35210D01*
X15402Y-35239D01*
X15317Y-35239D01*
X15767Y-34845D02*
X15767Y-35239D01*
X15767Y-34901D02*
X15795Y-34873D01*
X15852Y-34845D01*
X15936Y-34845D01*
X15992Y-34873D01*
X16020Y-34929D01*
X16020Y-35239D01*
X16302Y-35239D02*
X16302Y-34648D01*
X16358Y-35014D02*
X16526Y-35239D01*
X16526Y-34845D02*
X16302Y-35070D01*
X17005Y-35210D02*
X16948Y-35239D01*
X16836Y-35239D01*
X16780Y-35210D01*
X16751Y-35154D01*
X16751Y-34929D01*
X16780Y-34873D01*
X16836Y-34845D01*
X16948Y-34845D01*
X17005Y-34873D01*
X17033Y-34929D01*
X17033Y-34985D01*
X16751Y-35042D01*
X17230Y-34845D02*
X17370Y-35239D01*
X17511Y-34845D02*
X17370Y-35239D01*
X17314Y-35379D01*
X17286Y-35407D01*
X17230Y-35435D01*
X17736Y-35182D02*
X17764Y-35210D01*
X17736Y-35239D01*
X17708Y-35210D01*
X17736Y-35182D01*
X17736Y-35239D01*
X17736Y-35014D02*
X17708Y-34676D01*
X17736Y-34648D01*
X17764Y-34676D01*
X17736Y-35014D01*
X17736Y-34648D01*
X12949Y-22676D02*
X12893Y-22648D01*
X12809Y-22648D01*
X12724Y-22676D01*
X12668Y-22732D01*
X12640Y-22789D01*
X12612Y-22901D01*
X12612Y-22985D01*
X12640Y-23098D01*
X12668Y-23154D01*
X12724Y-23210D01*
X12809Y-23239D01*
X12865Y-23239D01*
X12949Y-23210D01*
X12978Y-23182D01*
X12978Y-22985D01*
X12865Y-22985D01*
X13484Y-23239D02*
X13484Y-22929D01*
X13456Y-22873D01*
X13399Y-22845D01*
X13287Y-22845D01*
X13231Y-22873D01*
X13484Y-23210D02*
X13428Y-23239D01*
X13287Y-23239D01*
X13231Y-23210D01*
X13203Y-23154D01*
X13203Y-23098D01*
X13231Y-23042D01*
X13287Y-23014D01*
X13428Y-23014D01*
X13484Y-22985D01*
X13849Y-23239D02*
X13793Y-23210D01*
X13765Y-23154D01*
X13765Y-22648D01*
X14018Y-22845D02*
X14159Y-23239D01*
X14299Y-22845D01*
X14777Y-23239D02*
X14777Y-22929D01*
X14749Y-22873D01*
X14693Y-22845D01*
X14580Y-22845D01*
X14524Y-22873D01*
X14777Y-23210D02*
X14721Y-23239D01*
X14580Y-23239D01*
X14524Y-23210D01*
X14496Y-23154D01*
X14496Y-23098D01*
X14524Y-23042D01*
X14580Y-23014D01*
X14721Y-23014D01*
X14777Y-22985D01*
X15059Y-22845D02*
X15059Y-23239D01*
X15059Y-22901D02*
X15087Y-22873D01*
X15143Y-22845D01*
X15227Y-22845D01*
X15284Y-22873D01*
X15312Y-22929D01*
X15312Y-23239D01*
X15846Y-22845D02*
X15846Y-23239D01*
X15593Y-22845D02*
X15593Y-23154D01*
X15621Y-23210D01*
X15677Y-23239D01*
X15762Y-23239D01*
X15818Y-23210D01*
X15846Y-23182D01*
X16099Y-23210D02*
X16155Y-23239D01*
X16268Y-23239D01*
X16324Y-23210D01*
X16352Y-23154D01*
X16352Y-23126D01*
X16324Y-23070D01*
X16268Y-23042D01*
X16183Y-23042D01*
X16127Y-23014D01*
X16099Y-22957D01*
X16099Y-22929D01*
X16127Y-22873D01*
X16183Y-22845D01*
X16268Y-22845D01*
X16324Y-22873D01*
X12640Y-24183D02*
X12640Y-23790D01*
X12640Y-23902D02*
X12668Y-23846D01*
X12696Y-23818D01*
X12753Y-23790D01*
X12809Y-23790D01*
X13231Y-24155D02*
X13174Y-24183D01*
X13062Y-24183D01*
X13006Y-24155D01*
X12978Y-24099D01*
X12978Y-23874D01*
X13006Y-23818D01*
X13062Y-23790D01*
X13174Y-23790D01*
X13231Y-23818D01*
X13259Y-23874D01*
X13259Y-23930D01*
X12978Y-23987D01*
X13456Y-23790D02*
X13596Y-24183D01*
X13737Y-23790D01*
X13962Y-24127D02*
X13990Y-24155D01*
X13962Y-24183D01*
X13934Y-24155D01*
X13962Y-24127D01*
X13962Y-24183D01*
X14356Y-23593D02*
X14412Y-23593D01*
X14468Y-23621D01*
X14496Y-23649D01*
X14524Y-23705D01*
X14552Y-23818D01*
X14552Y-23958D01*
X14524Y-24071D01*
X14496Y-24127D01*
X14468Y-24155D01*
X14412Y-24183D01*
X14356Y-24183D01*
X14299Y-24155D01*
X14271Y-24127D01*
X14243Y-24071D01*
X14215Y-23958D01*
X14215Y-23818D01*
X14243Y-23705D01*
X14271Y-23649D01*
X14299Y-23621D01*
X14356Y-23593D01*
X14918Y-23593D02*
X14974Y-23593D01*
X15030Y-23621D01*
X15059Y-23649D01*
X15087Y-23705D01*
X15115Y-23818D01*
X15115Y-23958D01*
X15087Y-24071D01*
X15059Y-24127D01*
X15030Y-24155D01*
X14974Y-24183D01*
X14918Y-24183D01*
X14862Y-24155D01*
X14834Y-24127D01*
X14805Y-24071D01*
X14777Y-23958D01*
X14777Y-23818D01*
X14805Y-23705D01*
X14834Y-23649D01*
X14862Y-23621D01*
X14918Y-23593D01*
X15677Y-24183D02*
X15340Y-24183D01*
X15508Y-24183D02*
X15508Y-23593D01*
X15452Y-23677D01*
X15396Y-23733D01*
X15340Y-23762D01*
G54D12*
X7968Y-25659D02*
X7837Y-25471D01*
X7743Y-25659D02*
X7743Y-25265D01*
X7893Y-25265D01*
X7931Y-25284D01*
X7949Y-25303D01*
X7968Y-25340D01*
X7968Y-25396D01*
X7949Y-25434D01*
X7931Y-25453D01*
X7893Y-25471D01*
X7743Y-25471D01*
X8212Y-25265D02*
X8249Y-25265D01*
X8287Y-25284D01*
X8306Y-25303D01*
X8324Y-25340D01*
X8343Y-25415D01*
X8343Y-25509D01*
X8324Y-25584D01*
X8306Y-25621D01*
X8287Y-25640D01*
X8249Y-25659D01*
X8212Y-25659D01*
X8174Y-25640D01*
X8156Y-25621D01*
X8137Y-25584D01*
X8118Y-25509D01*
X8118Y-25415D01*
X8137Y-25340D01*
X8156Y-25303D01*
X8174Y-25284D01*
X8212Y-25265D01*
X7706Y-26265D02*
X7799Y-26659D01*
X7874Y-26378D01*
X7949Y-26659D01*
X8043Y-26265D01*
X8268Y-26265D02*
X8306Y-26265D01*
X8343Y-26284D01*
X8362Y-26303D01*
X8381Y-26340D01*
X8399Y-26415D01*
X8399Y-26509D01*
X8381Y-26584D01*
X8362Y-26621D01*
X8343Y-26640D01*
X8306Y-26659D01*
X8268Y-26659D01*
X8231Y-26640D01*
X8212Y-26621D01*
X8193Y-26584D01*
X8174Y-26509D01*
X8174Y-26415D01*
X8193Y-26340D01*
X8212Y-26303D01*
X8231Y-26284D01*
X8268Y-26265D01*
X7743Y-27659D02*
X7743Y-27265D01*
X7893Y-27265D01*
X7931Y-27284D01*
X7949Y-27303D01*
X7968Y-27340D01*
X7968Y-27396D01*
X7949Y-27434D01*
X7931Y-27453D01*
X7893Y-27471D01*
X7743Y-27471D01*
X8212Y-27265D02*
X8249Y-27265D01*
X8287Y-27284D01*
X8306Y-27303D01*
X8324Y-27340D01*
X8343Y-27415D01*
X8343Y-27509D01*
X8324Y-27584D01*
X8306Y-27621D01*
X8287Y-27640D01*
X8249Y-27659D01*
X8212Y-27659D01*
X8174Y-27640D01*
X8156Y-27621D01*
X8137Y-27584D01*
X8118Y-27509D01*
X8118Y-27415D01*
X8137Y-27340D01*
X8156Y-27303D01*
X8174Y-27284D01*
X8212Y-27265D01*
X7934Y-31159D02*
X7803Y-30971D01*
X7709Y-31159D02*
X7709Y-30765D01*
X7859Y-30765D01*
X7896Y-30784D01*
X7915Y-30803D01*
X7934Y-30840D01*
X7934Y-30896D01*
X7915Y-30934D01*
X7896Y-30953D01*
X7859Y-30971D01*
X7709Y-30971D01*
X8309Y-31159D02*
X8084Y-31159D01*
X8196Y-31159D02*
X8196Y-30765D01*
X8159Y-30821D01*
X8121Y-30859D01*
X8084Y-30878D01*
X7693Y-31765D02*
X7787Y-32159D01*
X7862Y-31878D01*
X7937Y-32159D01*
X8031Y-31765D01*
X8387Y-32159D02*
X8162Y-32159D01*
X8274Y-32159D02*
X8274Y-31765D01*
X8237Y-31821D01*
X8199Y-31859D01*
X8162Y-31878D01*
X7759Y-33159D02*
X7759Y-32765D01*
X7909Y-32765D01*
X7946Y-32784D01*
X7965Y-32803D01*
X7984Y-32840D01*
X7984Y-32896D01*
X7965Y-32934D01*
X7946Y-32953D01*
X7909Y-32971D01*
X7759Y-32971D01*
X8359Y-33159D02*
X8134Y-33159D01*
X8246Y-33159D02*
X8246Y-32765D01*
X8209Y-32821D01*
X8171Y-32859D01*
X8134Y-32878D01*
X6293Y-22765D02*
X6425Y-23159D01*
X6556Y-22765D01*
X6668Y-23140D02*
X6725Y-23159D01*
X6818Y-23159D01*
X6856Y-23140D01*
X6875Y-23121D01*
X6893Y-23084D01*
X6893Y-23046D01*
X6875Y-23009D01*
X6856Y-22990D01*
X6818Y-22971D01*
X6743Y-22953D01*
X6706Y-22934D01*
X6687Y-22915D01*
X6668Y-22878D01*
X6668Y-22840D01*
X6687Y-22803D01*
X6706Y-22784D01*
X6743Y-22765D01*
X6837Y-22765D01*
X6893Y-22784D01*
X7043Y-23140D02*
X7100Y-23159D01*
X7193Y-23159D01*
X7231Y-23140D01*
X7250Y-23121D01*
X7268Y-23084D01*
X7268Y-23046D01*
X7250Y-23009D01*
X7231Y-22990D01*
X7193Y-22971D01*
X7118Y-22953D01*
X7081Y-22934D01*
X7062Y-22915D01*
X7043Y-22878D01*
X7043Y-22840D01*
X7062Y-22803D01*
X7081Y-22784D01*
X7118Y-22765D01*
X7212Y-22765D01*
X7268Y-22784D01*
X7531Y-23290D02*
X7531Y-22728D01*
X7756Y-22765D02*
X7887Y-23159D01*
X8018Y-22765D01*
X8149Y-23159D02*
X8149Y-22765D01*
X8243Y-22765D01*
X8299Y-22784D01*
X8337Y-22821D01*
X8356Y-22859D01*
X8374Y-22934D01*
X8374Y-22990D01*
X8356Y-23065D01*
X8337Y-23103D01*
X8299Y-23140D01*
X8243Y-23159D01*
X8149Y-23159D01*
X8543Y-23159D02*
X8543Y-22765D01*
X8637Y-22765D01*
X8693Y-22784D01*
X8731Y-22821D01*
X8749Y-22859D01*
X8768Y-22934D01*
X8768Y-22990D01*
X8749Y-23065D01*
X8731Y-23103D01*
X8693Y-23140D01*
X8637Y-23159D01*
X8543Y-23159D01*
X24262Y-23009D02*
X24131Y-22821D01*
X24037Y-23009D02*
X24037Y-22615D01*
X24187Y-22615D01*
X24225Y-22634D01*
X24243Y-22653D01*
X24262Y-22690D01*
X24262Y-22746D01*
X24243Y-22784D01*
X24225Y-22803D01*
X24187Y-22821D01*
X24037Y-22821D01*
X24412Y-22653D02*
X24431Y-22634D01*
X24468Y-22615D01*
X24562Y-22615D01*
X24600Y-22634D01*
X24618Y-22653D01*
X24637Y-22690D01*
X24637Y-22728D01*
X24618Y-22784D01*
X24393Y-23009D01*
X24637Y-23009D01*
X24900Y-23140D02*
X24900Y-22578D01*
X25143Y-22615D02*
X25237Y-23009D01*
X25312Y-22728D01*
X25387Y-23009D01*
X25481Y-22615D01*
X25612Y-22653D02*
X25631Y-22634D01*
X25668Y-22615D01*
X25762Y-22615D01*
X25799Y-22634D01*
X25818Y-22653D01*
X25837Y-22690D01*
X25837Y-22728D01*
X25818Y-22784D01*
X25593Y-23009D01*
X25837Y-23009D01*
X26099Y-23140D02*
X26099Y-22578D01*
X26381Y-23009D02*
X26381Y-22615D01*
X26531Y-22615D01*
X26568Y-22634D01*
X26587Y-22653D01*
X26606Y-22690D01*
X26606Y-22746D01*
X26587Y-22784D01*
X26568Y-22803D01*
X26531Y-22821D01*
X26381Y-22821D01*
X26756Y-22653D02*
X26774Y-22634D01*
X26812Y-22615D01*
X26906Y-22615D01*
X26943Y-22634D01*
X26962Y-22653D01*
X26981Y-22690D01*
X26981Y-22728D01*
X26962Y-22784D01*
X26737Y-23009D01*
X26981Y-23009D01*
G54D13*
X32346Y-23782D02*
X32412Y-23979D01*
X32478Y-23782D01*
X32534Y-23970D02*
X32562Y-23979D01*
X32609Y-23979D01*
X32628Y-23970D01*
X32637Y-23960D01*
X32646Y-23942D01*
X32646Y-23923D01*
X32637Y-23904D01*
X32628Y-23895D01*
X32609Y-23885D01*
X32571Y-23876D01*
X32553Y-23867D01*
X32543Y-23857D01*
X32534Y-23839D01*
X32534Y-23820D01*
X32543Y-23801D01*
X32553Y-23792D01*
X32571Y-23782D01*
X32618Y-23782D01*
X32646Y-23792D01*
X32721Y-23970D02*
X32749Y-23979D01*
X32796Y-23979D01*
X32815Y-23970D01*
X32824Y-23960D01*
X32834Y-23942D01*
X32834Y-23923D01*
X32824Y-23904D01*
X32815Y-23895D01*
X32796Y-23885D01*
X32759Y-23876D01*
X32740Y-23867D01*
X32731Y-23857D01*
X32721Y-23839D01*
X32721Y-23820D01*
X32731Y-23801D01*
X32740Y-23792D01*
X32759Y-23782D01*
X32806Y-23782D01*
X32834Y-23792D01*
X32328Y-24294D02*
X32328Y-24097D01*
X32459Y-24097D02*
X32496Y-24097D01*
X32515Y-24107D01*
X32534Y-24125D01*
X32543Y-24163D01*
X32543Y-24229D01*
X32534Y-24266D01*
X32515Y-24285D01*
X32496Y-24294D01*
X32459Y-24294D01*
X32440Y-24285D01*
X32421Y-24266D01*
X32412Y-24229D01*
X32412Y-24163D01*
X32421Y-24125D01*
X32440Y-24107D01*
X32459Y-24097D01*
X32581Y-24313D02*
X32731Y-24313D01*
X32759Y-24097D02*
X32881Y-24097D01*
X32815Y-24172D01*
X32843Y-24172D01*
X32862Y-24182D01*
X32871Y-24191D01*
X32881Y-24210D01*
X32881Y-24257D01*
X32871Y-24275D01*
X32862Y-24285D01*
X32843Y-24294D01*
X32787Y-24294D01*
X32768Y-24285D01*
X32759Y-24275D01*
X32328Y-24609D02*
X32328Y-24412D01*
X32459Y-24412D02*
X32496Y-24412D01*
X32515Y-24422D01*
X32534Y-24440D01*
X32543Y-24478D01*
X32543Y-24543D01*
X32534Y-24581D01*
X32515Y-24600D01*
X32496Y-24609D01*
X32459Y-24609D01*
X32440Y-24600D01*
X32421Y-24581D01*
X32412Y-24543D01*
X32412Y-24478D01*
X32421Y-24440D01*
X32440Y-24422D01*
X32459Y-24412D01*
X32581Y-24628D02*
X32731Y-24628D01*
X32768Y-24431D02*
X32778Y-24422D01*
X32796Y-24412D01*
X32843Y-24412D01*
X32862Y-24422D01*
X32871Y-24431D01*
X32881Y-24450D01*
X32881Y-24468D01*
X32871Y-24497D01*
X32759Y-24609D01*
X32881Y-24609D01*
X32328Y-24924D02*
X32328Y-24727D01*
X32459Y-24727D02*
X32496Y-24727D01*
X32515Y-24737D01*
X32534Y-24755D01*
X32543Y-24793D01*
X32543Y-24858D01*
X32534Y-24896D01*
X32515Y-24915D01*
X32496Y-24924D01*
X32459Y-24924D01*
X32440Y-24915D01*
X32421Y-24896D01*
X32412Y-24858D01*
X32412Y-24793D01*
X32421Y-24755D01*
X32440Y-24737D01*
X32459Y-24727D01*
X32581Y-24943D02*
X32731Y-24943D01*
X32881Y-24924D02*
X32768Y-24924D01*
X32824Y-24924D02*
X32824Y-24727D01*
X32806Y-24755D01*
X32787Y-24774D01*
X32768Y-24783D01*
X32328Y-25239D02*
X32328Y-25042D01*
X32459Y-25042D02*
X32496Y-25042D01*
X32515Y-25052D01*
X32534Y-25070D01*
X32543Y-25108D01*
X32543Y-25173D01*
X32534Y-25211D01*
X32515Y-25230D01*
X32496Y-25239D01*
X32459Y-25239D01*
X32440Y-25230D01*
X32421Y-25211D01*
X32412Y-25173D01*
X32412Y-25108D01*
X32421Y-25070D01*
X32440Y-25052D01*
X32459Y-25042D01*
X32581Y-25258D02*
X32731Y-25258D01*
X32815Y-25042D02*
X32834Y-25042D01*
X32853Y-25052D01*
X32862Y-25061D01*
X32871Y-25080D01*
X32881Y-25117D01*
X32881Y-25164D01*
X32871Y-25202D01*
X32862Y-25220D01*
X32853Y-25230D01*
X32834Y-25239D01*
X32815Y-25239D01*
X32796Y-25230D01*
X32787Y-25220D01*
X32778Y-25202D01*
X32768Y-25164D01*
X32768Y-25117D01*
X32778Y-25080D01*
X32787Y-25061D01*
X32796Y-25052D01*
X32815Y-25042D01*
X32337Y-25357D02*
X32403Y-25554D01*
X32468Y-25357D01*
X32534Y-25554D02*
X32534Y-25357D01*
X32581Y-25357D01*
X32609Y-25367D01*
X32628Y-25385D01*
X32637Y-25404D01*
X32646Y-25441D01*
X32646Y-25470D01*
X32637Y-25507D01*
X32628Y-25526D01*
X32609Y-25545D01*
X32581Y-25554D01*
X32534Y-25554D01*
X32731Y-25554D02*
X32731Y-25357D01*
X32778Y-25357D01*
X32806Y-25367D01*
X32824Y-25385D01*
X32834Y-25404D01*
X32843Y-25441D01*
X32843Y-25470D01*
X32834Y-25507D01*
X32824Y-25526D01*
X32806Y-25545D01*
X32778Y-25554D01*
X32731Y-25554D01*
G54D12*
X23400Y-34815D02*
X23493Y-35209D01*
X23568Y-34928D01*
X23643Y-35209D01*
X23737Y-34815D01*
X23850Y-34815D02*
X24093Y-34815D01*
X23962Y-34965D01*
X24018Y-34965D01*
X24056Y-34984D01*
X24075Y-35003D01*
X24093Y-35040D01*
X24093Y-35134D01*
X24075Y-35171D01*
X24056Y-35190D01*
X24018Y-35209D01*
X23906Y-35209D01*
X23868Y-35190D01*
X23850Y-35171D01*
X24356Y-35340D02*
X24356Y-34778D01*
X24637Y-35209D02*
X24637Y-34815D01*
X24787Y-34815D01*
X24825Y-34834D01*
X24843Y-34853D01*
X24862Y-34890D01*
X24862Y-34946D01*
X24843Y-34984D01*
X24825Y-35003D01*
X24787Y-35021D01*
X24637Y-35021D01*
X24993Y-34815D02*
X25237Y-34815D01*
X25106Y-34965D01*
X25162Y-34965D01*
X25199Y-34984D01*
X25218Y-35003D01*
X25237Y-35040D01*
X25237Y-35134D01*
X25218Y-35171D01*
X25199Y-35190D01*
X25162Y-35209D01*
X25049Y-35209D01*
X25012Y-35190D01*
X24993Y-35171D01*
X25499Y-35340D02*
X25499Y-34778D01*
X26006Y-35209D02*
X25874Y-35021D01*
X25781Y-35209D02*
X25781Y-34815D01*
X25931Y-34815D01*
X25968Y-34834D01*
X25987Y-34853D01*
X26006Y-34890D01*
X26006Y-34946D01*
X25987Y-34984D01*
X25968Y-35003D01*
X25931Y-35021D01*
X25781Y-35021D01*
X26137Y-34815D02*
X26381Y-34815D01*
X26249Y-34965D01*
X26306Y-34965D01*
X26343Y-34984D01*
X26362Y-35003D01*
X26381Y-35040D01*
X26381Y-35134D01*
X26362Y-35171D01*
X26343Y-35190D01*
X26306Y-35209D01*
X26193Y-35209D01*
X26156Y-35190D01*
X26137Y-35171D01*
X23400Y-18815D02*
X23493Y-19209D01*
X23568Y-18928D01*
X23643Y-19209D01*
X23737Y-18815D01*
X23850Y-18815D02*
X24093Y-18815D01*
X23962Y-18965D01*
X24018Y-18965D01*
X24056Y-18984D01*
X24075Y-19003D01*
X24093Y-19040D01*
X24093Y-19134D01*
X24075Y-19171D01*
X24056Y-19190D01*
X24018Y-19209D01*
X23906Y-19209D01*
X23868Y-19190D01*
X23850Y-19171D01*
X24356Y-19340D02*
X24356Y-18778D01*
X24637Y-19209D02*
X24637Y-18815D01*
X24787Y-18815D01*
X24825Y-18834D01*
X24843Y-18853D01*
X24862Y-18890D01*
X24862Y-18946D01*
X24843Y-18984D01*
X24825Y-19003D01*
X24787Y-19021D01*
X24637Y-19021D01*
X24993Y-18815D02*
X25237Y-18815D01*
X25106Y-18965D01*
X25162Y-18965D01*
X25199Y-18984D01*
X25218Y-19003D01*
X25237Y-19040D01*
X25237Y-19134D01*
X25218Y-19171D01*
X25199Y-19190D01*
X25162Y-19209D01*
X25049Y-19209D01*
X25012Y-19190D01*
X24993Y-19171D01*
X25499Y-19340D02*
X25499Y-18778D01*
X26006Y-19209D02*
X25874Y-19021D01*
X25781Y-19209D02*
X25781Y-18815D01*
X25931Y-18815D01*
X25968Y-18834D01*
X25987Y-18853D01*
X26006Y-18890D01*
X26006Y-18946D01*
X25987Y-18984D01*
X25968Y-19003D01*
X25931Y-19021D01*
X25781Y-19021D01*
X26137Y-18815D02*
X26381Y-18815D01*
X26249Y-18965D01*
X26306Y-18965D01*
X26343Y-18984D01*
X26362Y-19003D01*
X26381Y-19040D01*
X26381Y-19134D01*
X26362Y-19171D01*
X26343Y-19190D01*
X26306Y-19209D01*
X26193Y-19209D01*
X26156Y-19190D01*
X26137Y-19171D01*
G54D13*
X32346Y-7782D02*
X32412Y-7979D01*
X32478Y-7782D01*
X32534Y-7970D02*
X32562Y-7979D01*
X32609Y-7979D01*
X32628Y-7970D01*
X32637Y-7960D01*
X32646Y-7942D01*
X32646Y-7923D01*
X32637Y-7904D01*
X32628Y-7895D01*
X32609Y-7885D01*
X32571Y-7876D01*
X32553Y-7867D01*
X32543Y-7857D01*
X32534Y-7839D01*
X32534Y-7820D01*
X32543Y-7801D01*
X32553Y-7792D01*
X32571Y-7782D01*
X32618Y-7782D01*
X32646Y-7792D01*
X32721Y-7970D02*
X32749Y-7979D01*
X32796Y-7979D01*
X32815Y-7970D01*
X32824Y-7960D01*
X32834Y-7942D01*
X32834Y-7923D01*
X32824Y-7904D01*
X32815Y-7895D01*
X32796Y-7885D01*
X32759Y-7876D01*
X32740Y-7867D01*
X32731Y-7857D01*
X32721Y-7839D01*
X32721Y-7820D01*
X32731Y-7801D01*
X32740Y-7792D01*
X32759Y-7782D01*
X32806Y-7782D01*
X32834Y-7792D01*
X32328Y-8294D02*
X32328Y-8097D01*
X32459Y-8097D02*
X32496Y-8097D01*
X32515Y-8107D01*
X32534Y-8125D01*
X32543Y-8163D01*
X32543Y-8229D01*
X32534Y-8266D01*
X32515Y-8285D01*
X32496Y-8294D01*
X32459Y-8294D01*
X32440Y-8285D01*
X32421Y-8266D01*
X32412Y-8229D01*
X32412Y-8163D01*
X32421Y-8125D01*
X32440Y-8107D01*
X32459Y-8097D01*
X32581Y-8313D02*
X32731Y-8313D01*
X32759Y-8097D02*
X32881Y-8097D01*
X32815Y-8172D01*
X32843Y-8172D01*
X32862Y-8182D01*
X32871Y-8191D01*
X32881Y-8210D01*
X32881Y-8257D01*
X32871Y-8275D01*
X32862Y-8285D01*
X32843Y-8294D01*
X32787Y-8294D01*
X32768Y-8285D01*
X32759Y-8275D01*
X32328Y-8609D02*
X32328Y-8412D01*
X32459Y-8412D02*
X32496Y-8412D01*
X32515Y-8422D01*
X32534Y-8440D01*
X32543Y-8478D01*
X32543Y-8543D01*
X32534Y-8581D01*
X32515Y-8600D01*
X32496Y-8609D01*
X32459Y-8609D01*
X32440Y-8600D01*
X32421Y-8581D01*
X32412Y-8543D01*
X32412Y-8478D01*
X32421Y-8440D01*
X32440Y-8422D01*
X32459Y-8412D01*
X32581Y-8628D02*
X32731Y-8628D01*
X32768Y-8431D02*
X32778Y-8422D01*
X32796Y-8412D01*
X32843Y-8412D01*
X32862Y-8422D01*
X32871Y-8431D01*
X32881Y-8450D01*
X32881Y-8468D01*
X32871Y-8497D01*
X32759Y-8609D01*
X32881Y-8609D01*
X32328Y-8924D02*
X32328Y-8727D01*
X32459Y-8727D02*
X32496Y-8727D01*
X32515Y-8737D01*
X32534Y-8755D01*
X32543Y-8793D01*
X32543Y-8858D01*
X32534Y-8896D01*
X32515Y-8915D01*
X32496Y-8924D01*
X32459Y-8924D01*
X32440Y-8915D01*
X32421Y-8896D01*
X32412Y-8858D01*
X32412Y-8793D01*
X32421Y-8755D01*
X32440Y-8737D01*
X32459Y-8727D01*
X32581Y-8943D02*
X32731Y-8943D01*
X32881Y-8924D02*
X32768Y-8924D01*
X32824Y-8924D02*
X32824Y-8727D01*
X32806Y-8755D01*
X32787Y-8774D01*
X32768Y-8783D01*
X32328Y-9239D02*
X32328Y-9042D01*
X32459Y-9042D02*
X32496Y-9042D01*
X32515Y-9052D01*
X32534Y-9070D01*
X32543Y-9108D01*
X32543Y-9173D01*
X32534Y-9211D01*
X32515Y-9230D01*
X32496Y-9239D01*
X32459Y-9239D01*
X32440Y-9230D01*
X32421Y-9211D01*
X32412Y-9173D01*
X32412Y-9108D01*
X32421Y-9070D01*
X32440Y-9052D01*
X32459Y-9042D01*
X32581Y-9258D02*
X32731Y-9258D01*
X32815Y-9042D02*
X32834Y-9042D01*
X32853Y-9052D01*
X32862Y-9061D01*
X32871Y-9080D01*
X32881Y-9117D01*
X32881Y-9164D01*
X32871Y-9202D01*
X32862Y-9220D01*
X32853Y-9230D01*
X32834Y-9239D01*
X32815Y-9239D01*
X32796Y-9230D01*
X32787Y-9220D01*
X32778Y-9202D01*
X32768Y-9164D01*
X32768Y-9117D01*
X32778Y-9080D01*
X32787Y-9061D01*
X32796Y-9052D01*
X32815Y-9042D01*
X32337Y-9357D02*
X32403Y-9554D01*
X32468Y-9357D01*
X32534Y-9554D02*
X32534Y-9357D01*
X32581Y-9357D01*
X32609Y-9367D01*
X32628Y-9385D01*
X32637Y-9404D01*
X32646Y-9441D01*
X32646Y-9470D01*
X32637Y-9507D01*
X32628Y-9526D01*
X32609Y-9545D01*
X32581Y-9554D01*
X32534Y-9554D01*
X32731Y-9554D02*
X32731Y-9357D01*
X32778Y-9357D01*
X32806Y-9367D01*
X32824Y-9385D01*
X32834Y-9404D01*
X32843Y-9441D01*
X32843Y-9470D01*
X32834Y-9507D01*
X32824Y-9526D01*
X32806Y-9545D01*
X32778Y-9554D01*
X32731Y-9554D01*
G54D12*
X24262Y-7009D02*
X24131Y-6821D01*
X24037Y-7009D02*
X24037Y-6615D01*
X24187Y-6615D01*
X24225Y-6634D01*
X24243Y-6653D01*
X24262Y-6690D01*
X24262Y-6746D01*
X24243Y-6784D01*
X24225Y-6803D01*
X24187Y-6821D01*
X24037Y-6821D01*
X24412Y-6653D02*
X24431Y-6634D01*
X24468Y-6615D01*
X24562Y-6615D01*
X24600Y-6634D01*
X24618Y-6653D01*
X24637Y-6690D01*
X24637Y-6728D01*
X24618Y-6784D01*
X24393Y-7009D01*
X24637Y-7009D01*
X24900Y-7140D02*
X24900Y-6578D01*
X25143Y-6615D02*
X25237Y-7009D01*
X25312Y-6728D01*
X25387Y-7009D01*
X25481Y-6615D01*
X25612Y-6653D02*
X25631Y-6634D01*
X25668Y-6615D01*
X25762Y-6615D01*
X25799Y-6634D01*
X25818Y-6653D01*
X25837Y-6690D01*
X25837Y-6728D01*
X25818Y-6784D01*
X25593Y-7009D01*
X25837Y-7009D01*
X26099Y-7140D02*
X26099Y-6578D01*
X26381Y-7009D02*
X26381Y-6615D01*
X26531Y-6615D01*
X26568Y-6634D01*
X26587Y-6653D01*
X26606Y-6690D01*
X26606Y-6746D01*
X26587Y-6784D01*
X26568Y-6803D01*
X26531Y-6821D01*
X26381Y-6821D01*
X26756Y-6653D02*
X26774Y-6634D01*
X26812Y-6615D01*
X26906Y-6615D01*
X26943Y-6634D01*
X26962Y-6653D01*
X26981Y-6690D01*
X26981Y-6728D01*
X26962Y-6784D01*
X26737Y-7009D01*
X26981Y-7009D01*
X6293Y-6765D02*
X6425Y-7159D01*
X6556Y-6765D01*
X6668Y-7140D02*
X6725Y-7159D01*
X6818Y-7159D01*
X6856Y-7140D01*
X6875Y-7121D01*
X6893Y-7084D01*
X6893Y-7046D01*
X6875Y-7009D01*
X6856Y-6990D01*
X6818Y-6971D01*
X6743Y-6953D01*
X6706Y-6934D01*
X6687Y-6915D01*
X6668Y-6878D01*
X6668Y-6840D01*
X6687Y-6803D01*
X6706Y-6784D01*
X6743Y-6765D01*
X6837Y-6765D01*
X6893Y-6784D01*
X7043Y-7140D02*
X7100Y-7159D01*
X7193Y-7159D01*
X7231Y-7140D01*
X7250Y-7121D01*
X7268Y-7084D01*
X7268Y-7046D01*
X7250Y-7009D01*
X7231Y-6990D01*
X7193Y-6971D01*
X7118Y-6953D01*
X7081Y-6934D01*
X7062Y-6915D01*
X7043Y-6878D01*
X7043Y-6840D01*
X7062Y-6803D01*
X7081Y-6784D01*
X7118Y-6765D01*
X7212Y-6765D01*
X7268Y-6784D01*
X7531Y-7290D02*
X7531Y-6728D01*
X7756Y-6765D02*
X7887Y-7159D01*
X8018Y-6765D01*
X8149Y-7159D02*
X8149Y-6765D01*
X8243Y-6765D01*
X8299Y-6784D01*
X8337Y-6821D01*
X8356Y-6859D01*
X8374Y-6934D01*
X8374Y-6990D01*
X8356Y-7065D01*
X8337Y-7103D01*
X8299Y-7140D01*
X8243Y-7159D01*
X8149Y-7159D01*
X8543Y-7159D02*
X8543Y-6765D01*
X8637Y-6765D01*
X8693Y-6784D01*
X8731Y-6821D01*
X8749Y-6859D01*
X8768Y-6934D01*
X8768Y-6990D01*
X8749Y-7065D01*
X8731Y-7103D01*
X8693Y-7140D01*
X8637Y-7159D01*
X8543Y-7159D01*
X7759Y-17159D02*
X7759Y-16765D01*
X7909Y-16765D01*
X7946Y-16784D01*
X7965Y-16803D01*
X7984Y-16840D01*
X7984Y-16896D01*
X7965Y-16934D01*
X7946Y-16953D01*
X7909Y-16971D01*
X7759Y-16971D01*
X8359Y-17159D02*
X8134Y-17159D01*
X8246Y-17159D02*
X8246Y-16765D01*
X8209Y-16821D01*
X8171Y-16859D01*
X8134Y-16878D01*
X7693Y-15765D02*
X7787Y-16159D01*
X7862Y-15878D01*
X7937Y-16159D01*
X8031Y-15765D01*
X8387Y-16159D02*
X8162Y-16159D01*
X8274Y-16159D02*
X8274Y-15765D01*
X8237Y-15821D01*
X8199Y-15859D01*
X8162Y-15878D01*
X7934Y-15159D02*
X7803Y-14971D01*
X7709Y-15159D02*
X7709Y-14765D01*
X7859Y-14765D01*
X7896Y-14784D01*
X7915Y-14803D01*
X7934Y-14840D01*
X7934Y-14896D01*
X7915Y-14934D01*
X7896Y-14953D01*
X7859Y-14971D01*
X7709Y-14971D01*
X8309Y-15159D02*
X8084Y-15159D01*
X8196Y-15159D02*
X8196Y-14765D01*
X8159Y-14821D01*
X8121Y-14859D01*
X8084Y-14878D01*
X7743Y-11659D02*
X7743Y-11265D01*
X7893Y-11265D01*
X7931Y-11284D01*
X7949Y-11303D01*
X7968Y-11340D01*
X7968Y-11396D01*
X7949Y-11434D01*
X7931Y-11453D01*
X7893Y-11471D01*
X7743Y-11471D01*
X8212Y-11265D02*
X8249Y-11265D01*
X8287Y-11284D01*
X8306Y-11303D01*
X8324Y-11340D01*
X8343Y-11415D01*
X8343Y-11509D01*
X8324Y-11584D01*
X8306Y-11621D01*
X8287Y-11640D01*
X8249Y-11659D01*
X8212Y-11659D01*
X8174Y-11640D01*
X8156Y-11621D01*
X8137Y-11584D01*
X8118Y-11509D01*
X8118Y-11415D01*
X8137Y-11340D01*
X8156Y-11303D01*
X8174Y-11284D01*
X8212Y-11265D01*
X7706Y-10265D02*
X7799Y-10659D01*
X7874Y-10378D01*
X7949Y-10659D01*
X8043Y-10265D01*
X8268Y-10265D02*
X8306Y-10265D01*
X8343Y-10284D01*
X8362Y-10303D01*
X8381Y-10340D01*
X8399Y-10415D01*
X8399Y-10509D01*
X8381Y-10584D01*
X8362Y-10621D01*
X8343Y-10640D01*
X8306Y-10659D01*
X8268Y-10659D01*
X8231Y-10640D01*
X8212Y-10621D01*
X8193Y-10584D01*
X8174Y-10509D01*
X8174Y-10415D01*
X8193Y-10340D01*
X8212Y-10303D01*
X8231Y-10284D01*
X8268Y-10265D01*
X7968Y-9659D02*
X7837Y-9471D01*
X7743Y-9659D02*
X7743Y-9265D01*
X7893Y-9265D01*
X7931Y-9284D01*
X7949Y-9303D01*
X7968Y-9340D01*
X7968Y-9396D01*
X7949Y-9434D01*
X7931Y-9453D01*
X7893Y-9471D01*
X7743Y-9471D01*
X8212Y-9265D02*
X8249Y-9265D01*
X8287Y-9284D01*
X8306Y-9303D01*
X8324Y-9340D01*
X8343Y-9415D01*
X8343Y-9509D01*
X8324Y-9584D01*
X8306Y-9621D01*
X8287Y-9640D01*
X8249Y-9659D01*
X8212Y-9659D01*
X8174Y-9640D01*
X8156Y-9621D01*
X8137Y-9584D01*
X8118Y-9509D01*
X8118Y-9415D01*
X8137Y-9340D01*
X8156Y-9303D01*
X8174Y-9284D01*
X8212Y-9265D01*
G54D11*
X12949Y-6676D02*
X12893Y-6648D01*
X12809Y-6648D01*
X12724Y-6676D01*
X12668Y-6732D01*
X12640Y-6789D01*
X12612Y-6901D01*
X12612Y-6985D01*
X12640Y-7098D01*
X12668Y-7154D01*
X12724Y-7210D01*
X12809Y-7239D01*
X12865Y-7239D01*
X12949Y-7210D01*
X12978Y-7182D01*
X12978Y-6985D01*
X12865Y-6985D01*
X13484Y-7239D02*
X13484Y-6929D01*
X13456Y-6873D01*
X13399Y-6845D01*
X13287Y-6845D01*
X13231Y-6873D01*
X13484Y-7210D02*
X13428Y-7239D01*
X13287Y-7239D01*
X13231Y-7210D01*
X13203Y-7154D01*
X13203Y-7098D01*
X13231Y-7042D01*
X13287Y-7014D01*
X13428Y-7014D01*
X13484Y-6985D01*
X13849Y-7239D02*
X13793Y-7210D01*
X13765Y-7154D01*
X13765Y-6648D01*
X14018Y-6845D02*
X14159Y-7239D01*
X14299Y-6845D01*
X14777Y-7239D02*
X14777Y-6929D01*
X14749Y-6873D01*
X14693Y-6845D01*
X14580Y-6845D01*
X14524Y-6873D01*
X14777Y-7210D02*
X14721Y-7239D01*
X14580Y-7239D01*
X14524Y-7210D01*
X14496Y-7154D01*
X14496Y-7098D01*
X14524Y-7042D01*
X14580Y-7014D01*
X14721Y-7014D01*
X14777Y-6985D01*
X15059Y-6845D02*
X15059Y-7239D01*
X15059Y-6901D02*
X15087Y-6873D01*
X15143Y-6845D01*
X15227Y-6845D01*
X15284Y-6873D01*
X15312Y-6929D01*
X15312Y-7239D01*
X15846Y-6845D02*
X15846Y-7239D01*
X15593Y-6845D02*
X15593Y-7154D01*
X15621Y-7210D01*
X15677Y-7239D01*
X15762Y-7239D01*
X15818Y-7210D01*
X15846Y-7182D01*
X16099Y-7210D02*
X16155Y-7239D01*
X16268Y-7239D01*
X16324Y-7210D01*
X16352Y-7154D01*
X16352Y-7126D01*
X16324Y-7070D01*
X16268Y-7042D01*
X16183Y-7042D01*
X16127Y-7014D01*
X16099Y-6957D01*
X16099Y-6929D01*
X16127Y-6873D01*
X16183Y-6845D01*
X16268Y-6845D01*
X16324Y-6873D01*
X12640Y-8183D02*
X12640Y-7790D01*
X12640Y-7902D02*
X12668Y-7846D01*
X12696Y-7818D01*
X12753Y-7790D01*
X12809Y-7790D01*
X13231Y-8155D02*
X13174Y-8183D01*
X13062Y-8183D01*
X13006Y-8155D01*
X12978Y-8099D01*
X12978Y-7874D01*
X13006Y-7818D01*
X13062Y-7790D01*
X13174Y-7790D01*
X13231Y-7818D01*
X13259Y-7874D01*
X13259Y-7930D01*
X12978Y-7987D01*
X13456Y-7790D02*
X13596Y-8183D01*
X13737Y-7790D01*
X13962Y-8127D02*
X13990Y-8155D01*
X13962Y-8183D01*
X13934Y-8155D01*
X13962Y-8127D01*
X13962Y-8183D01*
X14356Y-7593D02*
X14412Y-7593D01*
X14468Y-7621D01*
X14496Y-7649D01*
X14524Y-7705D01*
X14552Y-7818D01*
X14552Y-7958D01*
X14524Y-8071D01*
X14496Y-8127D01*
X14468Y-8155D01*
X14412Y-8183D01*
X14356Y-8183D01*
X14299Y-8155D01*
X14271Y-8127D01*
X14243Y-8071D01*
X14215Y-7958D01*
X14215Y-7818D01*
X14243Y-7705D01*
X14271Y-7649D01*
X14299Y-7621D01*
X14356Y-7593D01*
X14918Y-7593D02*
X14974Y-7593D01*
X15030Y-7621D01*
X15059Y-7649D01*
X15087Y-7705D01*
X15115Y-7818D01*
X15115Y-7958D01*
X15087Y-8071D01*
X15059Y-8127D01*
X15030Y-8155D01*
X14974Y-8183D01*
X14918Y-8183D01*
X14862Y-8155D01*
X14834Y-8127D01*
X14805Y-8071D01*
X14777Y-7958D01*
X14777Y-7818D01*
X14805Y-7705D01*
X14834Y-7649D01*
X14862Y-7621D01*
X14918Y-7593D01*
X15677Y-8183D02*
X15340Y-8183D01*
X15508Y-8183D02*
X15508Y-7593D01*
X15452Y-7677D01*
X15396Y-7733D01*
X15340Y-7762D01*
X7978Y-19239D02*
X7781Y-18957D01*
X7640Y-19239D02*
X7640Y-18648D01*
X7865Y-18648D01*
X7921Y-18676D01*
X7949Y-18704D01*
X7978Y-18760D01*
X7978Y-18845D01*
X7949Y-18901D01*
X7921Y-18929D01*
X7865Y-18957D01*
X7640Y-18957D01*
X8315Y-19239D02*
X8259Y-19210D01*
X8231Y-19182D01*
X8203Y-19126D01*
X8203Y-18957D01*
X8231Y-18901D01*
X8259Y-18873D01*
X8315Y-18845D01*
X8399Y-18845D01*
X8456Y-18873D01*
X8484Y-18901D01*
X8512Y-18957D01*
X8512Y-19126D01*
X8484Y-19182D01*
X8456Y-19210D01*
X8399Y-19239D01*
X8315Y-19239D01*
X9018Y-18845D02*
X9018Y-19239D01*
X8765Y-18845D02*
X8765Y-19154D01*
X8793Y-19210D01*
X8849Y-19239D01*
X8934Y-19239D01*
X8990Y-19210D01*
X9018Y-19182D01*
X9215Y-18845D02*
X9440Y-18845D01*
X9299Y-18648D02*
X9299Y-19154D01*
X9327Y-19210D01*
X9384Y-19239D01*
X9440Y-19239D01*
X9637Y-19239D02*
X9637Y-18845D01*
X9637Y-18648D02*
X9609Y-18676D01*
X9637Y-18704D01*
X9665Y-18676D01*
X9637Y-18648D01*
X9637Y-18704D01*
X9918Y-18845D02*
X9918Y-19239D01*
X9918Y-18901D02*
X9946Y-18873D01*
X10002Y-18845D01*
X10087Y-18845D01*
X10143Y-18873D01*
X10171Y-18929D01*
X10171Y-19239D01*
X10705Y-18845D02*
X10705Y-19323D01*
X10677Y-19379D01*
X10649Y-19407D01*
X10593Y-19435D01*
X10508Y-19435D01*
X10452Y-19407D01*
X10705Y-19210D02*
X10649Y-19239D01*
X10537Y-19239D01*
X10480Y-19210D01*
X10452Y-19182D01*
X10424Y-19126D01*
X10424Y-18957D01*
X10452Y-18901D01*
X10480Y-18873D01*
X10537Y-18845D01*
X10649Y-18845D01*
X10705Y-18873D01*
X11521Y-19239D02*
X11465Y-19210D01*
X11437Y-19154D01*
X11437Y-18648D01*
X11746Y-19239D02*
X11746Y-18845D01*
X11746Y-18648D02*
X11718Y-18676D01*
X11746Y-18704D01*
X11774Y-18676D01*
X11746Y-18648D01*
X11746Y-18704D01*
X12027Y-19239D02*
X12027Y-18648D01*
X12083Y-19014D02*
X12252Y-19239D01*
X12252Y-18845D02*
X12027Y-19070D01*
X12730Y-19210D02*
X12674Y-19239D01*
X12561Y-19239D01*
X12505Y-19210D01*
X12477Y-19154D01*
X12477Y-18929D01*
X12505Y-18873D01*
X12561Y-18845D01*
X12674Y-18845D01*
X12730Y-18873D01*
X12758Y-18929D01*
X12758Y-18985D01*
X12477Y-19042D01*
X13714Y-19239D02*
X13714Y-18929D01*
X13686Y-18873D01*
X13630Y-18845D01*
X13517Y-18845D01*
X13461Y-18873D01*
X13714Y-19210D02*
X13658Y-19239D01*
X13517Y-19239D01*
X13461Y-19210D01*
X13433Y-19154D01*
X13433Y-19098D01*
X13461Y-19042D01*
X13517Y-19014D01*
X13658Y-19014D01*
X13714Y-18985D01*
X14446Y-19239D02*
X14446Y-18845D01*
X14446Y-18901D02*
X14474Y-18873D01*
X14530Y-18845D01*
X14614Y-18845D01*
X14670Y-18873D01*
X14699Y-18929D01*
X14699Y-19239D01*
X14699Y-18929D02*
X14727Y-18873D01*
X14783Y-18845D01*
X14867Y-18845D01*
X14924Y-18873D01*
X14952Y-18929D01*
X14952Y-19239D01*
X15317Y-19239D02*
X15261Y-19210D01*
X15233Y-19182D01*
X15205Y-19126D01*
X15205Y-18957D01*
X15233Y-18901D01*
X15261Y-18873D01*
X15317Y-18845D01*
X15402Y-18845D01*
X15458Y-18873D01*
X15486Y-18901D01*
X15514Y-18957D01*
X15514Y-19126D01*
X15486Y-19182D01*
X15458Y-19210D01*
X15402Y-19239D01*
X15317Y-19239D01*
X15767Y-18845D02*
X15767Y-19239D01*
X15767Y-18901D02*
X15795Y-18873D01*
X15852Y-18845D01*
X15936Y-18845D01*
X15992Y-18873D01*
X16020Y-18929D01*
X16020Y-19239D01*
X16302Y-19239D02*
X16302Y-18648D01*
X16358Y-19014D02*
X16526Y-19239D01*
X16526Y-18845D02*
X16302Y-19070D01*
X17005Y-19210D02*
X16948Y-19239D01*
X16836Y-19239D01*
X16780Y-19210D01*
X16751Y-19154D01*
X16751Y-18929D01*
X16780Y-18873D01*
X16836Y-18845D01*
X16948Y-18845D01*
X17005Y-18873D01*
X17033Y-18929D01*
X17033Y-18985D01*
X16751Y-19042D01*
X17230Y-18845D02*
X17370Y-19239D01*
X17511Y-18845D02*
X17370Y-19239D01*
X17314Y-19379D01*
X17286Y-19407D01*
X17230Y-19435D01*
X17736Y-19182D02*
X17764Y-19210D01*
X17736Y-19239D01*
X17708Y-19210D01*
X17736Y-19182D01*
X17736Y-19239D01*
X17736Y-19014D02*
X17708Y-18676D01*
X17736Y-18648D01*
X17764Y-18676D01*
X17736Y-19014D01*
X17736Y-18648D01*
G54D14*
X33000Y-32000D02*
X32000Y-32000D01*
X32000Y-32000D02*
X32000Y-26000D01*
X32000Y-26000D02*
X33000Y-26000D01*
X33000Y-26000D02*
X33000Y-32000D01*
X33000Y-31000D02*
X32000Y-31000D01*
G54D15*
X9000Y-23500D02*
X9000Y-22500D01*
X9000Y-22500D02*
X11000Y-22500D01*
X11000Y-22500D02*
X11000Y-23500D01*
X11000Y-23500D02*
X9000Y-23500D01*
X23000Y-34500D02*
X23000Y-35500D01*
X23000Y-35500D02*
X20000Y-35500D01*
X20000Y-35500D02*
X20000Y-34500D01*
X20000Y-34500D02*
X23000Y-34500D01*
X22000Y-35500D02*
X22000Y-34500D01*
X19950Y-23550D02*
X19950Y-22550D01*
X19950Y-22550D02*
X22950Y-22550D01*
X22950Y-22550D02*
X22950Y-23550D01*
X22950Y-23550D02*
X19950Y-23550D01*
X20950Y-22550D02*
X20950Y-23550D01*
X6500Y-30500D02*
X7500Y-30500D01*
X7500Y-30500D02*
X7500Y-33500D01*
X7500Y-33500D02*
X6500Y-33500D01*
X6500Y-33500D02*
X6500Y-30500D01*
X7500Y-31500D02*
X6500Y-31500D01*
X6500Y-25000D02*
X7500Y-25000D01*
X7500Y-25000D02*
X7500Y-28000D01*
X7500Y-28000D02*
X6500Y-28000D01*
X6500Y-28000D02*
X6500Y-25000D01*
X7500Y-26000D02*
X6500Y-26000D01*
G54D16*
X24800Y-30950D02*
X24750Y-30950D01*
X24750Y-30950D02*
X24750Y-33050D01*
X26250Y-33050D02*
X26250Y-30950D01*
X26250Y-30950D02*
X24800Y-30950D01*
X25700Y-30950D02*
X25700Y-31150D01*
X25700Y-31150D02*
X25300Y-31150D01*
X25300Y-31150D02*
X25300Y-30950D01*
X26250Y-33050D02*
X24750Y-33050D01*
X13300Y-30950D02*
X13250Y-30950D01*
X13250Y-30950D02*
X13250Y-33050D01*
X14750Y-33050D02*
X14750Y-30950D01*
X14750Y-30950D02*
X13300Y-30950D01*
X14200Y-30950D02*
X14200Y-31150D01*
X14200Y-31150D02*
X13800Y-31150D01*
X13800Y-31150D02*
X13800Y-30950D01*
X14750Y-33050D02*
X13250Y-33050D01*
X13300Y-25450D02*
X13250Y-25450D01*
X13250Y-25450D02*
X13250Y-27550D01*
X14750Y-27550D02*
X14750Y-25450D01*
X14750Y-25450D02*
X13300Y-25450D01*
X14200Y-25450D02*
X14200Y-25650D01*
X14200Y-25650D02*
X13800Y-25650D01*
X13800Y-25650D02*
X13800Y-25450D01*
X14750Y-27550D02*
X13250Y-27550D01*
X24800Y-25450D02*
X24750Y-25450D01*
X24750Y-25450D02*
X24750Y-27550D01*
X26250Y-27550D02*
X26250Y-25450D01*
X26250Y-25450D02*
X24800Y-25450D01*
X25700Y-25450D02*
X25700Y-25650D01*
X25700Y-25650D02*
X25300Y-25650D01*
X25300Y-25650D02*
X25300Y-25450D01*
X26250Y-27550D02*
X24750Y-27550D01*
X18350Y-33600D02*
X17650Y-33600D01*
X17650Y-33600D02*
X17650Y-32400D01*
X17650Y-32400D02*
X18350Y-32400D01*
X18350Y-32400D02*
X18350Y-33600D01*
X10350Y-31100D02*
X9650Y-31100D01*
X9650Y-31100D02*
X9650Y-29900D01*
X9650Y-29900D02*
X10350Y-29900D01*
X10350Y-29900D02*
X10350Y-31100D01*
X10350Y-33600D02*
X9650Y-33600D01*
X9650Y-33600D02*
X9650Y-32400D01*
X9650Y-32400D02*
X10350Y-32400D01*
X10350Y-32400D02*
X10350Y-33600D01*
X18350Y-25600D02*
X17650Y-25600D01*
X17650Y-25600D02*
X17650Y-24400D01*
X17650Y-24400D02*
X18350Y-24400D01*
X18350Y-24400D02*
X18350Y-25600D01*
X18350Y-28100D02*
X17650Y-28100D01*
X17650Y-28100D02*
X17650Y-26900D01*
X17650Y-26900D02*
X18350Y-26900D01*
X18350Y-26900D02*
X18350Y-28100D01*
X10350Y-28100D02*
X9650Y-28100D01*
X9650Y-28100D02*
X9650Y-26900D01*
X9650Y-26900D02*
X10350Y-26900D01*
X10350Y-26900D02*
X10350Y-28100D01*
X18350Y-31100D02*
X17650Y-31100D01*
X17650Y-31100D02*
X17650Y-29900D01*
X17650Y-29900D02*
X18350Y-29900D01*
X18350Y-29900D02*
X18350Y-31100D01*
X21850Y-28100D02*
X21150Y-28100D01*
X21150Y-28100D02*
X21150Y-26900D01*
X21150Y-26900D02*
X21850Y-26900D01*
X21850Y-26900D02*
X21850Y-28100D01*
X21850Y-25600D02*
X21150Y-25600D01*
X21150Y-25600D02*
X21150Y-24400D01*
X21150Y-24400D02*
X21850Y-24400D01*
X21850Y-24400D02*
X21850Y-25600D01*
X29850Y-28100D02*
X29150Y-28100D01*
X29150Y-28100D02*
X29150Y-26900D01*
X29150Y-26900D02*
X29850Y-26900D01*
X29850Y-26900D02*
X29850Y-28100D01*
X29850Y-25600D02*
X29150Y-25600D01*
X29150Y-25600D02*
X29150Y-24400D01*
X29150Y-24400D02*
X29850Y-24400D01*
X29850Y-24400D02*
X29850Y-25600D01*
X21850Y-33600D02*
X21150Y-33600D01*
X21150Y-33600D02*
X21150Y-32400D01*
X21150Y-32400D02*
X21850Y-32400D01*
X21850Y-32400D02*
X21850Y-33600D01*
X21850Y-31100D02*
X21150Y-31100D01*
X21150Y-31100D02*
X21150Y-29900D01*
X21150Y-29900D02*
X21850Y-29900D01*
X21850Y-29900D02*
X21850Y-31100D01*
X29850Y-33600D02*
X29150Y-33600D01*
X29150Y-33600D02*
X29150Y-32400D01*
X29150Y-32400D02*
X29850Y-32400D01*
X29850Y-32400D02*
X29850Y-33600D01*
X29850Y-31100D02*
X29150Y-31100D01*
X29150Y-31100D02*
X29150Y-29900D01*
X29150Y-29900D02*
X29850Y-29900D01*
X29850Y-29900D02*
X29850Y-31100D01*
X10350Y-25600D02*
X9650Y-25600D01*
X9650Y-25600D02*
X9650Y-24400D01*
X9650Y-24400D02*
X10350Y-24400D01*
X10350Y-24400D02*
X10350Y-25600D01*
X10350Y-9600D02*
X9650Y-9600D01*
X9650Y-9600D02*
X9650Y-8400D01*
X9650Y-8400D02*
X10350Y-8400D01*
X10350Y-8400D02*
X10350Y-9600D01*
X29850Y-15100D02*
X29150Y-15100D01*
X29150Y-15100D02*
X29150Y-13900D01*
X29150Y-13900D02*
X29850Y-13900D01*
X29850Y-13900D02*
X29850Y-15100D01*
X29850Y-17600D02*
X29150Y-17600D01*
X29150Y-17600D02*
X29150Y-16400D01*
X29150Y-16400D02*
X29850Y-16400D01*
X29850Y-16400D02*
X29850Y-17600D01*
X21850Y-15100D02*
X21150Y-15100D01*
X21150Y-15100D02*
X21150Y-13900D01*
X21150Y-13900D02*
X21850Y-13900D01*
X21850Y-13900D02*
X21850Y-15100D01*
X21850Y-17600D02*
X21150Y-17600D01*
X21150Y-17600D02*
X21150Y-16400D01*
X21150Y-16400D02*
X21850Y-16400D01*
X21850Y-16400D02*
X21850Y-17600D01*
X29850Y-9600D02*
X29150Y-9600D01*
X29150Y-9600D02*
X29150Y-8400D01*
X29150Y-8400D02*
X29850Y-8400D01*
X29850Y-8400D02*
X29850Y-9600D01*
X29850Y-12100D02*
X29150Y-12100D01*
X29150Y-12100D02*
X29150Y-10900D01*
X29150Y-10900D02*
X29850Y-10900D01*
X29850Y-10900D02*
X29850Y-12100D01*
X21850Y-9600D02*
X21150Y-9600D01*
X21150Y-9600D02*
X21150Y-8400D01*
X21150Y-8400D02*
X21850Y-8400D01*
X21850Y-8400D02*
X21850Y-9600D01*
X21850Y-12100D02*
X21150Y-12100D01*
X21150Y-12100D02*
X21150Y-10900D01*
X21150Y-10900D02*
X21850Y-10900D01*
X21850Y-10900D02*
X21850Y-12100D01*
X18350Y-15100D02*
X17650Y-15100D01*
X17650Y-15100D02*
X17650Y-13900D01*
X17650Y-13900D02*
X18350Y-13900D01*
X18350Y-13900D02*
X18350Y-15100D01*
X10350Y-12100D02*
X9650Y-12100D01*
X9650Y-12100D02*
X9650Y-10900D01*
X9650Y-10900D02*
X10350Y-10900D01*
X10350Y-10900D02*
X10350Y-12100D01*
X18350Y-12100D02*
X17650Y-12100D01*
X17650Y-12100D02*
X17650Y-10900D01*
X17650Y-10900D02*
X18350Y-10900D01*
X18350Y-10900D02*
X18350Y-12100D01*
X18350Y-9600D02*
X17650Y-9600D01*
X17650Y-9600D02*
X17650Y-8400D01*
X17650Y-8400D02*
X18350Y-8400D01*
X18350Y-8400D02*
X18350Y-9600D01*
X10350Y-17600D02*
X9650Y-17600D01*
X9650Y-17600D02*
X9650Y-16400D01*
X9650Y-16400D02*
X10350Y-16400D01*
X10350Y-16400D02*
X10350Y-17600D01*
X10350Y-15100D02*
X9650Y-15100D01*
X9650Y-15100D02*
X9650Y-13900D01*
X9650Y-13900D02*
X10350Y-13900D01*
X10350Y-13900D02*
X10350Y-15100D01*
X18350Y-17600D02*
X17650Y-17600D01*
X17650Y-17600D02*
X17650Y-16400D01*
X17650Y-16400D02*
X18350Y-16400D01*
X18350Y-16400D02*
X18350Y-17600D01*
X24800Y-9450D02*
X24750Y-9450D01*
X24750Y-9450D02*
X24750Y-11550D01*
X26250Y-11550D02*
X26250Y-9450D01*
X26250Y-9450D02*
X24800Y-9450D01*
X25700Y-9450D02*
X25700Y-9650D01*
X25700Y-9650D02*
X25300Y-9650D01*
X25300Y-9650D02*
X25300Y-9450D01*
X26250Y-11550D02*
X24750Y-11550D01*
X13300Y-9450D02*
X13250Y-9450D01*
X13250Y-9450D02*
X13250Y-11550D01*
X14750Y-11550D02*
X14750Y-9450D01*
X14750Y-9450D02*
X13300Y-9450D01*
X14200Y-9450D02*
X14200Y-9650D01*
X14200Y-9650D02*
X13800Y-9650D01*
X13800Y-9650D02*
X13800Y-9450D01*
X14750Y-11550D02*
X13250Y-11550D01*
X13300Y-14950D02*
X13250Y-14950D01*
X13250Y-14950D02*
X13250Y-17050D01*
X14750Y-17050D02*
X14750Y-14950D01*
X14750Y-14950D02*
X13300Y-14950D01*
X14200Y-14950D02*
X14200Y-15150D01*
X14200Y-15150D02*
X13800Y-15150D01*
X13800Y-15150D02*
X13800Y-14950D01*
X14750Y-17050D02*
X13250Y-17050D01*
X24800Y-14950D02*
X24750Y-14950D01*
X24750Y-14950D02*
X24750Y-17050D01*
X26250Y-17050D02*
X26250Y-14950D01*
X26250Y-14950D02*
X24800Y-14950D01*
X25700Y-14950D02*
X25700Y-15150D01*
X25700Y-15150D02*
X25300Y-15150D01*
X25300Y-15150D02*
X25300Y-14950D01*
X26250Y-17050D02*
X24750Y-17050D01*
G54D15*
X6500Y-9000D02*
X7500Y-9000D01*
X7500Y-9000D02*
X7500Y-12000D01*
X7500Y-12000D02*
X6500Y-12000D01*
X6500Y-12000D02*
X6500Y-9000D01*
X7500Y-10000D02*
X6500Y-10000D01*
X6500Y-14500D02*
X7500Y-14500D01*
X7500Y-14500D02*
X7500Y-17500D01*
X7500Y-17500D02*
X6500Y-17500D01*
X6500Y-17500D02*
X6500Y-14500D01*
X7500Y-15500D02*
X6500Y-15500D01*
X19950Y-7550D02*
X19950Y-6550D01*
X19950Y-6550D02*
X22950Y-6550D01*
X22950Y-6550D02*
X22950Y-7550D01*
X22950Y-7550D02*
X19950Y-7550D01*
X20950Y-6550D02*
X20950Y-7550D01*
X23000Y-18500D02*
X23000Y-19500D01*
X23000Y-19500D02*
X20000Y-19500D01*
X20000Y-19500D02*
X20000Y-18500D01*
X20000Y-18500D02*
X23000Y-18500D01*
X22000Y-19500D02*
X22000Y-18500D01*
X9000Y-7500D02*
X9000Y-6500D01*
X9000Y-6500D02*
X11000Y-6500D01*
X11000Y-6500D02*
X11000Y-7500D01*
X11000Y-7500D02*
X9000Y-7500D01*
G54D14*
X33000Y-16000D02*
X32000Y-16000D01*
X32000Y-16000D02*
X32000Y-10000D01*
X32000Y-10000D02*
X33000Y-10000D01*
X33000Y-10000D02*
X33000Y-16000D01*
X33000Y-15000D02*
X32000Y-15000D01*
G54D17*
X31811Y-29295D02*
X31411Y-29295D01*
X31411Y-29142D01*
X31430Y-29104D01*
X31450Y-29085D01*
X31488Y-29066D01*
X31545Y-29066D01*
X31583Y-29085D01*
X31602Y-29104D01*
X31621Y-29142D01*
X31621Y-29295D01*
X31811Y-28685D02*
X31811Y-28914D01*
X31811Y-28799D02*
X31411Y-28799D01*
X31469Y-28838D01*
X31507Y-28876D01*
X31526Y-28914D01*
G54D15*
X11278Y-23121D02*
X11278Y-22821D01*
X11392Y-22821D01*
X11421Y-22835D01*
X11435Y-22850D01*
X11450Y-22878D01*
X11450Y-22921D01*
X11435Y-22950D01*
X11421Y-22964D01*
X11392Y-22978D01*
X11278Y-22978D01*
X11564Y-22850D02*
X11578Y-22835D01*
X11607Y-22821D01*
X11678Y-22821D01*
X11707Y-22835D01*
X11721Y-22850D01*
X11735Y-22878D01*
X11735Y-22907D01*
X11721Y-22950D01*
X11550Y-23121D01*
X11735Y-23121D01*
X18704Y-35161D02*
X18704Y-34761D01*
X18933Y-35161D02*
X18761Y-34933D01*
X18933Y-34761D02*
X18704Y-34990D01*
X19276Y-34895D02*
X19276Y-35161D01*
X19180Y-34742D02*
X19085Y-35028D01*
X19333Y-35028D01*
X23154Y-23211D02*
X23154Y-22811D01*
X23383Y-23211D02*
X23211Y-22983D01*
X23383Y-22811D02*
X23154Y-23040D01*
X23516Y-22811D02*
X23764Y-22811D01*
X23630Y-22964D01*
X23688Y-22964D01*
X23726Y-22983D01*
X23745Y-23002D01*
X23764Y-23040D01*
X23764Y-23135D01*
X23745Y-23173D01*
X23726Y-23192D01*
X23688Y-23211D01*
X23573Y-23211D01*
X23535Y-23192D01*
X23516Y-23173D01*
X7161Y-34295D02*
X6761Y-34295D01*
X7161Y-34066D02*
X6933Y-34238D01*
X6761Y-34066D02*
X6990Y-34295D01*
X6800Y-33914D02*
X6780Y-33895D01*
X6761Y-33857D01*
X6761Y-33761D01*
X6780Y-33723D01*
X6800Y-33704D01*
X6838Y-33685D01*
X6876Y-33685D01*
X6933Y-33704D01*
X7161Y-33933D01*
X7161Y-33685D01*
X7161Y-28795D02*
X6761Y-28795D01*
X7161Y-28566D02*
X6933Y-28738D01*
X6761Y-28566D02*
X6990Y-28795D01*
X7161Y-28185D02*
X7161Y-28414D01*
X7161Y-28299D02*
X6761Y-28299D01*
X6819Y-28338D01*
X6857Y-28376D01*
X6876Y-28414D01*
G54D10*
X25012Y-33265D02*
X25012Y-33584D01*
X25031Y-33621D01*
X25050Y-33640D01*
X25087Y-33659D01*
X25162Y-33659D01*
X25200Y-33640D01*
X25218Y-33621D01*
X25237Y-33584D01*
X25237Y-33265D01*
X25631Y-33659D02*
X25406Y-33659D01*
X25518Y-33659D02*
X25518Y-33265D01*
X25481Y-33321D01*
X25443Y-33359D01*
X25406Y-33378D01*
X25781Y-33303D02*
X25799Y-33284D01*
X25837Y-33265D01*
X25931Y-33265D01*
X25968Y-33284D01*
X25987Y-33303D01*
X26006Y-33340D01*
X26006Y-33378D01*
X25987Y-33434D01*
X25762Y-33659D01*
X26006Y-33659D01*
X24360Y-30627D02*
X24360Y-30312D01*
X24465Y-30537D01*
X24570Y-30312D01*
X24570Y-30627D01*
X24705Y-30537D02*
X24855Y-30537D01*
X24675Y-30627D02*
X24780Y-30312D01*
X24885Y-30627D01*
X24960Y-30312D02*
X25170Y-30627D01*
X25170Y-30312D02*
X24960Y-30627D01*
X25455Y-30627D02*
X25275Y-30627D01*
X25365Y-30627D02*
X25365Y-30312D01*
X25335Y-30357D01*
X25305Y-30387D01*
X25275Y-30402D01*
X25574Y-30342D02*
X25589Y-30327D01*
X25619Y-30312D01*
X25694Y-30312D01*
X25724Y-30327D01*
X25739Y-30342D01*
X25754Y-30372D01*
X25754Y-30402D01*
X25739Y-30447D01*
X25559Y-30627D01*
X25754Y-30627D01*
X25904Y-30627D02*
X25964Y-30627D01*
X25994Y-30612D01*
X26009Y-30597D01*
X26039Y-30552D01*
X26054Y-30492D01*
X26054Y-30372D01*
X26039Y-30342D01*
X26024Y-30327D01*
X25994Y-30312D01*
X25934Y-30312D01*
X25904Y-30327D01*
X25889Y-30342D01*
X25874Y-30372D01*
X25874Y-30447D01*
X25889Y-30477D01*
X25904Y-30492D01*
X25934Y-30507D01*
X25994Y-30507D01*
X26024Y-30492D01*
X26039Y-30477D01*
X26054Y-30447D01*
X26159Y-30312D02*
X26354Y-30312D01*
X26249Y-30432D01*
X26294Y-30432D01*
X26324Y-30447D01*
X26339Y-30462D01*
X26354Y-30492D01*
X26354Y-30567D01*
X26339Y-30597D01*
X26324Y-30612D01*
X26294Y-30627D01*
X26204Y-30627D01*
X26174Y-30612D01*
X26159Y-30597D01*
X26654Y-30627D02*
X26474Y-30627D01*
X26564Y-30627D02*
X26564Y-30312D01*
X26534Y-30357D01*
X26504Y-30387D01*
X26474Y-30402D01*
X13512Y-33265D02*
X13512Y-33584D01*
X13531Y-33621D01*
X13550Y-33640D01*
X13587Y-33659D01*
X13662Y-33659D01*
X13700Y-33640D01*
X13718Y-33621D01*
X13737Y-33584D01*
X13737Y-33265D01*
X14131Y-33659D02*
X13906Y-33659D01*
X14018Y-33659D02*
X14018Y-33265D01*
X13981Y-33321D01*
X13943Y-33359D01*
X13906Y-33378D01*
X14374Y-33265D02*
X14412Y-33265D01*
X14449Y-33284D01*
X14468Y-33303D01*
X14487Y-33340D01*
X14506Y-33415D01*
X14506Y-33509D01*
X14487Y-33584D01*
X14468Y-33621D01*
X14449Y-33640D01*
X14412Y-33659D01*
X14374Y-33659D01*
X14337Y-33640D01*
X14318Y-33621D01*
X14299Y-33584D01*
X14281Y-33509D01*
X14281Y-33415D01*
X14299Y-33340D01*
X14318Y-33303D01*
X14337Y-33284D01*
X14374Y-33265D01*
X12860Y-30627D02*
X12860Y-30312D01*
X12965Y-30537D01*
X13070Y-30312D01*
X13070Y-30627D01*
X13205Y-30537D02*
X13355Y-30537D01*
X13175Y-30627D02*
X13280Y-30312D01*
X13385Y-30627D01*
X13460Y-30312D02*
X13670Y-30627D01*
X13670Y-30312D02*
X13460Y-30627D01*
X13955Y-30627D02*
X13775Y-30627D01*
X13865Y-30627D02*
X13865Y-30312D01*
X13835Y-30357D01*
X13805Y-30387D01*
X13775Y-30402D01*
X14074Y-30342D02*
X14089Y-30327D01*
X14119Y-30312D01*
X14194Y-30312D01*
X14224Y-30327D01*
X14239Y-30342D01*
X14254Y-30372D01*
X14254Y-30402D01*
X14239Y-30447D01*
X14059Y-30627D01*
X14254Y-30627D01*
X14404Y-30627D02*
X14464Y-30627D01*
X14494Y-30612D01*
X14509Y-30597D01*
X14539Y-30552D01*
X14554Y-30492D01*
X14554Y-30372D01*
X14539Y-30342D01*
X14524Y-30327D01*
X14494Y-30312D01*
X14434Y-30312D01*
X14404Y-30327D01*
X14389Y-30342D01*
X14374Y-30372D01*
X14374Y-30447D01*
X14389Y-30477D01*
X14404Y-30492D01*
X14434Y-30507D01*
X14494Y-30507D01*
X14524Y-30492D01*
X14539Y-30477D01*
X14554Y-30447D01*
X14659Y-30312D02*
X14854Y-30312D01*
X14749Y-30432D01*
X14794Y-30432D01*
X14824Y-30447D01*
X14839Y-30462D01*
X14854Y-30492D01*
X14854Y-30567D01*
X14839Y-30597D01*
X14824Y-30612D01*
X14794Y-30627D01*
X14704Y-30627D01*
X14674Y-30612D01*
X14659Y-30597D01*
X15154Y-30627D02*
X14974Y-30627D01*
X15064Y-30627D02*
X15064Y-30312D01*
X15034Y-30357D01*
X15004Y-30387D01*
X14974Y-30402D01*
X13700Y-27765D02*
X13700Y-28084D01*
X13718Y-28121D01*
X13737Y-28140D01*
X13775Y-28159D01*
X13850Y-28159D01*
X13887Y-28140D01*
X13906Y-28121D01*
X13925Y-28084D01*
X13925Y-27765D01*
X14131Y-28159D02*
X14206Y-28159D01*
X14243Y-28140D01*
X14262Y-28121D01*
X14299Y-28065D01*
X14318Y-27990D01*
X14318Y-27840D01*
X14299Y-27803D01*
X14281Y-27784D01*
X14243Y-27765D01*
X14168Y-27765D01*
X14131Y-27784D01*
X14112Y-27803D01*
X14093Y-27840D01*
X14093Y-27934D01*
X14112Y-27971D01*
X14131Y-27990D01*
X14168Y-28009D01*
X14243Y-28009D01*
X14281Y-27990D01*
X14299Y-27971D01*
X14318Y-27934D01*
X12860Y-25127D02*
X12860Y-24812D01*
X12965Y-25037D01*
X13070Y-24812D01*
X13070Y-25127D01*
X13205Y-25037D02*
X13355Y-25037D01*
X13175Y-25127D02*
X13280Y-24812D01*
X13385Y-25127D01*
X13460Y-24812D02*
X13670Y-25127D01*
X13670Y-24812D02*
X13460Y-25127D01*
X13955Y-25127D02*
X13775Y-25127D01*
X13865Y-25127D02*
X13865Y-24812D01*
X13835Y-24857D01*
X13805Y-24887D01*
X13775Y-24902D01*
X14074Y-24842D02*
X14089Y-24827D01*
X14119Y-24812D01*
X14194Y-24812D01*
X14224Y-24827D01*
X14239Y-24842D01*
X14254Y-24872D01*
X14254Y-24902D01*
X14239Y-24947D01*
X14059Y-25127D01*
X14254Y-25127D01*
X14404Y-25127D02*
X14464Y-25127D01*
X14494Y-25112D01*
X14509Y-25097D01*
X14539Y-25052D01*
X14554Y-24992D01*
X14554Y-24872D01*
X14539Y-24842D01*
X14524Y-24827D01*
X14494Y-24812D01*
X14434Y-24812D01*
X14404Y-24827D01*
X14389Y-24842D01*
X14374Y-24872D01*
X14374Y-24947D01*
X14389Y-24977D01*
X14404Y-24992D01*
X14434Y-25007D01*
X14494Y-25007D01*
X14524Y-24992D01*
X14539Y-24977D01*
X14554Y-24947D01*
X14659Y-24812D02*
X14854Y-24812D01*
X14749Y-24932D01*
X14794Y-24932D01*
X14824Y-24947D01*
X14839Y-24962D01*
X14854Y-24992D01*
X14854Y-25067D01*
X14839Y-25097D01*
X14824Y-25112D01*
X14794Y-25127D01*
X14704Y-25127D01*
X14674Y-25112D01*
X14659Y-25097D01*
X15154Y-25127D02*
X14974Y-25127D01*
X15064Y-25127D02*
X15064Y-24812D01*
X15034Y-24857D01*
X15004Y-24887D01*
X14974Y-24902D01*
X24962Y-27865D02*
X24962Y-28184D01*
X24981Y-28221D01*
X25000Y-28240D01*
X25037Y-28259D01*
X25112Y-28259D01*
X25150Y-28240D01*
X25168Y-28221D01*
X25187Y-28184D01*
X25187Y-27865D01*
X25581Y-28259D02*
X25356Y-28259D01*
X25468Y-28259D02*
X25468Y-27865D01*
X25431Y-27921D01*
X25393Y-27959D01*
X25356Y-27978D01*
X25956Y-28259D02*
X25731Y-28259D01*
X25843Y-28259D02*
X25843Y-27865D01*
X25806Y-27921D01*
X25768Y-27959D01*
X25731Y-27978D01*
X24360Y-25227D02*
X24360Y-24912D01*
X24465Y-25137D01*
X24570Y-24912D01*
X24570Y-25227D01*
X24705Y-25137D02*
X24855Y-25137D01*
X24675Y-25227D02*
X24780Y-24912D01*
X24885Y-25227D01*
X24960Y-24912D02*
X25170Y-25227D01*
X25170Y-24912D02*
X24960Y-25227D01*
X25455Y-25227D02*
X25275Y-25227D01*
X25365Y-25227D02*
X25365Y-24912D01*
X25335Y-24957D01*
X25305Y-24987D01*
X25275Y-25002D01*
X25574Y-24942D02*
X25589Y-24927D01*
X25619Y-24912D01*
X25694Y-24912D01*
X25724Y-24927D01*
X25739Y-24942D01*
X25754Y-24972D01*
X25754Y-25002D01*
X25739Y-25047D01*
X25559Y-25227D01*
X25754Y-25227D01*
X25904Y-25227D02*
X25964Y-25227D01*
X25994Y-25212D01*
X26009Y-25197D01*
X26039Y-25152D01*
X26054Y-25092D01*
X26054Y-24972D01*
X26039Y-24942D01*
X26024Y-24927D01*
X25994Y-24912D01*
X25934Y-24912D01*
X25904Y-24927D01*
X25889Y-24942D01*
X25874Y-24972D01*
X25874Y-25047D01*
X25889Y-25077D01*
X25904Y-25092D01*
X25934Y-25107D01*
X25994Y-25107D01*
X26024Y-25092D01*
X26039Y-25077D01*
X26054Y-25047D01*
X26159Y-24912D02*
X26354Y-24912D01*
X26249Y-25032D01*
X26294Y-25032D01*
X26324Y-25047D01*
X26339Y-25062D01*
X26354Y-25092D01*
X26354Y-25167D01*
X26339Y-25197D01*
X26324Y-25212D01*
X26294Y-25227D01*
X26204Y-25227D01*
X26174Y-25212D01*
X26159Y-25197D01*
X26654Y-25227D02*
X26474Y-25227D01*
X26564Y-25227D02*
X26564Y-24912D01*
X26534Y-24957D01*
X26504Y-24987D01*
X26474Y-25002D01*
G54D16*
X17808Y-33717D02*
X17808Y-33919D01*
X17820Y-33943D01*
X17832Y-33955D01*
X17856Y-33967D01*
X17903Y-33967D01*
X17927Y-33955D01*
X17939Y-33943D01*
X17951Y-33919D01*
X17951Y-33717D01*
X18201Y-33967D02*
X18058Y-33967D01*
X18129Y-33967D02*
X18129Y-33717D01*
X18106Y-33752D01*
X18082Y-33776D01*
X18058Y-33788D01*
X18344Y-33824D02*
X18320Y-33812D01*
X18308Y-33800D01*
X18296Y-33776D01*
X18296Y-33764D01*
X18308Y-33741D01*
X18320Y-33729D01*
X18344Y-33717D01*
X18391Y-33717D01*
X18415Y-33729D01*
X18427Y-33741D01*
X18439Y-33764D01*
X18439Y-33776D01*
X18427Y-33800D01*
X18415Y-33812D01*
X18391Y-33824D01*
X18344Y-33824D01*
X18320Y-33836D01*
X18308Y-33848D01*
X18296Y-33871D01*
X18296Y-33919D01*
X18308Y-33943D01*
X18320Y-33955D01*
X18344Y-33967D01*
X18391Y-33967D01*
X18415Y-33955D01*
X18427Y-33943D01*
X18439Y-33919D01*
X18439Y-33871D01*
X18427Y-33848D01*
X18415Y-33836D01*
X18391Y-33824D01*
X16779Y-32089D02*
X16815Y-32101D01*
X16874Y-32101D01*
X16898Y-32089D01*
X16910Y-32077D01*
X16922Y-32053D01*
X16922Y-32029D01*
X16910Y-32005D01*
X16898Y-31994D01*
X16874Y-31982D01*
X16827Y-31970D01*
X16803Y-31958D01*
X16791Y-31946D01*
X16779Y-31922D01*
X16779Y-31898D01*
X16791Y-31875D01*
X16803Y-31863D01*
X16827Y-31851D01*
X16886Y-31851D01*
X16922Y-31863D01*
X17029Y-32101D02*
X17029Y-31851D01*
X17172Y-32101D01*
X17172Y-31851D01*
X17267Y-31851D02*
X17434Y-31851D01*
X17327Y-32101D01*
X17636Y-31934D02*
X17636Y-32101D01*
X17577Y-31839D02*
X17517Y-32017D01*
X17672Y-32017D01*
X17886Y-32101D02*
X17767Y-32101D01*
X17767Y-31851D01*
X17934Y-31851D02*
X18017Y-32101D01*
X18101Y-31851D01*
X18315Y-32101D02*
X18172Y-32101D01*
X18244Y-32101D02*
X18244Y-31851D01*
X18220Y-31886D01*
X18196Y-31910D01*
X18172Y-31922D01*
X18386Y-31851D02*
X18529Y-31851D01*
X18458Y-32101D02*
X18458Y-31851D01*
X18744Y-32101D02*
X18601Y-32101D01*
X18672Y-32101D02*
X18672Y-31851D01*
X18648Y-31886D01*
X18625Y-31910D01*
X18601Y-31922D01*
X18839Y-31875D02*
X18851Y-31863D01*
X18875Y-31851D01*
X18934Y-31851D01*
X18958Y-31863D01*
X18970Y-31875D01*
X18982Y-31898D01*
X18982Y-31922D01*
X18970Y-31958D01*
X18827Y-32101D01*
X18982Y-32101D01*
X19196Y-31851D02*
X19148Y-31851D01*
X19125Y-31863D01*
X19113Y-31875D01*
X19089Y-31910D01*
X19077Y-31958D01*
X19077Y-32053D01*
X19089Y-32077D01*
X19101Y-32089D01*
X19125Y-32101D01*
X19172Y-32101D01*
X19196Y-32089D01*
X19208Y-32077D01*
X19220Y-32053D01*
X19220Y-31994D01*
X19208Y-31970D01*
X19196Y-31958D01*
X19172Y-31946D01*
X19125Y-31946D01*
X19101Y-31958D01*
X19089Y-31970D01*
X19077Y-31994D01*
X9927Y-31217D02*
X9927Y-31419D01*
X9939Y-31443D01*
X9951Y-31455D01*
X9975Y-31467D01*
X10022Y-31467D01*
X10046Y-31455D01*
X10058Y-31443D01*
X10070Y-31419D01*
X10070Y-31217D01*
X10177Y-31241D02*
X10189Y-31229D01*
X10213Y-31217D01*
X10272Y-31217D01*
X10296Y-31229D01*
X10308Y-31241D01*
X10320Y-31264D01*
X10320Y-31288D01*
X10308Y-31324D01*
X10165Y-31467D01*
X10320Y-31467D01*
X8779Y-29589D02*
X8815Y-29601D01*
X8874Y-29601D01*
X8898Y-29589D01*
X8910Y-29577D01*
X8922Y-29553D01*
X8922Y-29529D01*
X8910Y-29505D01*
X8898Y-29494D01*
X8874Y-29482D01*
X8827Y-29470D01*
X8803Y-29458D01*
X8791Y-29446D01*
X8779Y-29422D01*
X8779Y-29398D01*
X8791Y-29375D01*
X8803Y-29363D01*
X8827Y-29351D01*
X8886Y-29351D01*
X8922Y-29363D01*
X9029Y-29601D02*
X9029Y-29351D01*
X9172Y-29601D01*
X9172Y-29351D01*
X9267Y-29351D02*
X9434Y-29351D01*
X9327Y-29601D01*
X9636Y-29434D02*
X9636Y-29601D01*
X9577Y-29339D02*
X9517Y-29517D01*
X9672Y-29517D01*
X9886Y-29601D02*
X9767Y-29601D01*
X9767Y-29351D01*
X9934Y-29351D02*
X10017Y-29601D01*
X10101Y-29351D01*
X10315Y-29601D02*
X10172Y-29601D01*
X10244Y-29601D02*
X10244Y-29351D01*
X10220Y-29386D01*
X10196Y-29410D01*
X10172Y-29422D01*
X10386Y-29351D02*
X10529Y-29351D01*
X10458Y-29601D02*
X10458Y-29351D01*
X10744Y-29601D02*
X10601Y-29601D01*
X10672Y-29601D02*
X10672Y-29351D01*
X10648Y-29386D01*
X10625Y-29410D01*
X10601Y-29422D01*
X10839Y-29375D02*
X10851Y-29363D01*
X10875Y-29351D01*
X10934Y-29351D01*
X10958Y-29363D01*
X10970Y-29375D01*
X10982Y-29398D01*
X10982Y-29422D01*
X10970Y-29458D01*
X10827Y-29601D01*
X10982Y-29601D01*
X11196Y-29351D02*
X11148Y-29351D01*
X11125Y-29363D01*
X11113Y-29375D01*
X11089Y-29410D01*
X11077Y-29458D01*
X11077Y-29553D01*
X11089Y-29577D01*
X11101Y-29589D01*
X11125Y-29601D01*
X11172Y-29601D01*
X11196Y-29589D01*
X11208Y-29577D01*
X11220Y-29553D01*
X11220Y-29494D01*
X11208Y-29470D01*
X11196Y-29458D01*
X11172Y-29446D01*
X11125Y-29446D01*
X11101Y-29458D01*
X11089Y-29470D01*
X11077Y-29494D01*
X9927Y-33717D02*
X9927Y-33919D01*
X9939Y-33943D01*
X9951Y-33955D01*
X9975Y-33967D01*
X10022Y-33967D01*
X10046Y-33955D01*
X10058Y-33943D01*
X10070Y-33919D01*
X10070Y-33717D01*
X10296Y-33717D02*
X10248Y-33717D01*
X10225Y-33729D01*
X10213Y-33741D01*
X10189Y-33776D01*
X10177Y-33824D01*
X10177Y-33919D01*
X10189Y-33943D01*
X10201Y-33955D01*
X10225Y-33967D01*
X10272Y-33967D01*
X10296Y-33955D01*
X10308Y-33943D01*
X10320Y-33919D01*
X10320Y-33860D01*
X10308Y-33836D01*
X10296Y-33824D01*
X10272Y-33812D01*
X10225Y-33812D01*
X10201Y-33824D01*
X10189Y-33836D01*
X10177Y-33860D01*
X8779Y-32089D02*
X8815Y-32101D01*
X8874Y-32101D01*
X8898Y-32089D01*
X8910Y-32077D01*
X8922Y-32053D01*
X8922Y-32029D01*
X8910Y-32005D01*
X8898Y-31994D01*
X8874Y-31982D01*
X8827Y-31970D01*
X8803Y-31958D01*
X8791Y-31946D01*
X8779Y-31922D01*
X8779Y-31898D01*
X8791Y-31875D01*
X8803Y-31863D01*
X8827Y-31851D01*
X8886Y-31851D01*
X8922Y-31863D01*
X9029Y-32101D02*
X9029Y-31851D01*
X9172Y-32101D01*
X9172Y-31851D01*
X9267Y-31851D02*
X9434Y-31851D01*
X9327Y-32101D01*
X9636Y-31934D02*
X9636Y-32101D01*
X9577Y-31839D02*
X9517Y-32017D01*
X9672Y-32017D01*
X9886Y-32101D02*
X9767Y-32101D01*
X9767Y-31851D01*
X9934Y-31851D02*
X10017Y-32101D01*
X10101Y-31851D01*
X10315Y-32101D02*
X10172Y-32101D01*
X10244Y-32101D02*
X10244Y-31851D01*
X10220Y-31886D01*
X10196Y-31910D01*
X10172Y-31922D01*
X10386Y-31851D02*
X10529Y-31851D01*
X10458Y-32101D02*
X10458Y-31851D01*
X10744Y-32101D02*
X10601Y-32101D01*
X10672Y-32101D02*
X10672Y-31851D01*
X10648Y-31886D01*
X10625Y-31910D01*
X10601Y-31922D01*
X10839Y-31875D02*
X10851Y-31863D01*
X10875Y-31851D01*
X10934Y-31851D01*
X10958Y-31863D01*
X10970Y-31875D01*
X10982Y-31898D01*
X10982Y-31922D01*
X10970Y-31958D01*
X10827Y-32101D01*
X10982Y-32101D01*
X11196Y-31851D02*
X11148Y-31851D01*
X11125Y-31863D01*
X11113Y-31875D01*
X11089Y-31910D01*
X11077Y-31958D01*
X11077Y-32053D01*
X11089Y-32077D01*
X11101Y-32089D01*
X11125Y-32101D01*
X11172Y-32101D01*
X11196Y-32089D01*
X11208Y-32077D01*
X11220Y-32053D01*
X11220Y-31994D01*
X11208Y-31970D01*
X11196Y-31958D01*
X11172Y-31946D01*
X11125Y-31946D01*
X11101Y-31958D01*
X11089Y-31970D01*
X11077Y-31994D01*
X17808Y-25717D02*
X17808Y-25919D01*
X17820Y-25943D01*
X17832Y-25955D01*
X17856Y-25967D01*
X17903Y-25967D01*
X17927Y-25955D01*
X17939Y-25943D01*
X17951Y-25919D01*
X17951Y-25717D01*
X18201Y-25967D02*
X18058Y-25967D01*
X18129Y-25967D02*
X18129Y-25717D01*
X18106Y-25752D01*
X18082Y-25776D01*
X18058Y-25788D01*
X18284Y-25717D02*
X18439Y-25717D01*
X18356Y-25812D01*
X18391Y-25812D01*
X18415Y-25824D01*
X18427Y-25836D01*
X18439Y-25860D01*
X18439Y-25919D01*
X18427Y-25943D01*
X18415Y-25955D01*
X18391Y-25967D01*
X18320Y-25967D01*
X18296Y-25955D01*
X18284Y-25943D01*
X16779Y-24089D02*
X16815Y-24101D01*
X16874Y-24101D01*
X16898Y-24089D01*
X16910Y-24077D01*
X16922Y-24053D01*
X16922Y-24029D01*
X16910Y-24005D01*
X16898Y-23994D01*
X16874Y-23982D01*
X16827Y-23970D01*
X16803Y-23958D01*
X16791Y-23946D01*
X16779Y-23922D01*
X16779Y-23898D01*
X16791Y-23875D01*
X16803Y-23863D01*
X16827Y-23851D01*
X16886Y-23851D01*
X16922Y-23863D01*
X17029Y-24101D02*
X17029Y-23851D01*
X17172Y-24101D01*
X17172Y-23851D01*
X17267Y-23851D02*
X17434Y-23851D01*
X17327Y-24101D01*
X17636Y-23934D02*
X17636Y-24101D01*
X17577Y-23839D02*
X17517Y-24017D01*
X17672Y-24017D01*
X17886Y-24101D02*
X17767Y-24101D01*
X17767Y-23851D01*
X17934Y-23851D02*
X18017Y-24101D01*
X18101Y-23851D01*
X18315Y-24101D02*
X18172Y-24101D01*
X18244Y-24101D02*
X18244Y-23851D01*
X18220Y-23886D01*
X18196Y-23910D01*
X18172Y-23922D01*
X18386Y-23851D02*
X18529Y-23851D01*
X18458Y-24101D02*
X18458Y-23851D01*
X18744Y-24101D02*
X18601Y-24101D01*
X18672Y-24101D02*
X18672Y-23851D01*
X18648Y-23886D01*
X18625Y-23910D01*
X18601Y-23922D01*
X18839Y-23875D02*
X18851Y-23863D01*
X18875Y-23851D01*
X18934Y-23851D01*
X18958Y-23863D01*
X18970Y-23875D01*
X18982Y-23898D01*
X18982Y-23922D01*
X18970Y-23958D01*
X18827Y-24101D01*
X18982Y-24101D01*
X19196Y-23851D02*
X19148Y-23851D01*
X19125Y-23863D01*
X19113Y-23875D01*
X19089Y-23910D01*
X19077Y-23958D01*
X19077Y-24053D01*
X19089Y-24077D01*
X19101Y-24089D01*
X19125Y-24101D01*
X19172Y-24101D01*
X19196Y-24089D01*
X19208Y-24077D01*
X19220Y-24053D01*
X19220Y-23994D01*
X19208Y-23970D01*
X19196Y-23958D01*
X19172Y-23946D01*
X19125Y-23946D01*
X19101Y-23958D01*
X19089Y-23970D01*
X19077Y-23994D01*
X17808Y-28217D02*
X17808Y-28419D01*
X17820Y-28443D01*
X17832Y-28455D01*
X17856Y-28467D01*
X17903Y-28467D01*
X17927Y-28455D01*
X17939Y-28443D01*
X17951Y-28419D01*
X17951Y-28217D01*
X18201Y-28467D02*
X18058Y-28467D01*
X18129Y-28467D02*
X18129Y-28217D01*
X18106Y-28252D01*
X18082Y-28276D01*
X18058Y-28288D01*
X18284Y-28217D02*
X18451Y-28217D01*
X18344Y-28467D01*
X16779Y-26589D02*
X16815Y-26601D01*
X16874Y-26601D01*
X16898Y-26589D01*
X16910Y-26577D01*
X16922Y-26553D01*
X16922Y-26529D01*
X16910Y-26505D01*
X16898Y-26494D01*
X16874Y-26482D01*
X16827Y-26470D01*
X16803Y-26458D01*
X16791Y-26446D01*
X16779Y-26422D01*
X16779Y-26398D01*
X16791Y-26375D01*
X16803Y-26363D01*
X16827Y-26351D01*
X16886Y-26351D01*
X16922Y-26363D01*
X17029Y-26601D02*
X17029Y-26351D01*
X17172Y-26601D01*
X17172Y-26351D01*
X17267Y-26351D02*
X17434Y-26351D01*
X17327Y-26601D01*
X17636Y-26434D02*
X17636Y-26601D01*
X17577Y-26339D02*
X17517Y-26517D01*
X17672Y-26517D01*
X17886Y-26601D02*
X17767Y-26601D01*
X17767Y-26351D01*
X17934Y-26351D02*
X18017Y-26601D01*
X18101Y-26351D01*
X18315Y-26601D02*
X18172Y-26601D01*
X18244Y-26601D02*
X18244Y-26351D01*
X18220Y-26386D01*
X18196Y-26410D01*
X18172Y-26422D01*
X18386Y-26351D02*
X18529Y-26351D01*
X18458Y-26601D02*
X18458Y-26351D01*
X18744Y-26601D02*
X18601Y-26601D01*
X18672Y-26601D02*
X18672Y-26351D01*
X18648Y-26386D01*
X18625Y-26410D01*
X18601Y-26422D01*
X18839Y-26375D02*
X18851Y-26363D01*
X18875Y-26351D01*
X18934Y-26351D01*
X18958Y-26363D01*
X18970Y-26375D01*
X18982Y-26398D01*
X18982Y-26422D01*
X18970Y-26458D01*
X18827Y-26601D01*
X18982Y-26601D01*
X19196Y-26351D02*
X19148Y-26351D01*
X19125Y-26363D01*
X19113Y-26375D01*
X19089Y-26410D01*
X19077Y-26458D01*
X19077Y-26553D01*
X19089Y-26577D01*
X19101Y-26589D01*
X19125Y-26601D01*
X19172Y-26601D01*
X19196Y-26589D01*
X19208Y-26577D01*
X19220Y-26553D01*
X19220Y-26494D01*
X19208Y-26470D01*
X19196Y-26458D01*
X19172Y-26446D01*
X19125Y-26446D01*
X19101Y-26458D01*
X19089Y-26470D01*
X19077Y-26494D01*
X9927Y-28217D02*
X9927Y-28419D01*
X9939Y-28443D01*
X9951Y-28455D01*
X9975Y-28467D01*
X10022Y-28467D01*
X10046Y-28455D01*
X10058Y-28443D01*
X10070Y-28419D01*
X10070Y-28217D01*
X10308Y-28217D02*
X10189Y-28217D01*
X10177Y-28336D01*
X10189Y-28324D01*
X10213Y-28312D01*
X10272Y-28312D01*
X10296Y-28324D01*
X10308Y-28336D01*
X10320Y-28360D01*
X10320Y-28419D01*
X10308Y-28443D01*
X10296Y-28455D01*
X10272Y-28467D01*
X10213Y-28467D01*
X10189Y-28455D01*
X10177Y-28443D01*
X8779Y-26589D02*
X8815Y-26601D01*
X8874Y-26601D01*
X8898Y-26589D01*
X8910Y-26577D01*
X8922Y-26553D01*
X8922Y-26529D01*
X8910Y-26505D01*
X8898Y-26494D01*
X8874Y-26482D01*
X8827Y-26470D01*
X8803Y-26458D01*
X8791Y-26446D01*
X8779Y-26422D01*
X8779Y-26398D01*
X8791Y-26375D01*
X8803Y-26363D01*
X8827Y-26351D01*
X8886Y-26351D01*
X8922Y-26363D01*
X9029Y-26601D02*
X9029Y-26351D01*
X9172Y-26601D01*
X9172Y-26351D01*
X9267Y-26351D02*
X9434Y-26351D01*
X9327Y-26601D01*
X9636Y-26434D02*
X9636Y-26601D01*
X9577Y-26339D02*
X9517Y-26517D01*
X9672Y-26517D01*
X9886Y-26601D02*
X9767Y-26601D01*
X9767Y-26351D01*
X9934Y-26351D02*
X10017Y-26601D01*
X10101Y-26351D01*
X10315Y-26601D02*
X10172Y-26601D01*
X10244Y-26601D02*
X10244Y-26351D01*
X10220Y-26386D01*
X10196Y-26410D01*
X10172Y-26422D01*
X10386Y-26351D02*
X10529Y-26351D01*
X10458Y-26601D02*
X10458Y-26351D01*
X10744Y-26601D02*
X10601Y-26601D01*
X10672Y-26601D02*
X10672Y-26351D01*
X10648Y-26386D01*
X10625Y-26410D01*
X10601Y-26422D01*
X10839Y-26375D02*
X10851Y-26363D01*
X10875Y-26351D01*
X10934Y-26351D01*
X10958Y-26363D01*
X10970Y-26375D01*
X10982Y-26398D01*
X10982Y-26422D01*
X10970Y-26458D01*
X10827Y-26601D01*
X10982Y-26601D01*
X11196Y-26351D02*
X11148Y-26351D01*
X11125Y-26363D01*
X11113Y-26375D01*
X11089Y-26410D01*
X11077Y-26458D01*
X11077Y-26553D01*
X11089Y-26577D01*
X11101Y-26589D01*
X11125Y-26601D01*
X11172Y-26601D01*
X11196Y-26589D01*
X11208Y-26577D01*
X11220Y-26553D01*
X11220Y-26494D01*
X11208Y-26470D01*
X11196Y-26458D01*
X11172Y-26446D01*
X11125Y-26446D01*
X11101Y-26458D01*
X11089Y-26470D01*
X11077Y-26494D01*
X17808Y-31217D02*
X17808Y-31419D01*
X17820Y-31443D01*
X17832Y-31455D01*
X17856Y-31467D01*
X17903Y-31467D01*
X17927Y-31455D01*
X17939Y-31443D01*
X17951Y-31419D01*
X17951Y-31217D01*
X18201Y-31467D02*
X18058Y-31467D01*
X18129Y-31467D02*
X18129Y-31217D01*
X18106Y-31252D01*
X18082Y-31276D01*
X18058Y-31288D01*
X18415Y-31300D02*
X18415Y-31467D01*
X18356Y-31205D02*
X18296Y-31383D01*
X18451Y-31383D01*
X16779Y-29589D02*
X16815Y-29601D01*
X16874Y-29601D01*
X16898Y-29589D01*
X16910Y-29577D01*
X16922Y-29553D01*
X16922Y-29529D01*
X16910Y-29505D01*
X16898Y-29494D01*
X16874Y-29482D01*
X16827Y-29470D01*
X16803Y-29458D01*
X16791Y-29446D01*
X16779Y-29422D01*
X16779Y-29398D01*
X16791Y-29375D01*
X16803Y-29363D01*
X16827Y-29351D01*
X16886Y-29351D01*
X16922Y-29363D01*
X17029Y-29601D02*
X17029Y-29351D01*
X17172Y-29601D01*
X17172Y-29351D01*
X17267Y-29351D02*
X17434Y-29351D01*
X17327Y-29601D01*
X17636Y-29434D02*
X17636Y-29601D01*
X17577Y-29339D02*
X17517Y-29517D01*
X17672Y-29517D01*
X17886Y-29601D02*
X17767Y-29601D01*
X17767Y-29351D01*
X17934Y-29351D02*
X18017Y-29601D01*
X18101Y-29351D01*
X18315Y-29601D02*
X18172Y-29601D01*
X18244Y-29601D02*
X18244Y-29351D01*
X18220Y-29386D01*
X18196Y-29410D01*
X18172Y-29422D01*
X18386Y-29351D02*
X18529Y-29351D01*
X18458Y-29601D02*
X18458Y-29351D01*
X18744Y-29601D02*
X18601Y-29601D01*
X18672Y-29601D02*
X18672Y-29351D01*
X18648Y-29386D01*
X18625Y-29410D01*
X18601Y-29422D01*
X18839Y-29375D02*
X18851Y-29363D01*
X18875Y-29351D01*
X18934Y-29351D01*
X18958Y-29363D01*
X18970Y-29375D01*
X18982Y-29398D01*
X18982Y-29422D01*
X18970Y-29458D01*
X18827Y-29601D01*
X18982Y-29601D01*
X19196Y-29351D02*
X19148Y-29351D01*
X19125Y-29363D01*
X19113Y-29375D01*
X19089Y-29410D01*
X19077Y-29458D01*
X19077Y-29553D01*
X19089Y-29577D01*
X19101Y-29589D01*
X19125Y-29601D01*
X19172Y-29601D01*
X19196Y-29589D01*
X19208Y-29577D01*
X19220Y-29553D01*
X19220Y-29494D01*
X19208Y-29470D01*
X19196Y-29458D01*
X19172Y-29446D01*
X19125Y-29446D01*
X19101Y-29458D01*
X19089Y-29470D01*
X19077Y-29494D01*
X21427Y-28217D02*
X21427Y-28419D01*
X21439Y-28443D01*
X21451Y-28455D01*
X21475Y-28467D01*
X21522Y-28467D01*
X21546Y-28455D01*
X21558Y-28443D01*
X21570Y-28419D01*
X21570Y-28217D01*
X21665Y-28217D02*
X21832Y-28217D01*
X21725Y-28467D01*
X20279Y-26589D02*
X20315Y-26601D01*
X20374Y-26601D01*
X20398Y-26589D01*
X20410Y-26577D01*
X20422Y-26553D01*
X20422Y-26529D01*
X20410Y-26505D01*
X20398Y-26494D01*
X20374Y-26482D01*
X20327Y-26470D01*
X20303Y-26458D01*
X20291Y-26446D01*
X20279Y-26422D01*
X20279Y-26398D01*
X20291Y-26375D01*
X20303Y-26363D01*
X20327Y-26351D01*
X20386Y-26351D01*
X20422Y-26363D01*
X20529Y-26601D02*
X20529Y-26351D01*
X20672Y-26601D01*
X20672Y-26351D01*
X20767Y-26351D02*
X20934Y-26351D01*
X20827Y-26601D01*
X21136Y-26434D02*
X21136Y-26601D01*
X21077Y-26339D02*
X21017Y-26517D01*
X21172Y-26517D01*
X21386Y-26601D02*
X21267Y-26601D01*
X21267Y-26351D01*
X21434Y-26351D02*
X21517Y-26601D01*
X21601Y-26351D01*
X21815Y-26601D02*
X21672Y-26601D01*
X21744Y-26601D02*
X21744Y-26351D01*
X21720Y-26386D01*
X21696Y-26410D01*
X21672Y-26422D01*
X21886Y-26351D02*
X22029Y-26351D01*
X21958Y-26601D02*
X21958Y-26351D01*
X22244Y-26601D02*
X22101Y-26601D01*
X22172Y-26601D02*
X22172Y-26351D01*
X22148Y-26386D01*
X22125Y-26410D01*
X22101Y-26422D01*
X22339Y-26375D02*
X22351Y-26363D01*
X22375Y-26351D01*
X22434Y-26351D01*
X22458Y-26363D01*
X22470Y-26375D01*
X22482Y-26398D01*
X22482Y-26422D01*
X22470Y-26458D01*
X22327Y-26601D01*
X22482Y-26601D01*
X22696Y-26351D02*
X22648Y-26351D01*
X22625Y-26363D01*
X22613Y-26375D01*
X22589Y-26410D01*
X22577Y-26458D01*
X22577Y-26553D01*
X22589Y-26577D01*
X22601Y-26589D01*
X22625Y-26601D01*
X22672Y-26601D01*
X22696Y-26589D01*
X22708Y-26577D01*
X22720Y-26553D01*
X22720Y-26494D01*
X22708Y-26470D01*
X22696Y-26458D01*
X22672Y-26446D01*
X22625Y-26446D01*
X22601Y-26458D01*
X22589Y-26470D01*
X22577Y-26494D01*
X21427Y-25717D02*
X21427Y-25919D01*
X21439Y-25943D01*
X21451Y-25955D01*
X21475Y-25967D01*
X21522Y-25967D01*
X21546Y-25955D01*
X21558Y-25943D01*
X21570Y-25919D01*
X21570Y-25717D01*
X21665Y-25717D02*
X21820Y-25717D01*
X21737Y-25812D01*
X21772Y-25812D01*
X21796Y-25824D01*
X21808Y-25836D01*
X21820Y-25860D01*
X21820Y-25919D01*
X21808Y-25943D01*
X21796Y-25955D01*
X21772Y-25967D01*
X21701Y-25967D01*
X21677Y-25955D01*
X21665Y-25943D01*
X20279Y-24089D02*
X20315Y-24101D01*
X20374Y-24101D01*
X20398Y-24089D01*
X20410Y-24077D01*
X20422Y-24053D01*
X20422Y-24029D01*
X20410Y-24005D01*
X20398Y-23994D01*
X20374Y-23982D01*
X20327Y-23970D01*
X20303Y-23958D01*
X20291Y-23946D01*
X20279Y-23922D01*
X20279Y-23898D01*
X20291Y-23875D01*
X20303Y-23863D01*
X20327Y-23851D01*
X20386Y-23851D01*
X20422Y-23863D01*
X20529Y-24101D02*
X20529Y-23851D01*
X20672Y-24101D01*
X20672Y-23851D01*
X20767Y-23851D02*
X20934Y-23851D01*
X20827Y-24101D01*
X21136Y-23934D02*
X21136Y-24101D01*
X21077Y-23839D02*
X21017Y-24017D01*
X21172Y-24017D01*
X21386Y-24101D02*
X21267Y-24101D01*
X21267Y-23851D01*
X21434Y-23851D02*
X21517Y-24101D01*
X21601Y-23851D01*
X21815Y-24101D02*
X21672Y-24101D01*
X21744Y-24101D02*
X21744Y-23851D01*
X21720Y-23886D01*
X21696Y-23910D01*
X21672Y-23922D01*
X21886Y-23851D02*
X22029Y-23851D01*
X21958Y-24101D02*
X21958Y-23851D01*
X22244Y-24101D02*
X22101Y-24101D01*
X22172Y-24101D02*
X22172Y-23851D01*
X22148Y-23886D01*
X22125Y-23910D01*
X22101Y-23922D01*
X22339Y-23875D02*
X22351Y-23863D01*
X22375Y-23851D01*
X22434Y-23851D01*
X22458Y-23863D01*
X22470Y-23875D01*
X22482Y-23898D01*
X22482Y-23922D01*
X22470Y-23958D01*
X22327Y-24101D01*
X22482Y-24101D01*
X22696Y-23851D02*
X22648Y-23851D01*
X22625Y-23863D01*
X22613Y-23875D01*
X22589Y-23910D01*
X22577Y-23958D01*
X22577Y-24053D01*
X22589Y-24077D01*
X22601Y-24089D01*
X22625Y-24101D01*
X22672Y-24101D01*
X22696Y-24089D01*
X22708Y-24077D01*
X22720Y-24053D01*
X22720Y-23994D01*
X22708Y-23970D01*
X22696Y-23958D01*
X22672Y-23946D01*
X22625Y-23946D01*
X22601Y-23958D01*
X22589Y-23970D01*
X22577Y-23994D01*
X29308Y-28217D02*
X29308Y-28419D01*
X29320Y-28443D01*
X29332Y-28455D01*
X29356Y-28467D01*
X29403Y-28467D01*
X29427Y-28455D01*
X29439Y-28443D01*
X29451Y-28419D01*
X29451Y-28217D01*
X29701Y-28467D02*
X29558Y-28467D01*
X29629Y-28467D02*
X29629Y-28217D01*
X29606Y-28252D01*
X29582Y-28276D01*
X29558Y-28288D01*
X29820Y-28467D02*
X29868Y-28467D01*
X29891Y-28455D01*
X29903Y-28443D01*
X29927Y-28407D01*
X29939Y-28360D01*
X29939Y-28264D01*
X29927Y-28241D01*
X29915Y-28229D01*
X29891Y-28217D01*
X29844Y-28217D01*
X29820Y-28229D01*
X29808Y-28241D01*
X29796Y-28264D01*
X29796Y-28324D01*
X29808Y-28348D01*
X29820Y-28360D01*
X29844Y-28371D01*
X29891Y-28371D01*
X29915Y-28360D01*
X29927Y-28348D01*
X29939Y-28324D01*
X28279Y-26589D02*
X28315Y-26601D01*
X28374Y-26601D01*
X28398Y-26589D01*
X28410Y-26577D01*
X28422Y-26553D01*
X28422Y-26529D01*
X28410Y-26505D01*
X28398Y-26494D01*
X28374Y-26482D01*
X28327Y-26470D01*
X28303Y-26458D01*
X28291Y-26446D01*
X28279Y-26422D01*
X28279Y-26398D01*
X28291Y-26375D01*
X28303Y-26363D01*
X28327Y-26351D01*
X28386Y-26351D01*
X28422Y-26363D01*
X28529Y-26601D02*
X28529Y-26351D01*
X28672Y-26601D01*
X28672Y-26351D01*
X28767Y-26351D02*
X28934Y-26351D01*
X28827Y-26601D01*
X29136Y-26434D02*
X29136Y-26601D01*
X29077Y-26339D02*
X29017Y-26517D01*
X29172Y-26517D01*
X29386Y-26601D02*
X29267Y-26601D01*
X29267Y-26351D01*
X29434Y-26351D02*
X29517Y-26601D01*
X29601Y-26351D01*
X29815Y-26601D02*
X29672Y-26601D01*
X29744Y-26601D02*
X29744Y-26351D01*
X29720Y-26386D01*
X29696Y-26410D01*
X29672Y-26422D01*
X29886Y-26351D02*
X30029Y-26351D01*
X29958Y-26601D02*
X29958Y-26351D01*
X30244Y-26601D02*
X30101Y-26601D01*
X30172Y-26601D02*
X30172Y-26351D01*
X30148Y-26386D01*
X30125Y-26410D01*
X30101Y-26422D01*
X30339Y-26375D02*
X30351Y-26363D01*
X30375Y-26351D01*
X30434Y-26351D01*
X30458Y-26363D01*
X30470Y-26375D01*
X30482Y-26398D01*
X30482Y-26422D01*
X30470Y-26458D01*
X30327Y-26601D01*
X30482Y-26601D01*
X30696Y-26351D02*
X30648Y-26351D01*
X30625Y-26363D01*
X30613Y-26375D01*
X30589Y-26410D01*
X30577Y-26458D01*
X30577Y-26553D01*
X30589Y-26577D01*
X30601Y-26589D01*
X30625Y-26601D01*
X30672Y-26601D01*
X30696Y-26589D01*
X30708Y-26577D01*
X30720Y-26553D01*
X30720Y-26494D01*
X30708Y-26470D01*
X30696Y-26458D01*
X30672Y-26446D01*
X30625Y-26446D01*
X30601Y-26458D01*
X30589Y-26470D01*
X30577Y-26494D01*
X29308Y-25717D02*
X29308Y-25919D01*
X29320Y-25943D01*
X29332Y-25955D01*
X29356Y-25967D01*
X29403Y-25967D01*
X29427Y-25955D01*
X29439Y-25943D01*
X29451Y-25919D01*
X29451Y-25717D01*
X29701Y-25967D02*
X29558Y-25967D01*
X29629Y-25967D02*
X29629Y-25717D01*
X29606Y-25752D01*
X29582Y-25776D01*
X29558Y-25788D01*
X29927Y-25717D02*
X29808Y-25717D01*
X29796Y-25836D01*
X29808Y-25824D01*
X29832Y-25812D01*
X29891Y-25812D01*
X29915Y-25824D01*
X29927Y-25836D01*
X29939Y-25860D01*
X29939Y-25919D01*
X29927Y-25943D01*
X29915Y-25955D01*
X29891Y-25967D01*
X29832Y-25967D01*
X29808Y-25955D01*
X29796Y-25943D01*
X28279Y-24089D02*
X28315Y-24101D01*
X28374Y-24101D01*
X28398Y-24089D01*
X28410Y-24077D01*
X28422Y-24053D01*
X28422Y-24029D01*
X28410Y-24005D01*
X28398Y-23994D01*
X28374Y-23982D01*
X28327Y-23970D01*
X28303Y-23958D01*
X28291Y-23946D01*
X28279Y-23922D01*
X28279Y-23898D01*
X28291Y-23875D01*
X28303Y-23863D01*
X28327Y-23851D01*
X28386Y-23851D01*
X28422Y-23863D01*
X28529Y-24101D02*
X28529Y-23851D01*
X28672Y-24101D01*
X28672Y-23851D01*
X28767Y-23851D02*
X28934Y-23851D01*
X28827Y-24101D01*
X29136Y-23934D02*
X29136Y-24101D01*
X29077Y-23839D02*
X29017Y-24017D01*
X29172Y-24017D01*
X29386Y-24101D02*
X29267Y-24101D01*
X29267Y-23851D01*
X29434Y-23851D02*
X29517Y-24101D01*
X29601Y-23851D01*
X29815Y-24101D02*
X29672Y-24101D01*
X29744Y-24101D02*
X29744Y-23851D01*
X29720Y-23886D01*
X29696Y-23910D01*
X29672Y-23922D01*
X29886Y-23851D02*
X30029Y-23851D01*
X29958Y-24101D02*
X29958Y-23851D01*
X30244Y-24101D02*
X30101Y-24101D01*
X30172Y-24101D02*
X30172Y-23851D01*
X30148Y-23886D01*
X30125Y-23910D01*
X30101Y-23922D01*
X30339Y-23875D02*
X30351Y-23863D01*
X30375Y-23851D01*
X30434Y-23851D01*
X30458Y-23863D01*
X30470Y-23875D01*
X30482Y-23898D01*
X30482Y-23922D01*
X30470Y-23958D01*
X30327Y-24101D01*
X30482Y-24101D01*
X30696Y-23851D02*
X30648Y-23851D01*
X30625Y-23863D01*
X30613Y-23875D01*
X30589Y-23910D01*
X30577Y-23958D01*
X30577Y-24053D01*
X30589Y-24077D01*
X30601Y-24089D01*
X30625Y-24101D01*
X30672Y-24101D01*
X30696Y-24089D01*
X30708Y-24077D01*
X30720Y-24053D01*
X30720Y-23994D01*
X30708Y-23970D01*
X30696Y-23958D01*
X30672Y-23946D01*
X30625Y-23946D01*
X30601Y-23958D01*
X30589Y-23970D01*
X30577Y-23994D01*
X21427Y-33717D02*
X21427Y-33919D01*
X21439Y-33943D01*
X21451Y-33955D01*
X21475Y-33967D01*
X21522Y-33967D01*
X21546Y-33955D01*
X21558Y-33943D01*
X21570Y-33919D01*
X21570Y-33717D01*
X21725Y-33824D02*
X21701Y-33812D01*
X21689Y-33800D01*
X21677Y-33776D01*
X21677Y-33764D01*
X21689Y-33741D01*
X21701Y-33729D01*
X21725Y-33717D01*
X21772Y-33717D01*
X21796Y-33729D01*
X21808Y-33741D01*
X21820Y-33764D01*
X21820Y-33776D01*
X21808Y-33800D01*
X21796Y-33812D01*
X21772Y-33824D01*
X21725Y-33824D01*
X21701Y-33836D01*
X21689Y-33848D01*
X21677Y-33871D01*
X21677Y-33919D01*
X21689Y-33943D01*
X21701Y-33955D01*
X21725Y-33967D01*
X21772Y-33967D01*
X21796Y-33955D01*
X21808Y-33943D01*
X21820Y-33919D01*
X21820Y-33871D01*
X21808Y-33848D01*
X21796Y-33836D01*
X21772Y-33824D01*
X20279Y-32089D02*
X20315Y-32101D01*
X20374Y-32101D01*
X20398Y-32089D01*
X20410Y-32077D01*
X20422Y-32053D01*
X20422Y-32029D01*
X20410Y-32005D01*
X20398Y-31994D01*
X20374Y-31982D01*
X20327Y-31970D01*
X20303Y-31958D01*
X20291Y-31946D01*
X20279Y-31922D01*
X20279Y-31898D01*
X20291Y-31875D01*
X20303Y-31863D01*
X20327Y-31851D01*
X20386Y-31851D01*
X20422Y-31863D01*
X20529Y-32101D02*
X20529Y-31851D01*
X20672Y-32101D01*
X20672Y-31851D01*
X20767Y-31851D02*
X20934Y-31851D01*
X20827Y-32101D01*
X21136Y-31934D02*
X21136Y-32101D01*
X21077Y-31839D02*
X21017Y-32017D01*
X21172Y-32017D01*
X21386Y-32101D02*
X21267Y-32101D01*
X21267Y-31851D01*
X21434Y-31851D02*
X21517Y-32101D01*
X21601Y-31851D01*
X21815Y-32101D02*
X21672Y-32101D01*
X21744Y-32101D02*
X21744Y-31851D01*
X21720Y-31886D01*
X21696Y-31910D01*
X21672Y-31922D01*
X21886Y-31851D02*
X22029Y-31851D01*
X21958Y-32101D02*
X21958Y-31851D01*
X22244Y-32101D02*
X22101Y-32101D01*
X22172Y-32101D02*
X22172Y-31851D01*
X22148Y-31886D01*
X22125Y-31910D01*
X22101Y-31922D01*
X22339Y-31875D02*
X22351Y-31863D01*
X22375Y-31851D01*
X22434Y-31851D01*
X22458Y-31863D01*
X22470Y-31875D01*
X22482Y-31898D01*
X22482Y-31922D01*
X22470Y-31958D01*
X22327Y-32101D01*
X22482Y-32101D01*
X22696Y-31851D02*
X22648Y-31851D01*
X22625Y-31863D01*
X22613Y-31875D01*
X22589Y-31910D01*
X22577Y-31958D01*
X22577Y-32053D01*
X22589Y-32077D01*
X22601Y-32089D01*
X22625Y-32101D01*
X22672Y-32101D01*
X22696Y-32089D01*
X22708Y-32077D01*
X22720Y-32053D01*
X22720Y-31994D01*
X22708Y-31970D01*
X22696Y-31958D01*
X22672Y-31946D01*
X22625Y-31946D01*
X22601Y-31958D01*
X22589Y-31970D01*
X22577Y-31994D01*
X21427Y-31217D02*
X21427Y-31419D01*
X21439Y-31443D01*
X21451Y-31455D01*
X21475Y-31467D01*
X21522Y-31467D01*
X21546Y-31455D01*
X21558Y-31443D01*
X21570Y-31419D01*
X21570Y-31217D01*
X21796Y-31300D02*
X21796Y-31467D01*
X21737Y-31205D02*
X21677Y-31383D01*
X21832Y-31383D01*
X20279Y-29589D02*
X20315Y-29601D01*
X20374Y-29601D01*
X20398Y-29589D01*
X20410Y-29577D01*
X20422Y-29553D01*
X20422Y-29529D01*
X20410Y-29505D01*
X20398Y-29494D01*
X20374Y-29482D01*
X20327Y-29470D01*
X20303Y-29458D01*
X20291Y-29446D01*
X20279Y-29422D01*
X20279Y-29398D01*
X20291Y-29375D01*
X20303Y-29363D01*
X20327Y-29351D01*
X20386Y-29351D01*
X20422Y-29363D01*
X20529Y-29601D02*
X20529Y-29351D01*
X20672Y-29601D01*
X20672Y-29351D01*
X20767Y-29351D02*
X20934Y-29351D01*
X20827Y-29601D01*
X21136Y-29434D02*
X21136Y-29601D01*
X21077Y-29339D02*
X21017Y-29517D01*
X21172Y-29517D01*
X21386Y-29601D02*
X21267Y-29601D01*
X21267Y-29351D01*
X21434Y-29351D02*
X21517Y-29601D01*
X21601Y-29351D01*
X21815Y-29601D02*
X21672Y-29601D01*
X21744Y-29601D02*
X21744Y-29351D01*
X21720Y-29386D01*
X21696Y-29410D01*
X21672Y-29422D01*
X21886Y-29351D02*
X22029Y-29351D01*
X21958Y-29601D02*
X21958Y-29351D01*
X22244Y-29601D02*
X22101Y-29601D01*
X22172Y-29601D02*
X22172Y-29351D01*
X22148Y-29386D01*
X22125Y-29410D01*
X22101Y-29422D01*
X22339Y-29375D02*
X22351Y-29363D01*
X22375Y-29351D01*
X22434Y-29351D01*
X22458Y-29363D01*
X22470Y-29375D01*
X22482Y-29398D01*
X22482Y-29422D01*
X22470Y-29458D01*
X22327Y-29601D01*
X22482Y-29601D01*
X22696Y-29351D02*
X22648Y-29351D01*
X22625Y-29363D01*
X22613Y-29375D01*
X22589Y-29410D01*
X22577Y-29458D01*
X22577Y-29553D01*
X22589Y-29577D01*
X22601Y-29589D01*
X22625Y-29601D01*
X22672Y-29601D01*
X22696Y-29589D01*
X22708Y-29577D01*
X22720Y-29553D01*
X22720Y-29494D01*
X22708Y-29470D01*
X22696Y-29458D01*
X22672Y-29446D01*
X22625Y-29446D01*
X22601Y-29458D01*
X22589Y-29470D01*
X22577Y-29494D01*
X29308Y-33717D02*
X29308Y-33919D01*
X29320Y-33943D01*
X29332Y-33955D01*
X29356Y-33967D01*
X29403Y-33967D01*
X29427Y-33955D01*
X29439Y-33943D01*
X29451Y-33919D01*
X29451Y-33717D01*
X29558Y-33741D02*
X29570Y-33729D01*
X29594Y-33717D01*
X29653Y-33717D01*
X29677Y-33729D01*
X29689Y-33741D01*
X29701Y-33764D01*
X29701Y-33788D01*
X29689Y-33824D01*
X29546Y-33967D01*
X29701Y-33967D01*
X29856Y-33717D02*
X29879Y-33717D01*
X29903Y-33729D01*
X29915Y-33741D01*
X29927Y-33764D01*
X29939Y-33812D01*
X29939Y-33871D01*
X29927Y-33919D01*
X29915Y-33943D01*
X29903Y-33955D01*
X29879Y-33967D01*
X29856Y-33967D01*
X29832Y-33955D01*
X29820Y-33943D01*
X29808Y-33919D01*
X29796Y-33871D01*
X29796Y-33812D01*
X29808Y-33764D01*
X29820Y-33741D01*
X29832Y-33729D01*
X29856Y-33717D01*
X28279Y-32089D02*
X28315Y-32101D01*
X28374Y-32101D01*
X28398Y-32089D01*
X28410Y-32077D01*
X28422Y-32053D01*
X28422Y-32029D01*
X28410Y-32005D01*
X28398Y-31994D01*
X28374Y-31982D01*
X28327Y-31970D01*
X28303Y-31958D01*
X28291Y-31946D01*
X28279Y-31922D01*
X28279Y-31898D01*
X28291Y-31875D01*
X28303Y-31863D01*
X28327Y-31851D01*
X28386Y-31851D01*
X28422Y-31863D01*
X28529Y-32101D02*
X28529Y-31851D01*
X28672Y-32101D01*
X28672Y-31851D01*
X28767Y-31851D02*
X28934Y-31851D01*
X28827Y-32101D01*
X29136Y-31934D02*
X29136Y-32101D01*
X29077Y-31839D02*
X29017Y-32017D01*
X29172Y-32017D01*
X29386Y-32101D02*
X29267Y-32101D01*
X29267Y-31851D01*
X29434Y-31851D02*
X29517Y-32101D01*
X29601Y-31851D01*
X29815Y-32101D02*
X29672Y-32101D01*
X29744Y-32101D02*
X29744Y-31851D01*
X29720Y-31886D01*
X29696Y-31910D01*
X29672Y-31922D01*
X29886Y-31851D02*
X30029Y-31851D01*
X29958Y-32101D02*
X29958Y-31851D01*
X30244Y-32101D02*
X30101Y-32101D01*
X30172Y-32101D02*
X30172Y-31851D01*
X30148Y-31886D01*
X30125Y-31910D01*
X30101Y-31922D01*
X30339Y-31875D02*
X30351Y-31863D01*
X30375Y-31851D01*
X30434Y-31851D01*
X30458Y-31863D01*
X30470Y-31875D01*
X30482Y-31898D01*
X30482Y-31922D01*
X30470Y-31958D01*
X30327Y-32101D01*
X30482Y-32101D01*
X30696Y-31851D02*
X30648Y-31851D01*
X30625Y-31863D01*
X30613Y-31875D01*
X30589Y-31910D01*
X30577Y-31958D01*
X30577Y-32053D01*
X30589Y-32077D01*
X30601Y-32089D01*
X30625Y-32101D01*
X30672Y-32101D01*
X30696Y-32089D01*
X30708Y-32077D01*
X30720Y-32053D01*
X30720Y-31994D01*
X30708Y-31970D01*
X30696Y-31958D01*
X30672Y-31946D01*
X30625Y-31946D01*
X30601Y-31958D01*
X30589Y-31970D01*
X30577Y-31994D01*
X29308Y-31217D02*
X29308Y-31419D01*
X29320Y-31443D01*
X29332Y-31455D01*
X29356Y-31467D01*
X29403Y-31467D01*
X29427Y-31455D01*
X29439Y-31443D01*
X29451Y-31419D01*
X29451Y-31217D01*
X29701Y-31467D02*
X29558Y-31467D01*
X29629Y-31467D02*
X29629Y-31217D01*
X29606Y-31252D01*
X29582Y-31276D01*
X29558Y-31288D01*
X29915Y-31217D02*
X29868Y-31217D01*
X29844Y-31229D01*
X29832Y-31241D01*
X29808Y-31276D01*
X29796Y-31324D01*
X29796Y-31419D01*
X29808Y-31443D01*
X29820Y-31455D01*
X29844Y-31467D01*
X29891Y-31467D01*
X29915Y-31455D01*
X29927Y-31443D01*
X29939Y-31419D01*
X29939Y-31360D01*
X29927Y-31336D01*
X29915Y-31324D01*
X29891Y-31312D01*
X29844Y-31312D01*
X29820Y-31324D01*
X29808Y-31336D01*
X29796Y-31360D01*
X28279Y-29589D02*
X28315Y-29601D01*
X28374Y-29601D01*
X28398Y-29589D01*
X28410Y-29577D01*
X28422Y-29553D01*
X28422Y-29529D01*
X28410Y-29505D01*
X28398Y-29494D01*
X28374Y-29482D01*
X28327Y-29470D01*
X28303Y-29458D01*
X28291Y-29446D01*
X28279Y-29422D01*
X28279Y-29398D01*
X28291Y-29375D01*
X28303Y-29363D01*
X28327Y-29351D01*
X28386Y-29351D01*
X28422Y-29363D01*
X28529Y-29601D02*
X28529Y-29351D01*
X28672Y-29601D01*
X28672Y-29351D01*
X28767Y-29351D02*
X28934Y-29351D01*
X28827Y-29601D01*
X29136Y-29434D02*
X29136Y-29601D01*
X29077Y-29339D02*
X29017Y-29517D01*
X29172Y-29517D01*
X29386Y-29601D02*
X29267Y-29601D01*
X29267Y-29351D01*
X29434Y-29351D02*
X29517Y-29601D01*
X29601Y-29351D01*
X29815Y-29601D02*
X29672Y-29601D01*
X29744Y-29601D02*
X29744Y-29351D01*
X29720Y-29386D01*
X29696Y-29410D01*
X29672Y-29422D01*
X29886Y-29351D02*
X30029Y-29351D01*
X29958Y-29601D02*
X29958Y-29351D01*
X30244Y-29601D02*
X30101Y-29601D01*
X30172Y-29601D02*
X30172Y-29351D01*
X30148Y-29386D01*
X30125Y-29410D01*
X30101Y-29422D01*
X30339Y-29375D02*
X30351Y-29363D01*
X30375Y-29351D01*
X30434Y-29351D01*
X30458Y-29363D01*
X30470Y-29375D01*
X30482Y-29398D01*
X30482Y-29422D01*
X30470Y-29458D01*
X30327Y-29601D01*
X30482Y-29601D01*
X30696Y-29351D02*
X30648Y-29351D01*
X30625Y-29363D01*
X30613Y-29375D01*
X30589Y-29410D01*
X30577Y-29458D01*
X30577Y-29553D01*
X30589Y-29577D01*
X30601Y-29589D01*
X30625Y-29601D01*
X30672Y-29601D01*
X30696Y-29589D01*
X30708Y-29577D01*
X30720Y-29553D01*
X30720Y-29494D01*
X30708Y-29470D01*
X30696Y-29458D01*
X30672Y-29446D01*
X30625Y-29446D01*
X30601Y-29458D01*
X30589Y-29470D01*
X30577Y-29494D01*
X9927Y-25717D02*
X9927Y-25919D01*
X9939Y-25943D01*
X9951Y-25955D01*
X9975Y-25967D01*
X10022Y-25967D01*
X10046Y-25955D01*
X10058Y-25943D01*
X10070Y-25919D01*
X10070Y-25717D01*
X10320Y-25967D02*
X10177Y-25967D01*
X10248Y-25967D02*
X10248Y-25717D01*
X10225Y-25752D01*
X10201Y-25776D01*
X10177Y-25788D01*
X8779Y-24089D02*
X8815Y-24101D01*
X8874Y-24101D01*
X8898Y-24089D01*
X8910Y-24077D01*
X8922Y-24053D01*
X8922Y-24029D01*
X8910Y-24005D01*
X8898Y-23994D01*
X8874Y-23982D01*
X8827Y-23970D01*
X8803Y-23958D01*
X8791Y-23946D01*
X8779Y-23922D01*
X8779Y-23898D01*
X8791Y-23875D01*
X8803Y-23863D01*
X8827Y-23851D01*
X8886Y-23851D01*
X8922Y-23863D01*
X9029Y-24101D02*
X9029Y-23851D01*
X9172Y-24101D01*
X9172Y-23851D01*
X9267Y-23851D02*
X9434Y-23851D01*
X9327Y-24101D01*
X9636Y-23934D02*
X9636Y-24101D01*
X9577Y-23839D02*
X9517Y-24017D01*
X9672Y-24017D01*
X9886Y-24101D02*
X9767Y-24101D01*
X9767Y-23851D01*
X9934Y-23851D02*
X10017Y-24101D01*
X10101Y-23851D01*
X10315Y-24101D02*
X10172Y-24101D01*
X10244Y-24101D02*
X10244Y-23851D01*
X10220Y-23886D01*
X10196Y-23910D01*
X10172Y-23922D01*
X10386Y-23851D02*
X10529Y-23851D01*
X10458Y-24101D02*
X10458Y-23851D01*
X10744Y-24101D02*
X10601Y-24101D01*
X10672Y-24101D02*
X10672Y-23851D01*
X10648Y-23886D01*
X10625Y-23910D01*
X10601Y-23922D01*
X10839Y-23875D02*
X10851Y-23863D01*
X10875Y-23851D01*
X10934Y-23851D01*
X10958Y-23863D01*
X10970Y-23875D01*
X10982Y-23898D01*
X10982Y-23922D01*
X10970Y-23958D01*
X10827Y-24101D01*
X10982Y-24101D01*
X11196Y-23851D02*
X11148Y-23851D01*
X11125Y-23863D01*
X11113Y-23875D01*
X11089Y-23910D01*
X11077Y-23958D01*
X11077Y-24053D01*
X11089Y-24077D01*
X11101Y-24089D01*
X11125Y-24101D01*
X11172Y-24101D01*
X11196Y-24089D01*
X11208Y-24077D01*
X11220Y-24053D01*
X11220Y-23994D01*
X11208Y-23970D01*
X11196Y-23958D01*
X11172Y-23946D01*
X11125Y-23946D01*
X11101Y-23958D01*
X11089Y-23970D01*
X11077Y-23994D01*
X9927Y-9717D02*
X9927Y-9919D01*
X9939Y-9943D01*
X9951Y-9955D01*
X9975Y-9967D01*
X10022Y-9967D01*
X10046Y-9955D01*
X10058Y-9943D01*
X10070Y-9919D01*
X10070Y-9717D01*
X10320Y-9967D02*
X10177Y-9967D01*
X10248Y-9967D02*
X10248Y-9717D01*
X10225Y-9752D01*
X10201Y-9776D01*
X10177Y-9788D01*
X8779Y-8089D02*
X8815Y-8101D01*
X8874Y-8101D01*
X8898Y-8089D01*
X8910Y-8077D01*
X8922Y-8053D01*
X8922Y-8029D01*
X8910Y-8005D01*
X8898Y-7994D01*
X8874Y-7982D01*
X8827Y-7970D01*
X8803Y-7958D01*
X8791Y-7946D01*
X8779Y-7922D01*
X8779Y-7898D01*
X8791Y-7875D01*
X8803Y-7863D01*
X8827Y-7851D01*
X8886Y-7851D01*
X8922Y-7863D01*
X9029Y-8101D02*
X9029Y-7851D01*
X9172Y-8101D01*
X9172Y-7851D01*
X9267Y-7851D02*
X9434Y-7851D01*
X9327Y-8101D01*
X9636Y-7934D02*
X9636Y-8101D01*
X9577Y-7839D02*
X9517Y-8017D01*
X9672Y-8017D01*
X9886Y-8101D02*
X9767Y-8101D01*
X9767Y-7851D01*
X9934Y-7851D02*
X10017Y-8101D01*
X10101Y-7851D01*
X10315Y-8101D02*
X10172Y-8101D01*
X10244Y-8101D02*
X10244Y-7851D01*
X10220Y-7886D01*
X10196Y-7910D01*
X10172Y-7922D01*
X10386Y-7851D02*
X10529Y-7851D01*
X10458Y-8101D02*
X10458Y-7851D01*
X10744Y-8101D02*
X10601Y-8101D01*
X10672Y-8101D02*
X10672Y-7851D01*
X10648Y-7886D01*
X10625Y-7910D01*
X10601Y-7922D01*
X10839Y-7875D02*
X10851Y-7863D01*
X10875Y-7851D01*
X10934Y-7851D01*
X10958Y-7863D01*
X10970Y-7875D01*
X10982Y-7898D01*
X10982Y-7922D01*
X10970Y-7958D01*
X10827Y-8101D01*
X10982Y-8101D01*
X11196Y-7851D02*
X11148Y-7851D01*
X11125Y-7863D01*
X11113Y-7875D01*
X11089Y-7910D01*
X11077Y-7958D01*
X11077Y-8053D01*
X11089Y-8077D01*
X11101Y-8089D01*
X11125Y-8101D01*
X11172Y-8101D01*
X11196Y-8089D01*
X11208Y-8077D01*
X11220Y-8053D01*
X11220Y-7994D01*
X11208Y-7970D01*
X11196Y-7958D01*
X11172Y-7946D01*
X11125Y-7946D01*
X11101Y-7958D01*
X11089Y-7970D01*
X11077Y-7994D01*
X29308Y-15217D02*
X29308Y-15419D01*
X29320Y-15443D01*
X29332Y-15455D01*
X29356Y-15467D01*
X29403Y-15467D01*
X29427Y-15455D01*
X29439Y-15443D01*
X29451Y-15419D01*
X29451Y-15217D01*
X29701Y-15467D02*
X29558Y-15467D01*
X29629Y-15467D02*
X29629Y-15217D01*
X29606Y-15252D01*
X29582Y-15276D01*
X29558Y-15288D01*
X29915Y-15217D02*
X29868Y-15217D01*
X29844Y-15229D01*
X29832Y-15241D01*
X29808Y-15276D01*
X29796Y-15324D01*
X29796Y-15419D01*
X29808Y-15443D01*
X29820Y-15455D01*
X29844Y-15467D01*
X29891Y-15467D01*
X29915Y-15455D01*
X29927Y-15443D01*
X29939Y-15419D01*
X29939Y-15360D01*
X29927Y-15336D01*
X29915Y-15324D01*
X29891Y-15312D01*
X29844Y-15312D01*
X29820Y-15324D01*
X29808Y-15336D01*
X29796Y-15360D01*
X28279Y-13589D02*
X28315Y-13601D01*
X28374Y-13601D01*
X28398Y-13589D01*
X28410Y-13577D01*
X28422Y-13553D01*
X28422Y-13529D01*
X28410Y-13505D01*
X28398Y-13494D01*
X28374Y-13482D01*
X28327Y-13470D01*
X28303Y-13458D01*
X28291Y-13446D01*
X28279Y-13422D01*
X28279Y-13398D01*
X28291Y-13375D01*
X28303Y-13363D01*
X28327Y-13351D01*
X28386Y-13351D01*
X28422Y-13363D01*
X28529Y-13601D02*
X28529Y-13351D01*
X28672Y-13601D01*
X28672Y-13351D01*
X28767Y-13351D02*
X28934Y-13351D01*
X28827Y-13601D01*
X29136Y-13434D02*
X29136Y-13601D01*
X29077Y-13339D02*
X29017Y-13517D01*
X29172Y-13517D01*
X29386Y-13601D02*
X29267Y-13601D01*
X29267Y-13351D01*
X29434Y-13351D02*
X29517Y-13601D01*
X29601Y-13351D01*
X29815Y-13601D02*
X29672Y-13601D01*
X29744Y-13601D02*
X29744Y-13351D01*
X29720Y-13386D01*
X29696Y-13410D01*
X29672Y-13422D01*
X29886Y-13351D02*
X30029Y-13351D01*
X29958Y-13601D02*
X29958Y-13351D01*
X30244Y-13601D02*
X30101Y-13601D01*
X30172Y-13601D02*
X30172Y-13351D01*
X30148Y-13386D01*
X30125Y-13410D01*
X30101Y-13422D01*
X30339Y-13375D02*
X30351Y-13363D01*
X30375Y-13351D01*
X30434Y-13351D01*
X30458Y-13363D01*
X30470Y-13375D01*
X30482Y-13398D01*
X30482Y-13422D01*
X30470Y-13458D01*
X30327Y-13601D01*
X30482Y-13601D01*
X30696Y-13351D02*
X30648Y-13351D01*
X30625Y-13363D01*
X30613Y-13375D01*
X30589Y-13410D01*
X30577Y-13458D01*
X30577Y-13553D01*
X30589Y-13577D01*
X30601Y-13589D01*
X30625Y-13601D01*
X30672Y-13601D01*
X30696Y-13589D01*
X30708Y-13577D01*
X30720Y-13553D01*
X30720Y-13494D01*
X30708Y-13470D01*
X30696Y-13458D01*
X30672Y-13446D01*
X30625Y-13446D01*
X30601Y-13458D01*
X30589Y-13470D01*
X30577Y-13494D01*
X29308Y-17717D02*
X29308Y-17919D01*
X29320Y-17943D01*
X29332Y-17955D01*
X29356Y-17967D01*
X29403Y-17967D01*
X29427Y-17955D01*
X29439Y-17943D01*
X29451Y-17919D01*
X29451Y-17717D01*
X29558Y-17741D02*
X29570Y-17729D01*
X29594Y-17717D01*
X29653Y-17717D01*
X29677Y-17729D01*
X29689Y-17741D01*
X29701Y-17764D01*
X29701Y-17788D01*
X29689Y-17824D01*
X29546Y-17967D01*
X29701Y-17967D01*
X29856Y-17717D02*
X29879Y-17717D01*
X29903Y-17729D01*
X29915Y-17741D01*
X29927Y-17764D01*
X29939Y-17812D01*
X29939Y-17871D01*
X29927Y-17919D01*
X29915Y-17943D01*
X29903Y-17955D01*
X29879Y-17967D01*
X29856Y-17967D01*
X29832Y-17955D01*
X29820Y-17943D01*
X29808Y-17919D01*
X29796Y-17871D01*
X29796Y-17812D01*
X29808Y-17764D01*
X29820Y-17741D01*
X29832Y-17729D01*
X29856Y-17717D01*
X28279Y-16089D02*
X28315Y-16101D01*
X28374Y-16101D01*
X28398Y-16089D01*
X28410Y-16077D01*
X28422Y-16053D01*
X28422Y-16029D01*
X28410Y-16005D01*
X28398Y-15994D01*
X28374Y-15982D01*
X28327Y-15970D01*
X28303Y-15958D01*
X28291Y-15946D01*
X28279Y-15922D01*
X28279Y-15898D01*
X28291Y-15875D01*
X28303Y-15863D01*
X28327Y-15851D01*
X28386Y-15851D01*
X28422Y-15863D01*
X28529Y-16101D02*
X28529Y-15851D01*
X28672Y-16101D01*
X28672Y-15851D01*
X28767Y-15851D02*
X28934Y-15851D01*
X28827Y-16101D01*
X29136Y-15934D02*
X29136Y-16101D01*
X29077Y-15839D02*
X29017Y-16017D01*
X29172Y-16017D01*
X29386Y-16101D02*
X29267Y-16101D01*
X29267Y-15851D01*
X29434Y-15851D02*
X29517Y-16101D01*
X29601Y-15851D01*
X29815Y-16101D02*
X29672Y-16101D01*
X29744Y-16101D02*
X29744Y-15851D01*
X29720Y-15886D01*
X29696Y-15910D01*
X29672Y-15922D01*
X29886Y-15851D02*
X30029Y-15851D01*
X29958Y-16101D02*
X29958Y-15851D01*
X30244Y-16101D02*
X30101Y-16101D01*
X30172Y-16101D02*
X30172Y-15851D01*
X30148Y-15886D01*
X30125Y-15910D01*
X30101Y-15922D01*
X30339Y-15875D02*
X30351Y-15863D01*
X30375Y-15851D01*
X30434Y-15851D01*
X30458Y-15863D01*
X30470Y-15875D01*
X30482Y-15898D01*
X30482Y-15922D01*
X30470Y-15958D01*
X30327Y-16101D01*
X30482Y-16101D01*
X30696Y-15851D02*
X30648Y-15851D01*
X30625Y-15863D01*
X30613Y-15875D01*
X30589Y-15910D01*
X30577Y-15958D01*
X30577Y-16053D01*
X30589Y-16077D01*
X30601Y-16089D01*
X30625Y-16101D01*
X30672Y-16101D01*
X30696Y-16089D01*
X30708Y-16077D01*
X30720Y-16053D01*
X30720Y-15994D01*
X30708Y-15970D01*
X30696Y-15958D01*
X30672Y-15946D01*
X30625Y-15946D01*
X30601Y-15958D01*
X30589Y-15970D01*
X30577Y-15994D01*
X21427Y-15217D02*
X21427Y-15419D01*
X21439Y-15443D01*
X21451Y-15455D01*
X21475Y-15467D01*
X21522Y-15467D01*
X21546Y-15455D01*
X21558Y-15443D01*
X21570Y-15419D01*
X21570Y-15217D01*
X21796Y-15300D02*
X21796Y-15467D01*
X21737Y-15205D02*
X21677Y-15383D01*
X21832Y-15383D01*
X20279Y-13589D02*
X20315Y-13601D01*
X20374Y-13601D01*
X20398Y-13589D01*
X20410Y-13577D01*
X20422Y-13553D01*
X20422Y-13529D01*
X20410Y-13505D01*
X20398Y-13494D01*
X20374Y-13482D01*
X20327Y-13470D01*
X20303Y-13458D01*
X20291Y-13446D01*
X20279Y-13422D01*
X20279Y-13398D01*
X20291Y-13375D01*
X20303Y-13363D01*
X20327Y-13351D01*
X20386Y-13351D01*
X20422Y-13363D01*
X20529Y-13601D02*
X20529Y-13351D01*
X20672Y-13601D01*
X20672Y-13351D01*
X20767Y-13351D02*
X20934Y-13351D01*
X20827Y-13601D01*
X21136Y-13434D02*
X21136Y-13601D01*
X21077Y-13339D02*
X21017Y-13517D01*
X21172Y-13517D01*
X21386Y-13601D02*
X21267Y-13601D01*
X21267Y-13351D01*
X21434Y-13351D02*
X21517Y-13601D01*
X21601Y-13351D01*
X21815Y-13601D02*
X21672Y-13601D01*
X21744Y-13601D02*
X21744Y-13351D01*
X21720Y-13386D01*
X21696Y-13410D01*
X21672Y-13422D01*
X21886Y-13351D02*
X22029Y-13351D01*
X21958Y-13601D02*
X21958Y-13351D01*
X22244Y-13601D02*
X22101Y-13601D01*
X22172Y-13601D02*
X22172Y-13351D01*
X22148Y-13386D01*
X22125Y-13410D01*
X22101Y-13422D01*
X22339Y-13375D02*
X22351Y-13363D01*
X22375Y-13351D01*
X22434Y-13351D01*
X22458Y-13363D01*
X22470Y-13375D01*
X22482Y-13398D01*
X22482Y-13422D01*
X22470Y-13458D01*
X22327Y-13601D01*
X22482Y-13601D01*
X22696Y-13351D02*
X22648Y-13351D01*
X22625Y-13363D01*
X22613Y-13375D01*
X22589Y-13410D01*
X22577Y-13458D01*
X22577Y-13553D01*
X22589Y-13577D01*
X22601Y-13589D01*
X22625Y-13601D01*
X22672Y-13601D01*
X22696Y-13589D01*
X22708Y-13577D01*
X22720Y-13553D01*
X22720Y-13494D01*
X22708Y-13470D01*
X22696Y-13458D01*
X22672Y-13446D01*
X22625Y-13446D01*
X22601Y-13458D01*
X22589Y-13470D01*
X22577Y-13494D01*
X21427Y-17717D02*
X21427Y-17919D01*
X21439Y-17943D01*
X21451Y-17955D01*
X21475Y-17967D01*
X21522Y-17967D01*
X21546Y-17955D01*
X21558Y-17943D01*
X21570Y-17919D01*
X21570Y-17717D01*
X21725Y-17824D02*
X21701Y-17812D01*
X21689Y-17800D01*
X21677Y-17776D01*
X21677Y-17764D01*
X21689Y-17741D01*
X21701Y-17729D01*
X21725Y-17717D01*
X21772Y-17717D01*
X21796Y-17729D01*
X21808Y-17741D01*
X21820Y-17764D01*
X21820Y-17776D01*
X21808Y-17800D01*
X21796Y-17812D01*
X21772Y-17824D01*
X21725Y-17824D01*
X21701Y-17836D01*
X21689Y-17848D01*
X21677Y-17871D01*
X21677Y-17919D01*
X21689Y-17943D01*
X21701Y-17955D01*
X21725Y-17967D01*
X21772Y-17967D01*
X21796Y-17955D01*
X21808Y-17943D01*
X21820Y-17919D01*
X21820Y-17871D01*
X21808Y-17848D01*
X21796Y-17836D01*
X21772Y-17824D01*
X20279Y-16089D02*
X20315Y-16101D01*
X20374Y-16101D01*
X20398Y-16089D01*
X20410Y-16077D01*
X20422Y-16053D01*
X20422Y-16029D01*
X20410Y-16005D01*
X20398Y-15994D01*
X20374Y-15982D01*
X20327Y-15970D01*
X20303Y-15958D01*
X20291Y-15946D01*
X20279Y-15922D01*
X20279Y-15898D01*
X20291Y-15875D01*
X20303Y-15863D01*
X20327Y-15851D01*
X20386Y-15851D01*
X20422Y-15863D01*
X20529Y-16101D02*
X20529Y-15851D01*
X20672Y-16101D01*
X20672Y-15851D01*
X20767Y-15851D02*
X20934Y-15851D01*
X20827Y-16101D01*
X21136Y-15934D02*
X21136Y-16101D01*
X21077Y-15839D02*
X21017Y-16017D01*
X21172Y-16017D01*
X21386Y-16101D02*
X21267Y-16101D01*
X21267Y-15851D01*
X21434Y-15851D02*
X21517Y-16101D01*
X21601Y-15851D01*
X21815Y-16101D02*
X21672Y-16101D01*
X21744Y-16101D02*
X21744Y-15851D01*
X21720Y-15886D01*
X21696Y-15910D01*
X21672Y-15922D01*
X21886Y-15851D02*
X22029Y-15851D01*
X21958Y-16101D02*
X21958Y-15851D01*
X22244Y-16101D02*
X22101Y-16101D01*
X22172Y-16101D02*
X22172Y-15851D01*
X22148Y-15886D01*
X22125Y-15910D01*
X22101Y-15922D01*
X22339Y-15875D02*
X22351Y-15863D01*
X22375Y-15851D01*
X22434Y-15851D01*
X22458Y-15863D01*
X22470Y-15875D01*
X22482Y-15898D01*
X22482Y-15922D01*
X22470Y-15958D01*
X22327Y-16101D01*
X22482Y-16101D01*
X22696Y-15851D02*
X22648Y-15851D01*
X22625Y-15863D01*
X22613Y-15875D01*
X22589Y-15910D01*
X22577Y-15958D01*
X22577Y-16053D01*
X22589Y-16077D01*
X22601Y-16089D01*
X22625Y-16101D01*
X22672Y-16101D01*
X22696Y-16089D01*
X22708Y-16077D01*
X22720Y-16053D01*
X22720Y-15994D01*
X22708Y-15970D01*
X22696Y-15958D01*
X22672Y-15946D01*
X22625Y-15946D01*
X22601Y-15958D01*
X22589Y-15970D01*
X22577Y-15994D01*
X29308Y-9717D02*
X29308Y-9919D01*
X29320Y-9943D01*
X29332Y-9955D01*
X29356Y-9967D01*
X29403Y-9967D01*
X29427Y-9955D01*
X29439Y-9943D01*
X29451Y-9919D01*
X29451Y-9717D01*
X29701Y-9967D02*
X29558Y-9967D01*
X29629Y-9967D02*
X29629Y-9717D01*
X29606Y-9752D01*
X29582Y-9776D01*
X29558Y-9788D01*
X29927Y-9717D02*
X29808Y-9717D01*
X29796Y-9836D01*
X29808Y-9824D01*
X29832Y-9812D01*
X29891Y-9812D01*
X29915Y-9824D01*
X29927Y-9836D01*
X29939Y-9860D01*
X29939Y-9919D01*
X29927Y-9943D01*
X29915Y-9955D01*
X29891Y-9967D01*
X29832Y-9967D01*
X29808Y-9955D01*
X29796Y-9943D01*
X28279Y-8089D02*
X28315Y-8101D01*
X28374Y-8101D01*
X28398Y-8089D01*
X28410Y-8077D01*
X28422Y-8053D01*
X28422Y-8029D01*
X28410Y-8005D01*
X28398Y-7994D01*
X28374Y-7982D01*
X28327Y-7970D01*
X28303Y-7958D01*
X28291Y-7946D01*
X28279Y-7922D01*
X28279Y-7898D01*
X28291Y-7875D01*
X28303Y-7863D01*
X28327Y-7851D01*
X28386Y-7851D01*
X28422Y-7863D01*
X28529Y-8101D02*
X28529Y-7851D01*
X28672Y-8101D01*
X28672Y-7851D01*
X28767Y-7851D02*
X28934Y-7851D01*
X28827Y-8101D01*
X29136Y-7934D02*
X29136Y-8101D01*
X29077Y-7839D02*
X29017Y-8017D01*
X29172Y-8017D01*
X29386Y-8101D02*
X29267Y-8101D01*
X29267Y-7851D01*
X29434Y-7851D02*
X29517Y-8101D01*
X29601Y-7851D01*
X29815Y-8101D02*
X29672Y-8101D01*
X29744Y-8101D02*
X29744Y-7851D01*
X29720Y-7886D01*
X29696Y-7910D01*
X29672Y-7922D01*
X29886Y-7851D02*
X30029Y-7851D01*
X29958Y-8101D02*
X29958Y-7851D01*
X30244Y-8101D02*
X30101Y-8101D01*
X30172Y-8101D02*
X30172Y-7851D01*
X30148Y-7886D01*
X30125Y-7910D01*
X30101Y-7922D01*
X30339Y-7875D02*
X30351Y-7863D01*
X30375Y-7851D01*
X30434Y-7851D01*
X30458Y-7863D01*
X30470Y-7875D01*
X30482Y-7898D01*
X30482Y-7922D01*
X30470Y-7958D01*
X30327Y-8101D01*
X30482Y-8101D01*
X30696Y-7851D02*
X30648Y-7851D01*
X30625Y-7863D01*
X30613Y-7875D01*
X30589Y-7910D01*
X30577Y-7958D01*
X30577Y-8053D01*
X30589Y-8077D01*
X30601Y-8089D01*
X30625Y-8101D01*
X30672Y-8101D01*
X30696Y-8089D01*
X30708Y-8077D01*
X30720Y-8053D01*
X30720Y-7994D01*
X30708Y-7970D01*
X30696Y-7958D01*
X30672Y-7946D01*
X30625Y-7946D01*
X30601Y-7958D01*
X30589Y-7970D01*
X30577Y-7994D01*
X29308Y-12217D02*
X29308Y-12419D01*
X29320Y-12443D01*
X29332Y-12455D01*
X29356Y-12467D01*
X29403Y-12467D01*
X29427Y-12455D01*
X29439Y-12443D01*
X29451Y-12419D01*
X29451Y-12217D01*
X29701Y-12467D02*
X29558Y-12467D01*
X29629Y-12467D02*
X29629Y-12217D01*
X29606Y-12252D01*
X29582Y-12276D01*
X29558Y-12288D01*
X29820Y-12467D02*
X29868Y-12467D01*
X29891Y-12455D01*
X29903Y-12443D01*
X29927Y-12407D01*
X29939Y-12360D01*
X29939Y-12264D01*
X29927Y-12241D01*
X29915Y-12229D01*
X29891Y-12217D01*
X29844Y-12217D01*
X29820Y-12229D01*
X29808Y-12241D01*
X29796Y-12264D01*
X29796Y-12324D01*
X29808Y-12348D01*
X29820Y-12360D01*
X29844Y-12371D01*
X29891Y-12371D01*
X29915Y-12360D01*
X29927Y-12348D01*
X29939Y-12324D01*
X28279Y-10589D02*
X28315Y-10601D01*
X28374Y-10601D01*
X28398Y-10589D01*
X28410Y-10577D01*
X28422Y-10553D01*
X28422Y-10529D01*
X28410Y-10505D01*
X28398Y-10494D01*
X28374Y-10482D01*
X28327Y-10470D01*
X28303Y-10458D01*
X28291Y-10446D01*
X28279Y-10422D01*
X28279Y-10398D01*
X28291Y-10375D01*
X28303Y-10363D01*
X28327Y-10351D01*
X28386Y-10351D01*
X28422Y-10363D01*
X28529Y-10601D02*
X28529Y-10351D01*
X28672Y-10601D01*
X28672Y-10351D01*
X28767Y-10351D02*
X28934Y-10351D01*
X28827Y-10601D01*
X29136Y-10434D02*
X29136Y-10601D01*
X29077Y-10339D02*
X29017Y-10517D01*
X29172Y-10517D01*
X29386Y-10601D02*
X29267Y-10601D01*
X29267Y-10351D01*
X29434Y-10351D02*
X29517Y-10601D01*
X29601Y-10351D01*
X29815Y-10601D02*
X29672Y-10601D01*
X29744Y-10601D02*
X29744Y-10351D01*
X29720Y-10386D01*
X29696Y-10410D01*
X29672Y-10422D01*
X29886Y-10351D02*
X30029Y-10351D01*
X29958Y-10601D02*
X29958Y-10351D01*
X30244Y-10601D02*
X30101Y-10601D01*
X30172Y-10601D02*
X30172Y-10351D01*
X30148Y-10386D01*
X30125Y-10410D01*
X30101Y-10422D01*
X30339Y-10375D02*
X30351Y-10363D01*
X30375Y-10351D01*
X30434Y-10351D01*
X30458Y-10363D01*
X30470Y-10375D01*
X30482Y-10398D01*
X30482Y-10422D01*
X30470Y-10458D01*
X30327Y-10601D01*
X30482Y-10601D01*
X30696Y-10351D02*
X30648Y-10351D01*
X30625Y-10363D01*
X30613Y-10375D01*
X30589Y-10410D01*
X30577Y-10458D01*
X30577Y-10553D01*
X30589Y-10577D01*
X30601Y-10589D01*
X30625Y-10601D01*
X30672Y-10601D01*
X30696Y-10589D01*
X30708Y-10577D01*
X30720Y-10553D01*
X30720Y-10494D01*
X30708Y-10470D01*
X30696Y-10458D01*
X30672Y-10446D01*
X30625Y-10446D01*
X30601Y-10458D01*
X30589Y-10470D01*
X30577Y-10494D01*
X21427Y-9717D02*
X21427Y-9919D01*
X21439Y-9943D01*
X21451Y-9955D01*
X21475Y-9967D01*
X21522Y-9967D01*
X21546Y-9955D01*
X21558Y-9943D01*
X21570Y-9919D01*
X21570Y-9717D01*
X21665Y-9717D02*
X21820Y-9717D01*
X21737Y-9812D01*
X21772Y-9812D01*
X21796Y-9824D01*
X21808Y-9836D01*
X21820Y-9860D01*
X21820Y-9919D01*
X21808Y-9943D01*
X21796Y-9955D01*
X21772Y-9967D01*
X21701Y-9967D01*
X21677Y-9955D01*
X21665Y-9943D01*
X20279Y-8089D02*
X20315Y-8101D01*
X20374Y-8101D01*
X20398Y-8089D01*
X20410Y-8077D01*
X20422Y-8053D01*
X20422Y-8029D01*
X20410Y-8005D01*
X20398Y-7994D01*
X20374Y-7982D01*
X20327Y-7970D01*
X20303Y-7958D01*
X20291Y-7946D01*
X20279Y-7922D01*
X20279Y-7898D01*
X20291Y-7875D01*
X20303Y-7863D01*
X20327Y-7851D01*
X20386Y-7851D01*
X20422Y-7863D01*
X20529Y-8101D02*
X20529Y-7851D01*
X20672Y-8101D01*
X20672Y-7851D01*
X20767Y-7851D02*
X20934Y-7851D01*
X20827Y-8101D01*
X21136Y-7934D02*
X21136Y-8101D01*
X21077Y-7839D02*
X21017Y-8017D01*
X21172Y-8017D01*
X21386Y-8101D02*
X21267Y-8101D01*
X21267Y-7851D01*
X21434Y-7851D02*
X21517Y-8101D01*
X21601Y-7851D01*
X21815Y-8101D02*
X21672Y-8101D01*
X21744Y-8101D02*
X21744Y-7851D01*
X21720Y-7886D01*
X21696Y-7910D01*
X21672Y-7922D01*
X21886Y-7851D02*
X22029Y-7851D01*
X21958Y-8101D02*
X21958Y-7851D01*
X22244Y-8101D02*
X22101Y-8101D01*
X22172Y-8101D02*
X22172Y-7851D01*
X22148Y-7886D01*
X22125Y-7910D01*
X22101Y-7922D01*
X22339Y-7875D02*
X22351Y-7863D01*
X22375Y-7851D01*
X22434Y-7851D01*
X22458Y-7863D01*
X22470Y-7875D01*
X22482Y-7898D01*
X22482Y-7922D01*
X22470Y-7958D01*
X22327Y-8101D01*
X22482Y-8101D01*
X22696Y-7851D02*
X22648Y-7851D01*
X22625Y-7863D01*
X22613Y-7875D01*
X22589Y-7910D01*
X22577Y-7958D01*
X22577Y-8053D01*
X22589Y-8077D01*
X22601Y-8089D01*
X22625Y-8101D01*
X22672Y-8101D01*
X22696Y-8089D01*
X22708Y-8077D01*
X22720Y-8053D01*
X22720Y-7994D01*
X22708Y-7970D01*
X22696Y-7958D01*
X22672Y-7946D01*
X22625Y-7946D01*
X22601Y-7958D01*
X22589Y-7970D01*
X22577Y-7994D01*
X21427Y-12217D02*
X21427Y-12419D01*
X21439Y-12443D01*
X21451Y-12455D01*
X21475Y-12467D01*
X21522Y-12467D01*
X21546Y-12455D01*
X21558Y-12443D01*
X21570Y-12419D01*
X21570Y-12217D01*
X21665Y-12217D02*
X21832Y-12217D01*
X21725Y-12467D01*
X20279Y-10589D02*
X20315Y-10601D01*
X20374Y-10601D01*
X20398Y-10589D01*
X20410Y-10577D01*
X20422Y-10553D01*
X20422Y-10529D01*
X20410Y-10505D01*
X20398Y-10494D01*
X20374Y-10482D01*
X20327Y-10470D01*
X20303Y-10458D01*
X20291Y-10446D01*
X20279Y-10422D01*
X20279Y-10398D01*
X20291Y-10375D01*
X20303Y-10363D01*
X20327Y-10351D01*
X20386Y-10351D01*
X20422Y-10363D01*
X20529Y-10601D02*
X20529Y-10351D01*
X20672Y-10601D01*
X20672Y-10351D01*
X20767Y-10351D02*
X20934Y-10351D01*
X20827Y-10601D01*
X21136Y-10434D02*
X21136Y-10601D01*
X21077Y-10339D02*
X21017Y-10517D01*
X21172Y-10517D01*
X21386Y-10601D02*
X21267Y-10601D01*
X21267Y-10351D01*
X21434Y-10351D02*
X21517Y-10601D01*
X21601Y-10351D01*
X21815Y-10601D02*
X21672Y-10601D01*
X21744Y-10601D02*
X21744Y-10351D01*
X21720Y-10386D01*
X21696Y-10410D01*
X21672Y-10422D01*
X21886Y-10351D02*
X22029Y-10351D01*
X21958Y-10601D02*
X21958Y-10351D01*
X22244Y-10601D02*
X22101Y-10601D01*
X22172Y-10601D02*
X22172Y-10351D01*
X22148Y-10386D01*
X22125Y-10410D01*
X22101Y-10422D01*
X22339Y-10375D02*
X22351Y-10363D01*
X22375Y-10351D01*
X22434Y-10351D01*
X22458Y-10363D01*
X22470Y-10375D01*
X22482Y-10398D01*
X22482Y-10422D01*
X22470Y-10458D01*
X22327Y-10601D01*
X22482Y-10601D01*
X22696Y-10351D02*
X22648Y-10351D01*
X22625Y-10363D01*
X22613Y-10375D01*
X22589Y-10410D01*
X22577Y-10458D01*
X22577Y-10553D01*
X22589Y-10577D01*
X22601Y-10589D01*
X22625Y-10601D01*
X22672Y-10601D01*
X22696Y-10589D01*
X22708Y-10577D01*
X22720Y-10553D01*
X22720Y-10494D01*
X22708Y-10470D01*
X22696Y-10458D01*
X22672Y-10446D01*
X22625Y-10446D01*
X22601Y-10458D01*
X22589Y-10470D01*
X22577Y-10494D01*
X17808Y-15217D02*
X17808Y-15419D01*
X17820Y-15443D01*
X17832Y-15455D01*
X17856Y-15467D01*
X17903Y-15467D01*
X17927Y-15455D01*
X17939Y-15443D01*
X17951Y-15419D01*
X17951Y-15217D01*
X18201Y-15467D02*
X18058Y-15467D01*
X18129Y-15467D02*
X18129Y-15217D01*
X18106Y-15252D01*
X18082Y-15276D01*
X18058Y-15288D01*
X18415Y-15300D02*
X18415Y-15467D01*
X18356Y-15205D02*
X18296Y-15383D01*
X18451Y-15383D01*
X16779Y-13589D02*
X16815Y-13601D01*
X16874Y-13601D01*
X16898Y-13589D01*
X16910Y-13577D01*
X16922Y-13553D01*
X16922Y-13529D01*
X16910Y-13505D01*
X16898Y-13494D01*
X16874Y-13482D01*
X16827Y-13470D01*
X16803Y-13458D01*
X16791Y-13446D01*
X16779Y-13422D01*
X16779Y-13398D01*
X16791Y-13375D01*
X16803Y-13363D01*
X16827Y-13351D01*
X16886Y-13351D01*
X16922Y-13363D01*
X17029Y-13601D02*
X17029Y-13351D01*
X17172Y-13601D01*
X17172Y-13351D01*
X17267Y-13351D02*
X17434Y-13351D01*
X17327Y-13601D01*
X17636Y-13434D02*
X17636Y-13601D01*
X17577Y-13339D02*
X17517Y-13517D01*
X17672Y-13517D01*
X17886Y-13601D02*
X17767Y-13601D01*
X17767Y-13351D01*
X17934Y-13351D02*
X18017Y-13601D01*
X18101Y-13351D01*
X18315Y-13601D02*
X18172Y-13601D01*
X18244Y-13601D02*
X18244Y-13351D01*
X18220Y-13386D01*
X18196Y-13410D01*
X18172Y-13422D01*
X18386Y-13351D02*
X18529Y-13351D01*
X18458Y-13601D02*
X18458Y-13351D01*
X18744Y-13601D02*
X18601Y-13601D01*
X18672Y-13601D02*
X18672Y-13351D01*
X18648Y-13386D01*
X18625Y-13410D01*
X18601Y-13422D01*
X18839Y-13375D02*
X18851Y-13363D01*
X18875Y-13351D01*
X18934Y-13351D01*
X18958Y-13363D01*
X18970Y-13375D01*
X18982Y-13398D01*
X18982Y-13422D01*
X18970Y-13458D01*
X18827Y-13601D01*
X18982Y-13601D01*
X19196Y-13351D02*
X19148Y-13351D01*
X19125Y-13363D01*
X19113Y-13375D01*
X19089Y-13410D01*
X19077Y-13458D01*
X19077Y-13553D01*
X19089Y-13577D01*
X19101Y-13589D01*
X19125Y-13601D01*
X19172Y-13601D01*
X19196Y-13589D01*
X19208Y-13577D01*
X19220Y-13553D01*
X19220Y-13494D01*
X19208Y-13470D01*
X19196Y-13458D01*
X19172Y-13446D01*
X19125Y-13446D01*
X19101Y-13458D01*
X19089Y-13470D01*
X19077Y-13494D01*
X9927Y-12217D02*
X9927Y-12419D01*
X9939Y-12443D01*
X9951Y-12455D01*
X9975Y-12467D01*
X10022Y-12467D01*
X10046Y-12455D01*
X10058Y-12443D01*
X10070Y-12419D01*
X10070Y-12217D01*
X10308Y-12217D02*
X10189Y-12217D01*
X10177Y-12336D01*
X10189Y-12324D01*
X10213Y-12312D01*
X10272Y-12312D01*
X10296Y-12324D01*
X10308Y-12336D01*
X10320Y-12360D01*
X10320Y-12419D01*
X10308Y-12443D01*
X10296Y-12455D01*
X10272Y-12467D01*
X10213Y-12467D01*
X10189Y-12455D01*
X10177Y-12443D01*
X8779Y-10589D02*
X8815Y-10601D01*
X8874Y-10601D01*
X8898Y-10589D01*
X8910Y-10577D01*
X8922Y-10553D01*
X8922Y-10529D01*
X8910Y-10505D01*
X8898Y-10494D01*
X8874Y-10482D01*
X8827Y-10470D01*
X8803Y-10458D01*
X8791Y-10446D01*
X8779Y-10422D01*
X8779Y-10398D01*
X8791Y-10375D01*
X8803Y-10363D01*
X8827Y-10351D01*
X8886Y-10351D01*
X8922Y-10363D01*
X9029Y-10601D02*
X9029Y-10351D01*
X9172Y-10601D01*
X9172Y-10351D01*
X9267Y-10351D02*
X9434Y-10351D01*
X9327Y-10601D01*
X9636Y-10434D02*
X9636Y-10601D01*
X9577Y-10339D02*
X9517Y-10517D01*
X9672Y-10517D01*
X9886Y-10601D02*
X9767Y-10601D01*
X9767Y-10351D01*
X9934Y-10351D02*
X10017Y-10601D01*
X10101Y-10351D01*
X10315Y-10601D02*
X10172Y-10601D01*
X10244Y-10601D02*
X10244Y-10351D01*
X10220Y-10386D01*
X10196Y-10410D01*
X10172Y-10422D01*
X10386Y-10351D02*
X10529Y-10351D01*
X10458Y-10601D02*
X10458Y-10351D01*
X10744Y-10601D02*
X10601Y-10601D01*
X10672Y-10601D02*
X10672Y-10351D01*
X10648Y-10386D01*
X10625Y-10410D01*
X10601Y-10422D01*
X10839Y-10375D02*
X10851Y-10363D01*
X10875Y-10351D01*
X10934Y-10351D01*
X10958Y-10363D01*
X10970Y-10375D01*
X10982Y-10398D01*
X10982Y-10422D01*
X10970Y-10458D01*
X10827Y-10601D01*
X10982Y-10601D01*
X11196Y-10351D02*
X11148Y-10351D01*
X11125Y-10363D01*
X11113Y-10375D01*
X11089Y-10410D01*
X11077Y-10458D01*
X11077Y-10553D01*
X11089Y-10577D01*
X11101Y-10589D01*
X11125Y-10601D01*
X11172Y-10601D01*
X11196Y-10589D01*
X11208Y-10577D01*
X11220Y-10553D01*
X11220Y-10494D01*
X11208Y-10470D01*
X11196Y-10458D01*
X11172Y-10446D01*
X11125Y-10446D01*
X11101Y-10458D01*
X11089Y-10470D01*
X11077Y-10494D01*
X17808Y-12217D02*
X17808Y-12419D01*
X17820Y-12443D01*
X17832Y-12455D01*
X17856Y-12467D01*
X17903Y-12467D01*
X17927Y-12455D01*
X17939Y-12443D01*
X17951Y-12419D01*
X17951Y-12217D01*
X18201Y-12467D02*
X18058Y-12467D01*
X18129Y-12467D02*
X18129Y-12217D01*
X18106Y-12252D01*
X18082Y-12276D01*
X18058Y-12288D01*
X18284Y-12217D02*
X18451Y-12217D01*
X18344Y-12467D01*
X16779Y-10589D02*
X16815Y-10601D01*
X16874Y-10601D01*
X16898Y-10589D01*
X16910Y-10577D01*
X16922Y-10553D01*
X16922Y-10529D01*
X16910Y-10505D01*
X16898Y-10494D01*
X16874Y-10482D01*
X16827Y-10470D01*
X16803Y-10458D01*
X16791Y-10446D01*
X16779Y-10422D01*
X16779Y-10398D01*
X16791Y-10375D01*
X16803Y-10363D01*
X16827Y-10351D01*
X16886Y-10351D01*
X16922Y-10363D01*
X17029Y-10601D02*
X17029Y-10351D01*
X17172Y-10601D01*
X17172Y-10351D01*
X17267Y-10351D02*
X17434Y-10351D01*
X17327Y-10601D01*
X17636Y-10434D02*
X17636Y-10601D01*
X17577Y-10339D02*
X17517Y-10517D01*
X17672Y-10517D01*
X17886Y-10601D02*
X17767Y-10601D01*
X17767Y-10351D01*
X17934Y-10351D02*
X18017Y-10601D01*
X18101Y-10351D01*
X18315Y-10601D02*
X18172Y-10601D01*
X18244Y-10601D02*
X18244Y-10351D01*
X18220Y-10386D01*
X18196Y-10410D01*
X18172Y-10422D01*
X18386Y-10351D02*
X18529Y-10351D01*
X18458Y-10601D02*
X18458Y-10351D01*
X18744Y-10601D02*
X18601Y-10601D01*
X18672Y-10601D02*
X18672Y-10351D01*
X18648Y-10386D01*
X18625Y-10410D01*
X18601Y-10422D01*
X18839Y-10375D02*
X18851Y-10363D01*
X18875Y-10351D01*
X18934Y-10351D01*
X18958Y-10363D01*
X18970Y-10375D01*
X18982Y-10398D01*
X18982Y-10422D01*
X18970Y-10458D01*
X18827Y-10601D01*
X18982Y-10601D01*
X19196Y-10351D02*
X19148Y-10351D01*
X19125Y-10363D01*
X19113Y-10375D01*
X19089Y-10410D01*
X19077Y-10458D01*
X19077Y-10553D01*
X19089Y-10577D01*
X19101Y-10589D01*
X19125Y-10601D01*
X19172Y-10601D01*
X19196Y-10589D01*
X19208Y-10577D01*
X19220Y-10553D01*
X19220Y-10494D01*
X19208Y-10470D01*
X19196Y-10458D01*
X19172Y-10446D01*
X19125Y-10446D01*
X19101Y-10458D01*
X19089Y-10470D01*
X19077Y-10494D01*
X17808Y-9717D02*
X17808Y-9919D01*
X17820Y-9943D01*
X17832Y-9955D01*
X17856Y-9967D01*
X17903Y-9967D01*
X17927Y-9955D01*
X17939Y-9943D01*
X17951Y-9919D01*
X17951Y-9717D01*
X18201Y-9967D02*
X18058Y-9967D01*
X18129Y-9967D02*
X18129Y-9717D01*
X18106Y-9752D01*
X18082Y-9776D01*
X18058Y-9788D01*
X18284Y-9717D02*
X18439Y-9717D01*
X18356Y-9812D01*
X18391Y-9812D01*
X18415Y-9824D01*
X18427Y-9836D01*
X18439Y-9860D01*
X18439Y-9919D01*
X18427Y-9943D01*
X18415Y-9955D01*
X18391Y-9967D01*
X18320Y-9967D01*
X18296Y-9955D01*
X18284Y-9943D01*
X16779Y-8089D02*
X16815Y-8101D01*
X16874Y-8101D01*
X16898Y-8089D01*
X16910Y-8077D01*
X16922Y-8053D01*
X16922Y-8029D01*
X16910Y-8005D01*
X16898Y-7994D01*
X16874Y-7982D01*
X16827Y-7970D01*
X16803Y-7958D01*
X16791Y-7946D01*
X16779Y-7922D01*
X16779Y-7898D01*
X16791Y-7875D01*
X16803Y-7863D01*
X16827Y-7851D01*
X16886Y-7851D01*
X16922Y-7863D01*
X17029Y-8101D02*
X17029Y-7851D01*
X17172Y-8101D01*
X17172Y-7851D01*
X17267Y-7851D02*
X17434Y-7851D01*
X17327Y-8101D01*
X17636Y-7934D02*
X17636Y-8101D01*
X17577Y-7839D02*
X17517Y-8017D01*
X17672Y-8017D01*
X17886Y-8101D02*
X17767Y-8101D01*
X17767Y-7851D01*
X17934Y-7851D02*
X18017Y-8101D01*
X18101Y-7851D01*
X18315Y-8101D02*
X18172Y-8101D01*
X18244Y-8101D02*
X18244Y-7851D01*
X18220Y-7886D01*
X18196Y-7910D01*
X18172Y-7922D01*
X18386Y-7851D02*
X18529Y-7851D01*
X18458Y-8101D02*
X18458Y-7851D01*
X18744Y-8101D02*
X18601Y-8101D01*
X18672Y-8101D02*
X18672Y-7851D01*
X18648Y-7886D01*
X18625Y-7910D01*
X18601Y-7922D01*
X18839Y-7875D02*
X18851Y-7863D01*
X18875Y-7851D01*
X18934Y-7851D01*
X18958Y-7863D01*
X18970Y-7875D01*
X18982Y-7898D01*
X18982Y-7922D01*
X18970Y-7958D01*
X18827Y-8101D01*
X18982Y-8101D01*
X19196Y-7851D02*
X19148Y-7851D01*
X19125Y-7863D01*
X19113Y-7875D01*
X19089Y-7910D01*
X19077Y-7958D01*
X19077Y-8053D01*
X19089Y-8077D01*
X19101Y-8089D01*
X19125Y-8101D01*
X19172Y-8101D01*
X19196Y-8089D01*
X19208Y-8077D01*
X19220Y-8053D01*
X19220Y-7994D01*
X19208Y-7970D01*
X19196Y-7958D01*
X19172Y-7946D01*
X19125Y-7946D01*
X19101Y-7958D01*
X19089Y-7970D01*
X19077Y-7994D01*
X9927Y-17717D02*
X9927Y-17919D01*
X9939Y-17943D01*
X9951Y-17955D01*
X9975Y-17967D01*
X10022Y-17967D01*
X10046Y-17955D01*
X10058Y-17943D01*
X10070Y-17919D01*
X10070Y-17717D01*
X10296Y-17717D02*
X10248Y-17717D01*
X10225Y-17729D01*
X10213Y-17741D01*
X10189Y-17776D01*
X10177Y-17824D01*
X10177Y-17919D01*
X10189Y-17943D01*
X10201Y-17955D01*
X10225Y-17967D01*
X10272Y-17967D01*
X10296Y-17955D01*
X10308Y-17943D01*
X10320Y-17919D01*
X10320Y-17860D01*
X10308Y-17836D01*
X10296Y-17824D01*
X10272Y-17812D01*
X10225Y-17812D01*
X10201Y-17824D01*
X10189Y-17836D01*
X10177Y-17860D01*
X8779Y-16089D02*
X8815Y-16101D01*
X8874Y-16101D01*
X8898Y-16089D01*
X8910Y-16077D01*
X8922Y-16053D01*
X8922Y-16029D01*
X8910Y-16005D01*
X8898Y-15994D01*
X8874Y-15982D01*
X8827Y-15970D01*
X8803Y-15958D01*
X8791Y-15946D01*
X8779Y-15922D01*
X8779Y-15898D01*
X8791Y-15875D01*
X8803Y-15863D01*
X8827Y-15851D01*
X8886Y-15851D01*
X8922Y-15863D01*
X9029Y-16101D02*
X9029Y-15851D01*
X9172Y-16101D01*
X9172Y-15851D01*
X9267Y-15851D02*
X9434Y-15851D01*
X9327Y-16101D01*
X9636Y-15934D02*
X9636Y-16101D01*
X9577Y-15839D02*
X9517Y-16017D01*
X9672Y-16017D01*
X9886Y-16101D02*
X9767Y-16101D01*
X9767Y-15851D01*
X9934Y-15851D02*
X10017Y-16101D01*
X10101Y-15851D01*
X10315Y-16101D02*
X10172Y-16101D01*
X10244Y-16101D02*
X10244Y-15851D01*
X10220Y-15886D01*
X10196Y-15910D01*
X10172Y-15922D01*
X10386Y-15851D02*
X10529Y-15851D01*
X10458Y-16101D02*
X10458Y-15851D01*
X10744Y-16101D02*
X10601Y-16101D01*
X10672Y-16101D02*
X10672Y-15851D01*
X10648Y-15886D01*
X10625Y-15910D01*
X10601Y-15922D01*
X10839Y-15875D02*
X10851Y-15863D01*
X10875Y-15851D01*
X10934Y-15851D01*
X10958Y-15863D01*
X10970Y-15875D01*
X10982Y-15898D01*
X10982Y-15922D01*
X10970Y-15958D01*
X10827Y-16101D01*
X10982Y-16101D01*
X11196Y-15851D02*
X11148Y-15851D01*
X11125Y-15863D01*
X11113Y-15875D01*
X11089Y-15910D01*
X11077Y-15958D01*
X11077Y-16053D01*
X11089Y-16077D01*
X11101Y-16089D01*
X11125Y-16101D01*
X11172Y-16101D01*
X11196Y-16089D01*
X11208Y-16077D01*
X11220Y-16053D01*
X11220Y-15994D01*
X11208Y-15970D01*
X11196Y-15958D01*
X11172Y-15946D01*
X11125Y-15946D01*
X11101Y-15958D01*
X11089Y-15970D01*
X11077Y-15994D01*
X9927Y-15217D02*
X9927Y-15419D01*
X9939Y-15443D01*
X9951Y-15455D01*
X9975Y-15467D01*
X10022Y-15467D01*
X10046Y-15455D01*
X10058Y-15443D01*
X10070Y-15419D01*
X10070Y-15217D01*
X10177Y-15241D02*
X10189Y-15229D01*
X10213Y-15217D01*
X10272Y-15217D01*
X10296Y-15229D01*
X10308Y-15241D01*
X10320Y-15264D01*
X10320Y-15288D01*
X10308Y-15324D01*
X10165Y-15467D01*
X10320Y-15467D01*
X8779Y-13589D02*
X8815Y-13601D01*
X8874Y-13601D01*
X8898Y-13589D01*
X8910Y-13577D01*
X8922Y-13553D01*
X8922Y-13529D01*
X8910Y-13505D01*
X8898Y-13494D01*
X8874Y-13482D01*
X8827Y-13470D01*
X8803Y-13458D01*
X8791Y-13446D01*
X8779Y-13422D01*
X8779Y-13398D01*
X8791Y-13375D01*
X8803Y-13363D01*
X8827Y-13351D01*
X8886Y-13351D01*
X8922Y-13363D01*
X9029Y-13601D02*
X9029Y-13351D01*
X9172Y-13601D01*
X9172Y-13351D01*
X9267Y-13351D02*
X9434Y-13351D01*
X9327Y-13601D01*
X9636Y-13434D02*
X9636Y-13601D01*
X9577Y-13339D02*
X9517Y-13517D01*
X9672Y-13517D01*
X9886Y-13601D02*
X9767Y-13601D01*
X9767Y-13351D01*
X9934Y-13351D02*
X10017Y-13601D01*
X10101Y-13351D01*
X10315Y-13601D02*
X10172Y-13601D01*
X10244Y-13601D02*
X10244Y-13351D01*
X10220Y-13386D01*
X10196Y-13410D01*
X10172Y-13422D01*
X10386Y-13351D02*
X10529Y-13351D01*
X10458Y-13601D02*
X10458Y-13351D01*
X10744Y-13601D02*
X10601Y-13601D01*
X10672Y-13601D02*
X10672Y-13351D01*
X10648Y-13386D01*
X10625Y-13410D01*
X10601Y-13422D01*
X10839Y-13375D02*
X10851Y-13363D01*
X10875Y-13351D01*
X10934Y-13351D01*
X10958Y-13363D01*
X10970Y-13375D01*
X10982Y-13398D01*
X10982Y-13422D01*
X10970Y-13458D01*
X10827Y-13601D01*
X10982Y-13601D01*
X11196Y-13351D02*
X11148Y-13351D01*
X11125Y-13363D01*
X11113Y-13375D01*
X11089Y-13410D01*
X11077Y-13458D01*
X11077Y-13553D01*
X11089Y-13577D01*
X11101Y-13589D01*
X11125Y-13601D01*
X11172Y-13601D01*
X11196Y-13589D01*
X11208Y-13577D01*
X11220Y-13553D01*
X11220Y-13494D01*
X11208Y-13470D01*
X11196Y-13458D01*
X11172Y-13446D01*
X11125Y-13446D01*
X11101Y-13458D01*
X11089Y-13470D01*
X11077Y-13494D01*
X17808Y-17717D02*
X17808Y-17919D01*
X17820Y-17943D01*
X17832Y-17955D01*
X17856Y-17967D01*
X17903Y-17967D01*
X17927Y-17955D01*
X17939Y-17943D01*
X17951Y-17919D01*
X17951Y-17717D01*
X18201Y-17967D02*
X18058Y-17967D01*
X18129Y-17967D02*
X18129Y-17717D01*
X18106Y-17752D01*
X18082Y-17776D01*
X18058Y-17788D01*
X18344Y-17824D02*
X18320Y-17812D01*
X18308Y-17800D01*
X18296Y-17776D01*
X18296Y-17764D01*
X18308Y-17741D01*
X18320Y-17729D01*
X18344Y-17717D01*
X18391Y-17717D01*
X18415Y-17729D01*
X18427Y-17741D01*
X18439Y-17764D01*
X18439Y-17776D01*
X18427Y-17800D01*
X18415Y-17812D01*
X18391Y-17824D01*
X18344Y-17824D01*
X18320Y-17836D01*
X18308Y-17848D01*
X18296Y-17871D01*
X18296Y-17919D01*
X18308Y-17943D01*
X18320Y-17955D01*
X18344Y-17967D01*
X18391Y-17967D01*
X18415Y-17955D01*
X18427Y-17943D01*
X18439Y-17919D01*
X18439Y-17871D01*
X18427Y-17848D01*
X18415Y-17836D01*
X18391Y-17824D01*
X16779Y-16089D02*
X16815Y-16101D01*
X16874Y-16101D01*
X16898Y-16089D01*
X16910Y-16077D01*
X16922Y-16053D01*
X16922Y-16029D01*
X16910Y-16005D01*
X16898Y-15994D01*
X16874Y-15982D01*
X16827Y-15970D01*
X16803Y-15958D01*
X16791Y-15946D01*
X16779Y-15922D01*
X16779Y-15898D01*
X16791Y-15875D01*
X16803Y-15863D01*
X16827Y-15851D01*
X16886Y-15851D01*
X16922Y-15863D01*
X17029Y-16101D02*
X17029Y-15851D01*
X17172Y-16101D01*
X17172Y-15851D01*
X17267Y-15851D02*
X17434Y-15851D01*
X17327Y-16101D01*
X17636Y-15934D02*
X17636Y-16101D01*
X17577Y-15839D02*
X17517Y-16017D01*
X17672Y-16017D01*
X17886Y-16101D02*
X17767Y-16101D01*
X17767Y-15851D01*
X17934Y-15851D02*
X18017Y-16101D01*
X18101Y-15851D01*
X18315Y-16101D02*
X18172Y-16101D01*
X18244Y-16101D02*
X18244Y-15851D01*
X18220Y-15886D01*
X18196Y-15910D01*
X18172Y-15922D01*
X18386Y-15851D02*
X18529Y-15851D01*
X18458Y-16101D02*
X18458Y-15851D01*
X18744Y-16101D02*
X18601Y-16101D01*
X18672Y-16101D02*
X18672Y-15851D01*
X18648Y-15886D01*
X18625Y-15910D01*
X18601Y-15922D01*
X18839Y-15875D02*
X18851Y-15863D01*
X18875Y-15851D01*
X18934Y-15851D01*
X18958Y-15863D01*
X18970Y-15875D01*
X18982Y-15898D01*
X18982Y-15922D01*
X18970Y-15958D01*
X18827Y-16101D01*
X18982Y-16101D01*
X19196Y-15851D02*
X19148Y-15851D01*
X19125Y-15863D01*
X19113Y-15875D01*
X19089Y-15910D01*
X19077Y-15958D01*
X19077Y-16053D01*
X19089Y-16077D01*
X19101Y-16089D01*
X19125Y-16101D01*
X19172Y-16101D01*
X19196Y-16089D01*
X19208Y-16077D01*
X19220Y-16053D01*
X19220Y-15994D01*
X19208Y-15970D01*
X19196Y-15958D01*
X19172Y-15946D01*
X19125Y-15946D01*
X19101Y-15958D01*
X19089Y-15970D01*
X19077Y-15994D01*
G54D10*
X24962Y-11865D02*
X24962Y-12184D01*
X24981Y-12221D01*
X25000Y-12240D01*
X25037Y-12259D01*
X25112Y-12259D01*
X25150Y-12240D01*
X25168Y-12221D01*
X25187Y-12184D01*
X25187Y-11865D01*
X25581Y-12259D02*
X25356Y-12259D01*
X25468Y-12259D02*
X25468Y-11865D01*
X25431Y-11921D01*
X25393Y-11959D01*
X25356Y-11978D01*
X25956Y-12259D02*
X25731Y-12259D01*
X25843Y-12259D02*
X25843Y-11865D01*
X25806Y-11921D01*
X25768Y-11959D01*
X25731Y-11978D01*
X24360Y-9227D02*
X24360Y-8912D01*
X24465Y-9137D01*
X24570Y-8912D01*
X24570Y-9227D01*
X24705Y-9137D02*
X24855Y-9137D01*
X24675Y-9227D02*
X24780Y-8912D01*
X24885Y-9227D01*
X24960Y-8912D02*
X25170Y-9227D01*
X25170Y-8912D02*
X24960Y-9227D01*
X25455Y-9227D02*
X25275Y-9227D01*
X25365Y-9227D02*
X25365Y-8912D01*
X25335Y-8957D01*
X25305Y-8987D01*
X25275Y-9002D01*
X25574Y-8942D02*
X25589Y-8927D01*
X25619Y-8912D01*
X25694Y-8912D01*
X25724Y-8927D01*
X25739Y-8942D01*
X25754Y-8972D01*
X25754Y-9002D01*
X25739Y-9047D01*
X25559Y-9227D01*
X25754Y-9227D01*
X25904Y-9227D02*
X25964Y-9227D01*
X25994Y-9212D01*
X26009Y-9197D01*
X26039Y-9152D01*
X26054Y-9092D01*
X26054Y-8972D01*
X26039Y-8942D01*
X26024Y-8927D01*
X25994Y-8912D01*
X25934Y-8912D01*
X25904Y-8927D01*
X25889Y-8942D01*
X25874Y-8972D01*
X25874Y-9047D01*
X25889Y-9077D01*
X25904Y-9092D01*
X25934Y-9107D01*
X25994Y-9107D01*
X26024Y-9092D01*
X26039Y-9077D01*
X26054Y-9047D01*
X26159Y-8912D02*
X26354Y-8912D01*
X26249Y-9032D01*
X26294Y-9032D01*
X26324Y-9047D01*
X26339Y-9062D01*
X26354Y-9092D01*
X26354Y-9167D01*
X26339Y-9197D01*
X26324Y-9212D01*
X26294Y-9227D01*
X26204Y-9227D01*
X26174Y-9212D01*
X26159Y-9197D01*
X26654Y-9227D02*
X26474Y-9227D01*
X26564Y-9227D02*
X26564Y-8912D01*
X26534Y-8957D01*
X26504Y-8987D01*
X26474Y-9002D01*
X13700Y-11765D02*
X13700Y-12084D01*
X13718Y-12121D01*
X13737Y-12140D01*
X13775Y-12159D01*
X13850Y-12159D01*
X13887Y-12140D01*
X13906Y-12121D01*
X13925Y-12084D01*
X13925Y-11765D01*
X14131Y-12159D02*
X14206Y-12159D01*
X14243Y-12140D01*
X14262Y-12121D01*
X14299Y-12065D01*
X14318Y-11990D01*
X14318Y-11840D01*
X14299Y-11803D01*
X14281Y-11784D01*
X14243Y-11765D01*
X14168Y-11765D01*
X14131Y-11784D01*
X14112Y-11803D01*
X14093Y-11840D01*
X14093Y-11934D01*
X14112Y-11971D01*
X14131Y-11990D01*
X14168Y-12009D01*
X14243Y-12009D01*
X14281Y-11990D01*
X14299Y-11971D01*
X14318Y-11934D01*
X12860Y-9127D02*
X12860Y-8812D01*
X12965Y-9037D01*
X13070Y-8812D01*
X13070Y-9127D01*
X13205Y-9037D02*
X13355Y-9037D01*
X13175Y-9127D02*
X13280Y-8812D01*
X13385Y-9127D01*
X13460Y-8812D02*
X13670Y-9127D01*
X13670Y-8812D02*
X13460Y-9127D01*
X13955Y-9127D02*
X13775Y-9127D01*
X13865Y-9127D02*
X13865Y-8812D01*
X13835Y-8857D01*
X13805Y-8887D01*
X13775Y-8902D01*
X14074Y-8842D02*
X14089Y-8827D01*
X14119Y-8812D01*
X14194Y-8812D01*
X14224Y-8827D01*
X14239Y-8842D01*
X14254Y-8872D01*
X14254Y-8902D01*
X14239Y-8947D01*
X14059Y-9127D01*
X14254Y-9127D01*
X14404Y-9127D02*
X14464Y-9127D01*
X14494Y-9112D01*
X14509Y-9097D01*
X14539Y-9052D01*
X14554Y-8992D01*
X14554Y-8872D01*
X14539Y-8842D01*
X14524Y-8827D01*
X14494Y-8812D01*
X14434Y-8812D01*
X14404Y-8827D01*
X14389Y-8842D01*
X14374Y-8872D01*
X14374Y-8947D01*
X14389Y-8977D01*
X14404Y-8992D01*
X14434Y-9007D01*
X14494Y-9007D01*
X14524Y-8992D01*
X14539Y-8977D01*
X14554Y-8947D01*
X14659Y-8812D02*
X14854Y-8812D01*
X14749Y-8932D01*
X14794Y-8932D01*
X14824Y-8947D01*
X14839Y-8962D01*
X14854Y-8992D01*
X14854Y-9067D01*
X14839Y-9097D01*
X14824Y-9112D01*
X14794Y-9127D01*
X14704Y-9127D01*
X14674Y-9112D01*
X14659Y-9097D01*
X15154Y-9127D02*
X14974Y-9127D01*
X15064Y-9127D02*
X15064Y-8812D01*
X15034Y-8857D01*
X15004Y-8887D01*
X14974Y-8902D01*
X13512Y-17265D02*
X13512Y-17584D01*
X13531Y-17621D01*
X13550Y-17640D01*
X13587Y-17659D01*
X13662Y-17659D01*
X13700Y-17640D01*
X13718Y-17621D01*
X13737Y-17584D01*
X13737Y-17265D01*
X14131Y-17659D02*
X13906Y-17659D01*
X14018Y-17659D02*
X14018Y-17265D01*
X13981Y-17321D01*
X13943Y-17359D01*
X13906Y-17378D01*
X14374Y-17265D02*
X14412Y-17265D01*
X14449Y-17284D01*
X14468Y-17303D01*
X14487Y-17340D01*
X14506Y-17415D01*
X14506Y-17509D01*
X14487Y-17584D01*
X14468Y-17621D01*
X14449Y-17640D01*
X14412Y-17659D01*
X14374Y-17659D01*
X14337Y-17640D01*
X14318Y-17621D01*
X14299Y-17584D01*
X14281Y-17509D01*
X14281Y-17415D01*
X14299Y-17340D01*
X14318Y-17303D01*
X14337Y-17284D01*
X14374Y-17265D01*
X12860Y-14627D02*
X12860Y-14312D01*
X12965Y-14537D01*
X13070Y-14312D01*
X13070Y-14627D01*
X13205Y-14537D02*
X13355Y-14537D01*
X13175Y-14627D02*
X13280Y-14312D01*
X13385Y-14627D01*
X13460Y-14312D02*
X13670Y-14627D01*
X13670Y-14312D02*
X13460Y-14627D01*
X13955Y-14627D02*
X13775Y-14627D01*
X13865Y-14627D02*
X13865Y-14312D01*
X13835Y-14357D01*
X13805Y-14387D01*
X13775Y-14402D01*
X14074Y-14342D02*
X14089Y-14327D01*
X14119Y-14312D01*
X14194Y-14312D01*
X14224Y-14327D01*
X14239Y-14342D01*
X14254Y-14372D01*
X14254Y-14402D01*
X14239Y-14447D01*
X14059Y-14627D01*
X14254Y-14627D01*
X14404Y-14627D02*
X14464Y-14627D01*
X14494Y-14612D01*
X14509Y-14597D01*
X14539Y-14552D01*
X14554Y-14492D01*
X14554Y-14372D01*
X14539Y-14342D01*
X14524Y-14327D01*
X14494Y-14312D01*
X14434Y-14312D01*
X14404Y-14327D01*
X14389Y-14342D01*
X14374Y-14372D01*
X14374Y-14447D01*
X14389Y-14477D01*
X14404Y-14492D01*
X14434Y-14507D01*
X14494Y-14507D01*
X14524Y-14492D01*
X14539Y-14477D01*
X14554Y-14447D01*
X14659Y-14312D02*
X14854Y-14312D01*
X14749Y-14432D01*
X14794Y-14432D01*
X14824Y-14447D01*
X14839Y-14462D01*
X14854Y-14492D01*
X14854Y-14567D01*
X14839Y-14597D01*
X14824Y-14612D01*
X14794Y-14627D01*
X14704Y-14627D01*
X14674Y-14612D01*
X14659Y-14597D01*
X15154Y-14627D02*
X14974Y-14627D01*
X15064Y-14627D02*
X15064Y-14312D01*
X15034Y-14357D01*
X15004Y-14387D01*
X14974Y-14402D01*
X25012Y-17265D02*
X25012Y-17584D01*
X25031Y-17621D01*
X25050Y-17640D01*
X25087Y-17659D01*
X25162Y-17659D01*
X25200Y-17640D01*
X25218Y-17621D01*
X25237Y-17584D01*
X25237Y-17265D01*
X25631Y-17659D02*
X25406Y-17659D01*
X25518Y-17659D02*
X25518Y-17265D01*
X25481Y-17321D01*
X25443Y-17359D01*
X25406Y-17378D01*
X25781Y-17303D02*
X25799Y-17284D01*
X25837Y-17265D01*
X25931Y-17265D01*
X25968Y-17284D01*
X25987Y-17303D01*
X26006Y-17340D01*
X26006Y-17378D01*
X25987Y-17434D01*
X25762Y-17659D01*
X26006Y-17659D01*
X24360Y-14627D02*
X24360Y-14312D01*
X24465Y-14537D01*
X24570Y-14312D01*
X24570Y-14627D01*
X24705Y-14537D02*
X24855Y-14537D01*
X24675Y-14627D02*
X24780Y-14312D01*
X24885Y-14627D01*
X24960Y-14312D02*
X25170Y-14627D01*
X25170Y-14312D02*
X24960Y-14627D01*
X25455Y-14627D02*
X25275Y-14627D01*
X25365Y-14627D02*
X25365Y-14312D01*
X25335Y-14357D01*
X25305Y-14387D01*
X25275Y-14402D01*
X25574Y-14342D02*
X25589Y-14327D01*
X25619Y-14312D01*
X25694Y-14312D01*
X25724Y-14327D01*
X25739Y-14342D01*
X25754Y-14372D01*
X25754Y-14402D01*
X25739Y-14447D01*
X25559Y-14627D01*
X25754Y-14627D01*
X25904Y-14627D02*
X25964Y-14627D01*
X25994Y-14612D01*
X26009Y-14597D01*
X26039Y-14552D01*
X26054Y-14492D01*
X26054Y-14372D01*
X26039Y-14342D01*
X26024Y-14327D01*
X25994Y-14312D01*
X25934Y-14312D01*
X25904Y-14327D01*
X25889Y-14342D01*
X25874Y-14372D01*
X25874Y-14447D01*
X25889Y-14477D01*
X25904Y-14492D01*
X25934Y-14507D01*
X25994Y-14507D01*
X26024Y-14492D01*
X26039Y-14477D01*
X26054Y-14447D01*
X26159Y-14312D02*
X26354Y-14312D01*
X26249Y-14432D01*
X26294Y-14432D01*
X26324Y-14447D01*
X26339Y-14462D01*
X26354Y-14492D01*
X26354Y-14567D01*
X26339Y-14597D01*
X26324Y-14612D01*
X26294Y-14627D01*
X26204Y-14627D01*
X26174Y-14612D01*
X26159Y-14597D01*
X26654Y-14627D02*
X26474Y-14627D01*
X26564Y-14627D02*
X26564Y-14312D01*
X26534Y-14357D01*
X26504Y-14387D01*
X26474Y-14402D01*
G54D15*
X7161Y-12795D02*
X6761Y-12795D01*
X7161Y-12566D02*
X6933Y-12738D01*
X6761Y-12566D02*
X6990Y-12795D01*
X7161Y-12185D02*
X7161Y-12414D01*
X7161Y-12299D02*
X6761Y-12299D01*
X6819Y-12338D01*
X6857Y-12376D01*
X6876Y-12414D01*
X7161Y-18295D02*
X6761Y-18295D01*
X7161Y-18066D02*
X6933Y-18238D01*
X6761Y-18066D02*
X6990Y-18295D01*
X6800Y-17914D02*
X6780Y-17895D01*
X6761Y-17857D01*
X6761Y-17761D01*
X6780Y-17723D01*
X6800Y-17704D01*
X6838Y-17685D01*
X6876Y-17685D01*
X6933Y-17704D01*
X7161Y-17933D01*
X7161Y-17685D01*
X23154Y-7211D02*
X23154Y-6811D01*
X23383Y-7211D02*
X23211Y-6983D01*
X23383Y-6811D02*
X23154Y-7040D01*
X23516Y-6811D02*
X23764Y-6811D01*
X23630Y-6964D01*
X23688Y-6964D01*
X23726Y-6983D01*
X23745Y-7002D01*
X23764Y-7040D01*
X23764Y-7135D01*
X23745Y-7173D01*
X23726Y-7192D01*
X23688Y-7211D01*
X23573Y-7211D01*
X23535Y-7192D01*
X23516Y-7173D01*
X18704Y-19161D02*
X18704Y-18761D01*
X18933Y-19161D02*
X18761Y-18933D01*
X18933Y-18761D02*
X18704Y-18990D01*
X19276Y-18895D02*
X19276Y-19161D01*
X19180Y-18742D02*
X19085Y-19028D01*
X19333Y-19028D01*
X11278Y-7121D02*
X11278Y-6821D01*
X11392Y-6821D01*
X11421Y-6835D01*
X11435Y-6850D01*
X11450Y-6878D01*
X11450Y-6921D01*
X11435Y-6950D01*
X11421Y-6964D01*
X11392Y-6978D01*
X11278Y-6978D01*
X11564Y-6850D02*
X11578Y-6835D01*
X11607Y-6821D01*
X11678Y-6821D01*
X11707Y-6835D01*
X11721Y-6850D01*
X11735Y-6878D01*
X11735Y-6907D01*
X11721Y-6950D01*
X11550Y-7121D01*
X11735Y-7121D01*
G54D17*
X31811Y-13295D02*
X31411Y-13295D01*
X31411Y-13142D01*
X31430Y-13104D01*
X31450Y-13085D01*
X31488Y-13066D01*
X31545Y-13066D01*
X31583Y-13085D01*
X31602Y-13104D01*
X31621Y-13142D01*
X31621Y-13295D01*
X31811Y-12685D02*
X31811Y-12914D01*
X31811Y-12799D02*
X31411Y-12799D01*
X31469Y-12838D01*
X31507Y-12876D01*
X31526Y-12914D01*
M02*
