M48
METRIC,TZ
T1C0.635
T2C1.016
%
G90
G05
T1
X22225Y-23495
X22225Y-30607
X22225Y-44577
X22225Y-64135
X22225Y-71247
X22225Y-85217
X22352Y-20828
X22352Y-38354
X22352Y-61468
X22352Y-78994
X24003Y-40767
X24003Y-81407
X24130Y-26162
X24130Y-66802
X25273Y-20574
X25273Y-61214
X27813Y-20574
X27813Y-26670
X27813Y-61214
X27813Y-67310
X28067Y-41275
X28067Y-81915
X28448Y-32893
X28448Y-35814
X28448Y-73533
X28448Y-76454
X29083Y-23622
X29083Y-64262
X30988Y-44831
X30988Y-85471
X41021Y-44577
X41021Y-85217
X41148Y-28575
X41148Y-69215
X41529Y-20447
X41529Y-24003
X41529Y-61087
X41529Y-64643
X42545Y-37846
X42545Y-78486
X42926Y-41529
X42926Y-82169
X43180Y-24003
X43180Y-64643
X43307Y-27305
X43307Y-67945
X43942Y-45466
X43942Y-86106
X45720Y-29210
X45720Y-69850
X46101Y-32004
X46101Y-72644
X47244Y-34290
X47244Y-74930
X47879Y-25273
X47879Y-65913
X48387Y-43307
X48387Y-83947
X48641Y-22733
X48641Y-63373
X48768Y-35052
X48768Y-41275
X48768Y-75692
X48768Y-81915
X49149Y-27686
X49149Y-68326
X49911Y-19177
X49911Y-22733
X49911Y-59817
X49911Y-63373
X51816Y-29464
X51816Y-37211
X51816Y-43561
X51816Y-70104
X51816Y-77851
X51816Y-84201
X51943Y-24511
X51943Y-65151
X52959Y-26543
X52959Y-67183
X53594Y-45593
X53594Y-86233
X54356Y-19304
X54356Y-59944
X55880Y-45720
X55880Y-86360
X57277Y-21844
X57277Y-62484
X57404Y-34925
X57404Y-75565
X57658Y-27432
X57658Y-68072
X57785Y-41656
X57785Y-82296
X58801Y-36195
X58801Y-45974
X58801Y-76835
X58801Y-86614
X59182Y-18161
X59182Y-26289
X59182Y-58801
X59182Y-66929
X60198Y-30099
X60198Y-70739
X61468Y-32893
X61468Y-73533
X65278Y-19177
X65278Y-59817
X66167Y-22733
X66167Y-63373
X68326Y-34417
X68326Y-75057
X69215Y-36322
X69215Y-76962
X71374Y-37084
X71374Y-77724
X71501Y-24384
X71501Y-43180
X71501Y-65024
X71501Y-83820
X71628Y-21590
X71628Y-62230
X72009Y-27432
X72009Y-30099
X72009Y-68072
X72009Y-70739
X75057Y-27559
X75057Y-68199
X77470Y-25019
X77470Y-29591
X77470Y-37465
X77470Y-65659
X77470Y-70231
X77470Y-78105
X78105Y-22606
X78105Y-63246
X78232Y-43180
X78232Y-83820
X78296Y-41593
X78296Y-82233
X78486Y-28956
X78486Y-36703
X78486Y-69596
X78486Y-77343
X78740Y-34417
X78740Y-75057
X81026Y-34544
X81026Y-75184
T2
X17780Y-24130
X17780Y-26670
X17780Y-29210
X17780Y-38100
X17780Y-40640
X17780Y-43180
X17780Y-64770
X17780Y-67310
X17780Y-69850
X17780Y-78740
X17780Y-81280
X17780Y-83820
X24130Y-17780
X24130Y-58420
X26670Y-17780
X26670Y-58420
X51943Y-17907
X51943Y-58547
X52070Y-48260
X52070Y-88900
X54483Y-17907
X54483Y-58547
X54610Y-48260
X54610Y-88900
X57023Y-17907
X57023Y-58547
X57150Y-48260
X57150Y-88900
X82550Y-26670
X82550Y-29210
X82550Y-31750
X82550Y-34290
X82550Y-36830
X82550Y-39370
X82550Y-67310
X82550Y-69850
X82550Y-72390
X82550Y-74930
X82550Y-77470
X82550Y-80010
T0
M30
